<ttFont>
          <CharString index="0">
            rmoveto
            hintmask 10100101
            -88 callsubr
            hintmask 10101010
            -95 callsubr
            hintmask 01101010
            -31 callsubr
            164 -24 callgsubr
            -57 12 rlineto
            -83 callsubr
            hintmask 10011001
            -104 callsubr
            hintmask 10100101
            -71 callsubr
            endchar
          </CharString>
          <CharString index="1">
            rmoveto
            9 callsubr
            -977 hlineto
            hintmask 11010010
            -91 callsubr
            33 399 rlineto
            -70 hlineto
            -12 -243 -121 -72 -178 -2 -391 -6 rcurveline
            -55 callgsubr
            25 469 rcurveline
            hintmask 10101100
            -105 callgsubr
            endchar
          </CharString>
          <CharString index="2">
            rmoveto
            -315 -191 -279 -332 -254 123 -205 270 318 184 291 330 287 -168 162 -221 hvcurveto
            -31 -76 rmoveto
            201 -4 43 -240 -4 -192 -4 -199 -82 -285 -217 4 -189 4 -47 256 4 189 4 262 109 207 182 -2 rrcurveto
            endchar
          </CharString>
          <CharString index="3">
            31 258 10 90 70 46 callsubr
            -172 hlineto
            2 -35 2 -33 -41 vvcurveto
            -346 -199 -495 -188 -80 -16 82 47 vhcurveto
            172 67 317 156 vvcurveto
            return
          </CharString>
          <CharString index="4">
            -258 113 -99 147 113 157 56 403 130 vhcurveto
            -125 537 rmoveto
            63 55 -8 -17 41 hvcurveto
            -366 -2 -200 -515 -187 hhcurveto
            -100 -33 127 174 301 115 304 248 hvcurveto
            endchar
          </CharString>
          <CharString index="5">
            rmoveto
            -21 -102 -16 -95 -77 vvcurveto
            hintmask 01111000
            -101 callsubr
            hintmask 10111000
            -103 callsubr
          </CharString>
          <CharString index="6">
            -111 41 -74 110 -48 callgsubr
            19 -37 callgsubr
            -60 2 67 56 133 48 350 43 326 hvcurveto
            22 -89 -104 13 -82 hhcurveto
            -399 -199 -330 -383 hvcurveto
            return
          </CharString>
          <CharString index="7">
            -51 -47 -50 -62 -4 hvcurveto
            -63 -1 39 -49 52 hhcurveto
            49 47 49 63 2 hvcurveto
            62 3 -36 50 -53 hhcurveto
            return
          </CharString>
          <CharString index="8">
            rmoveto
            -453 hlineto
            -4 -91 148 9 -7 -41 -6 -51 -2 -95 callgsubr
            6 53 2 74 rlinecurve
            47 890 rlineto
            return
          </CharString>
          <CharString index="9">
            rmoveto
            49 -41 211 219 71 76 -28 49 -17 16 rlinecurve
            -12 13 -59 32 -56 -94 rrcurveto
            return
          </CharString>
          <CharString index="10">
            -127 60 -66 125 153 76 174 115 25 -37 callgsubr
            -45 -19 30 56 hvcurveto
            229 78 275 164 vvcurveto
            return
          </CharString>
          <CharString index="11">
            -17 vlineto
            -121 -67 -133 -47 -54 vhcurveto
            51 -41 rlineto
            113 127 55 178 101 vvcurveto
            94 -49 67 -82 -63 -52 -41 -74 -49 38 -46 52 15 16 2 7 17 vhcurveto
            return
          </CharString>
          <CharString index="12">
            -142 60 -125 164 133 114 86 373 139 vhcurveto
            6 hlineto
            -20 -102 -17 -95 -77 vvcurveto
            return
          </CharString>
          <CharString index="13">
            -46 callgsubr
            hintmask 11001010
            -42 callsubr
            -2 39 callsubr
            hintmask 10110010
            -89 callgsubr
            hintmask 10101100
            -86 callsubr
            hintmask 10101010
            -42 callgsubr
            endchar
          </CharString>
          <CharString index="14">
            -56 rlinecurve
            -47 -101 callgsubr
            return
          </CharString>
          <CharString index="15">
            9 -7 -41 -6 -51 -2 -93 callsubr
            return
          </CharString>
          <CharString index="16">
            -98 callgsubr
            1049 hlineto
            return
          </CharString>
          <CharString index="17">
            rmoveto
            4 hlineto
            397 305 -32 53 -119 -67 -117 -76 -123 -57 rlinecurve
            -4 hlineto
            -115 59 -112 72 -115 65 -39 -61 rcurveline
            return
          </CharString>
          <CharString index="18">
            rmoveto
            -11 -436 rlineto
            107 hlineto
            -6 71 rlineto
            -69 103 150 -19 105 hhcurveto
            305 185 160 227 10 hvcurveto
            hintmask 11001100
            -39 callgsubr
            hintmask 11010010
            240 104 -188 -197 2 hvcurveto
            74 hlineto
            hintmask 10110010
            22 449 rlineto
            -104 hlineto
            3 -87 rlineto
            hintmask 11001100
            -75 callsubr
            hintmask 11010100
            22 callgsubr
          </CharString>
          <CharString index="19">
            145 41 58 53 45 hhcurveto
            49 6 -45 -51 hvcurveto
            -117 -65 -260 -227 vvcurveto
            return
          </CharString>
          <CharString index="20">
            -64 -59 -57 -72 -4 hvcurveto
            -73 -2 49 -56 64 hhcurveto
            61 59 56 73 2 hvcurveto
            72 4 -45 57 -65 hhcurveto
            return
          </CharString>
          <CharString index="21">
            -127 36 -71 130 163 84 192 96 19 vhcurveto
            -58 47 callgsubr
            -63 29 callsubr
            61 262 227 vvcurveto
            return
          </CharString>
          <CharString index="22">
            714 0 86 1263 85 -2 callgsubr
            1470 162 39 callgsubr
            1781 40 callsubr
            -295 hlineto
            -129 -292 -172 -333 -131 -295 -32 -74 -52 -116 -34 -74 rrcurveto
            -5 hlineto
            -153 397 -125 359 -166 428 rrcurveto
            -305 hlineto
            -4 -88 147 6 -110 -1096 -11 -100 -12 -86 -127 -2 rlinecurve
            -4 -68 rlineto
            389 hlineto
            6 90 -154 -8 8 51 5 62 6 61 rlinecurve
            53 553 11 119 11 133 5 153 rlinecurve
            4 hlineto
            37 -127 14 -34 39 -107 119 -321 109 -324 127 -321 rrcurveto
            59 hlineto
            487 1051 72 157 rlineto
            4 hlineto
            -2 -60 0 -57 -59 vvcurveto
            -701 vlineto
            -149 -14 -84 -113 -10 vhcurveto
            -16 hlineto
            -4 -68 rlineto
            450 hlineto
            6 90 -151 -8 rlineto
            2 37 2 43 49 vvcurveto
            932 vlineto
            hintmask 10110000
            -8 168 51 57 102 -2 rrcurveto
            endchar
          </CharString>
          <CharString index="23">
            -123 -6 70 -86 121 hhcurveto
            98 96 65 64 57 hvcurveto
            -28 35 rlineto
            -46 -51 -56 -20 -49 hhcurveto
            -80 -43 57 86 return
          </CharString>
          <CharString index="24">
            -145 -41 -64 -51 -45 hhcurveto
            -43 -12 41 49 61 2 0 51 callgsubr
            return
          </CharString>
          <CharString index="25">
            rmoveto
            -172 -90 -127 -75 -119 hhcurveto
            -161 -72 131 254 -1 hvcurveto
            return
          </CharString>
          <CharString index="26">
            60 41 104 11 -84 vvcurveto
            -80 -123 -51 -139 -25 vhcurveto
            8 -64 142 21 250 53 14 166 rlinecurve
            74 6 -51 59 -90 hhcurveto
            -47 -52 -14 -25 -39 hvcurveto
            return
          </CharString>
          <CharString index="27">
            rmoveto
            -24 -102 -33 -29 -44 4 -58 6 -13 55 -15 143 -14 133 -63 104 -166 5 62 33 53 76 35 95 38 104 24 44 39 24 rrcurveto
            -54 7 39 -31 68 hhcurveto
            60 35 49 54 68 -42 46 -71 -125 -72 -75 -194 -73 hvcurveto
            -164 -61 -59 -57 -120 hhcurveto
            -66 hlineto
            6 47 7 50 8 55 rrcurveto
            212 32 -14 126 -153 hhcurveto
            -163 -87 -193 -96 -21 50 callgsubr
            43 65 53 45 hhcurveto
            57 -1 -63 -56 -3 hvcurveto
            -2 -43 -9 -43 -34 -266 rrcurveto
            hintmask 11110000
            -32 -258 -6 -92 -1 -70 -1 -22 0 -13 2 -18 rrcurveto
            170 hlineto
            -3 41 -2 38 33 vvcurveto
            -1 69 9 122 24 195 rrcurveto
            169 hlineto
            98 1 42 -61 16 -192 rrcurveto
            -215 18 56 -54 94 hhcurveto
            138 69 116 115 25 hvcurveto
            endchar
          </CharString>
          <CharString index="28">
            -48 -23 125 -125 199 746 125 hstemhm
            31 161 -91 59 hintmask 00000000
            hintmask 10101000
            581 644 rmoveto
            260 -91 -24 143 -148 hhcurveto
            -185 -32 -219 -110 hvcurveto
            59 2 rlineto
            161 8 47 41 49 hhcurveto
            73 27 -124 -282 107 hvcurveto
            hintmask 01110000
            -112 -330 -91 -110 -76 16 rrcurveto
            33 -2 -11 51 -65 hhcurveto
            -45 -38 -37 -58 -61 48 -43 78 101 114 36 400 138 hvcurveto
            2 hlineto
            hintmask 10101000
            -369 145 42 -67 135 hhcurveto
            137 49 141 139 19 hvcurveto
            -58 7 rlineto
            -109 -20 -35 -53 -49 hhcurveto
            -68 -67 125 279 -109 hvcurveto
            -14 36 117 289 84 81 57 8 rlinecurve
            -18 12 21 -43 61 hhcurveto
            47 37 41 47 57 -39 43 -72 -76 -140 -47 -356 -145 hvcurveto
            endchar
          </CharString>
          <CharString index="29">
            39 callgsubr
            1836 -13 callgsubr
            -6 -41 -6 -31 callgsubr
            -91 -153 -2 rlinecurve
            -381 75 callsubr
            897 rlineto
            hintmask 10110000
            8 146 12 73 -74 callgsubr
            -6 -41 -6 -31 callgsubr
            -87 -153 -6 rlinecurve
            -386 75 callsubr
            895 rlineto
            hintmask 10110000
            8 146 12 75 134 6 rrcurveto
            hintmask 11010000
            4 68 rlineto
            -453 -93 callgsubr
            return
          </CharString>
          <CharString index="30">
            rmoveto
            -100 -109 -84 -121 -2 hvcurveto
            -129 -2 96 -58 99 hhcurveto
            98 111 80 127 2 hvcurveto
            127 2 -99 58 -96 hhcurveto
            -4 -58 rmoveto
            59 2 37 -65 -4 -86 -4 -72 -43 -53 -49 -2 -64 -2 -38 69 4 80 4 72 45 55 53 2 rrcurveto
            return
          </CharString>
          <CharString index="31">
            13 217 -146 152 -395 5 -158 2 -149 -4 -154 -1 rrcurveto
            295 -310 rmoveto
            146 6 4 89 144 hhcurveto
            252 108 -106 -206 -10 hvcurveto
            -12 -236 -162 -86 -225 -8 -49 -2 -36 1 -42 4 rrcurveto
            return
          </CharString>
          <CharString index="32">
            81 -107 -137 24 -105 hhcurveto
            -332 -94 -224 -139 -8 hvcurveto
            -27 -473 782 84 -20 -408 rrcurveto
            -166 -8 -146 -88 -160 hhcurveto
            return
          </CharString>
          <CharString index="33">
            rmoveto
            hintmask 10101100
            -58 -69 -80 -8 -35 hhcurveto
            hintmask 10011100
            -123 -66 65 -123 hhcurveto
            -118 -103 -89 -131 -47 12 -47 15 -41 hvcurveto
            55 18 rlineto
            -10 29 -4 27 22 vvcurveto
            97 65 23 47 vhcurveto
            hintmask 01101100
            91 64 -51 -8 87 hvcurveto
            54 -5 67 12 72 76 rrcurveto
            4 hlineto
            -96 -116 -79 -96 -112 -147 -131 -172 -166 -222 -102 -151 65 -51 rcurveline
            63 68 59 11 60 hhcurveto
            hintmask 10011100
            120 120 -74 123 hhcurveto
            119 95 88 131 47 -10 47 -15 41 hvcurveto
            -55 -18 rlineto
            10 -29 5 -27 -22 vvcurveto
            -96 -66 -15 -47 vhcurveto
            hintmask 01011100
            -90 -93 69 -100 hhcurveto
            -100 -71 -34 -72 -63 hvcurveto
            -4 hlineto
            99 133 85 105 120 156 170 221 180 211 61 78 rrcurveto
            endchar
          </CharString>
          <CharString index="34">
            -56 callsubr
            47 10 -57 -35 hvcurveto
            -233 -80 -212 -237 vvcurveto
            return
          </CharString>
          <CharString index="35">
            rmoveto
            -87 callsubr
            return
          </CharString>
          <CharString index="36">
            127 -57 72 -109 -164 -77 -193 -96 -19 vhcurveto
            return
          </CharString>
          <CharString index="37">
            4 68 rlineto
            -453 11 callsubr
            3 18 816 1088 -46 -869 -54 callgsubr
            -100 -153 -27 callsubr
            452 -79 callgsubr
            endchar
          </CharString>
          <CharString index="38">
            -498 -555 80 1412 87 -82 82 454 78 hstemhm
            -256 163 84 callsubr
            60 1024 rmoveto
            hintmask 11011000
            -10 -88 179 2 -15 -140 -9 -151 -12 -145 rlinecurve
            -543 -49 16 -434 -192 hhcurveto
            -25 -21 -16 callsubr
            412 0 543 495 45 vhcurveto
            hintmask 10111000
            14 158 6 158 9 141 290 4 rcurveline
            6 80 rlineto
            -290 hlineto
            19 256 37 187 130 11 23 2 28 -4 9 -6 -3 -59 32 -42 52 -1 rrcurveto
            61 -2 21 53 31 vvcurveto
            69 -58 39 -100 -2 vhcurveto
            -272 -5 -93 -231 -42 -296 rrcurveto
            endchar
          </CharString>
          <CharString index="39">
            rmoveto
            90 57 -24 54 -14 16 -11 12 -45 41 -78 -72 -260 -241 rcurveline
            return
          </CharString>
          <CharString index="40">
            -287 -23 76 926 68 -8 callsubr
            465 1047 16 callsubr
            hintmask 11011000
            -26 callgsubr
            hintmask 11010100
            -64 callgsubr
            hintmask 11100100
            -16 callgsubr
            hintmask 11010100
            -60 callsubr
            vhcurveto
            endchar
          </CharString>
          <CharString index="41">
            rmoveto
            -418 hlineto
            hintmask 11010000
            -50 callsubr
            -63 119 -95 162 rrcurveto
            hintmask 10101000
            12 callsubr
            hintmask 11001000
            -4 -91 127 5 6 -52 27 -71 65 -109 rlinecurve
            324 -563 -12 -234 -7 -139 9 -106 -154 7 callgsubr
            6 53 2 74 rlinecurve
            -2 2 19 282 4 86 88 150 92 162 105 176 rrcurveto
            hintmask 10110000
            14 callsubr
          </CharString>
          <CharString index="42">
            48 -23 105 -105 110 937 -20 hstemhm
            118 1007 -1006 172 68 callsubr
            973 1024 rmoveto
            -155 hlineto
            -43 -808 rlineto
            -80 -58 -94 -54 -100 hhcurveto
            -178 -34 180 233 13 hvcurveto
            29 529 rlineto
            hintmask 10101000
            -160 hlineto
            -74 -1409 rlineto
            -108 -6 19 -62 76 hhcurveto
            59 22 52 53 2 hvcurveto
            7 96 -58 217 2 284 rrcurveto
            6 hlineto
            -123 47 65 -47 113 hhcurveto
            110 104 47 94 92 hvcurveto
            hintmask 01110000
            -66 9 24 -75 100 hhcurveto
            94 82 65 49 37 hvcurveto
            -20 31 rlineto
            -27 -39 -25 -8 -25 hhcurveto
            -57 -33 49 142 9 hvcurveto
            endchar
          </CharString>
          <CharString index="43">
            -100 -153 -6 return
          </CharString>
          <CharString index="44">
            -556 -555 84 1411 107 213 231 hstemhm
            274 219 hintmask 00000000
            383 1491 rmoveto
            -60 -49 -49 -70 -69 49 -43 60 59 51 45 69 70 -47 47 -63 hvcurveto
            -287 -753 rmoveto
            hintmask 11110000
            37 145 59 55 41 2 47 2 15 -49 2 -39 6 -121 -7 -172 -12 -151 rrcurveto
            -80 -6 -43 -801 -233 -18 callsubr
            399 61 531 417 42 hvcurveto
            17 168 4 164 113 vvcurveto
            138 -62 71 -108 -171 -71 -201 -96 -14 vhcurveto
            endchar
          </CharString>
          <CharString index="45">
            1556 rmoveto
            43 58 -260 241 -78 72 -45 -41 -11 -12 rlinecurve
            -14 -16 -24 -54 90 -57 rrcurveto
            return
          </CharString>
          <CharString index="46">
            -8 6 35 6 53 2 74 rlinecurve
            return
          </CharString>
          <CharString index="47">
            92 53 -36 -45 15 hvcurveto
            -14 -23 -5 -21 -21 vvcurveto
            -43 33 -39 49 49 37 37 58 122 -149 79 -154 return
          </CharString>
          <CharString index="48">
            -28 -258 -4 -92 -70 -51 callgsubr
            170 hlineto
            -2 35 -2 12 41 vvcurveto
            332 184 538 190 -43 vhcurveto
            -54 7 38 -31 50 hhcurveto
            58 36 49 49 hvcurveto
            return
          </CharString>
          <CharString index="49">
            -98 callgsubr
            514 hlineto
            5 90 -209 -61 callsubr
            return
          </CharString>
          <CharString index="50">
            -410 -187 -320 -352 -228 86 -170 191 122 142 64 395 114 hvcurveto
            -89 537 rmoveto
            49 49 -8 -19 36 hvcurveto
            -350 -18 -170 -522 -192 hhcurveto
            -111 -37 147 189 229 93 334 301 hvcurveto
            endchar
          </CharString>
          <CharString index="51">
            145 41 64 53 45 hhcurveto
            return
          </CharString>
          <CharString index="52">
            rmoveto
            16 311 rlineto
            55 4 2 189 154 hhcurveto
            4 67 rlineto
            -457 hlineto
            -4 -90 144 8 -23 -446 rlineto
            -72 -110 -138 -30 -108 hhcurveto
            -324 -211 280 387 21 hvcurveto
            381 20 248 271 291 hhcurveto
            return
          </CharString>
          <CharString index="53">
            1260 rmoveto
            -287 329 rlineto
            -4 hlineto
            -344 -321 45 -54 279 224 rlineto
            4 hlineto
            256 -232 rlineto
            return
          </CharString>
          <CharString index="54">
            -21 callgsubr
            -46 callsubr
            return
          </CharString>
          <CharString index="55" raw="1">
            6a1d8647 05f8593c 1d0b 
          </CharString>
          <CharString index="56">
            -145 -41 -63 -53 -45 hhcurveto
            return
          </CharString>
          <CharString index="57">
            -4 -91 162 7 -41 -43 -43 -74 -23 -39 rlinecurve
            -98 -166 -86 -143 -106 -187 rrcurveto
            -4 hlineto
            -109 164 return
          </CharString>
          <CharString index="58">
            rmoveto
            45 -45 242 211 84 72 -23 41 -16 20 rlinecurve
            -12 14 -58 25 -67 -88 rrcurveto
            92 -229 rmoveto
            37 -47 return
          </CharString>
          <CharString index="59">
            -56 0 54 callgsubr
            -74 74 hstemhm
            1027 71 68 callsubr
            454 1131 rmoveto
            -21 callsubr
            67 hlineto
            8 359 rlineto
            -942 hlineto
            hintmask 11010000
            -58 callsubr
            endchar
          </CharString>
          <CharString index="60">
            1905 rmoveto
            -4 hlineto
            -402 -287 31 -55 348 178 rlineto
            4 hlineto
            356 -182 37 57 rlineto
            return
          </CharString>
          <CharString index="61">
            -19 callsubr
            331 hmoveto
            69 3 -38 54 -56 hhcurveto
            48 callgsubr
            return
          </CharString>
          <CharString index="62">
            rmoveto
            19 189 rlineto
            -49 hlineto
            -7 -95 -82 9 -114 4 -182 4 rcurveline
            20 61 61 60 99 69 217 152 37 88 4 80 rrcurveto
            151 8 -117 68 -127 hhcurveto
            -166 -98 -122 -86 -37 26 -25 32 34 25 27 29 16 -3 19 -16 17 hvcurveto
            45 11 55 47 70 hhcurveto
            88 43 -63 -88 -4 hvcurveto
            -5 -58 -24 -86 -119 -94 -133 -104 -119 -107 -8 -170 rrcurveto
            endchar
          </CharString>
          <CharString index="63">
            405 64 callgsubr
            -51 hlineto
            -231 -166 28 -54 131 76 rlineto
            5 hlineto
            -25 -479 rlineto
            -82 -4 -21 -67 -84 hhcurveto
            -2 -58 rlineto
            314 hlineto
            4 70 -107 -4 6 22 3 27 2 31 rlinecurve
            return
          </CharString>
          <CharString index="64">
            73 callgsubr
            -9 callsubr
            return
          </CharString>
          <CharString index="65">
            -56 callsubr
            47 8 -43 -49 -61 return
          </CharString>
          <CharString index="66">
            948 1536 rmoveto
            -473 -356 -369 -454 -25 hvcurveto
            -475 -24 303 -340 487 hhcurveto
            455 377 362 453 22 hvcurveto
            454 25 -311 369 -480 hhcurveto
            -10 -94 rmoveto
            412 254 -344 -385 -21 hvcurveto
            -383 -18 -283 -334 -414 hhcurveto
            -426 -237 334 383 20 hvcurveto
            405 23 283 324 407 hhcurveto
            return
          </CharString>
          <CharString index="67">
            -104 -211 hhcurveto
            -27 -127 -22 callgsubr
          </CharString>
          <CharString index="68">
            -28 -33 -47 -27 -180 hhcurveto
            -9 -82 return
          </CharString>
          <CharString index="69">
            rrcurveto
            hintmask 1010111110000000
            6 -37 -38 3 -40 hhcurveto
            -395 -201 -282 -399 -215 88 -174 189 120 150 74 375 113 hvcurveto
            6 hlineto
            -21 -102 -10 -84 -78 vvcurveto
            hintmask 0110111110000000
            -31 callsubr
            163 -13 callsubr
            19 vhcurveto
            -60 40 callgsubr
            -40 -62 -53 -45 hhcurveto
            -53 -2 55 53 148 30 276 29 262 hvcurveto
            return
          </CharString>
          <CharString index="70">
            -240 -4 -142 -202 -10 -191 rrcurveto
            -197 -10 117 -186 244 hhcurveto
            209 177 191 211 11 hvcurveto
            9 188 -111 195 -254 -5 rrcurveto
            return
          </CharString>
          <CharString index="71">
            473 -33 callsubr
            -170 -8 6 35 return
          </CharString>
          <CharString index="72">
            17 vlineto
            121 67 133 47 54 vhcurveto
            -51 41 rlineto
            -113 -127 -55 -178 -101 vvcurveto
            -94 49 -67 82 63 52 41 74 49 -38 46 -52 -15 -16 -2 -7 -17 vhcurveto
            return
          </CharString>
          <CharString index="73">
            450 -33 84 1334 82 hstem
            100 18 callsubr
            vstem
            return
          </CharString>
          <CharString index="74">
            hlineto
            4 90 return
          </CharString>
          <CharString index="75">
            56 callsubr
            -2 -9 -11 -73 rlinecurve
            return
          </CharString>
          <CharString index="76">
            -111 47 -74 111 return
          </CharString>
          <CharString index="77">
            8 146 12 73 63 callsubr
            return
          </CharString>
          <CharString index="78">
            222 113 95 93 11 135 10 133 -78 95 -179 1 -199 1 -166 -112 -8 -115 rrcurveto
            -55 -4 33 -39 57 hhcurveto
            49 34 29 42 1 hvcurveto
            1 28 -13 32 -43 12 rrcurveto
            66 51 75 27 68 hhcurveto
            67 71 -26 -136 -12 hvcurveto
            -8 -84 -26 -62 -156 -82 rrcurveto
            return
          </CharString>
          <CharString index="79">
            159 8 4 72 155 hhcurveto
            418 194 -230 -352 -394 -250 -306 -371 return
          </CharString>
          <CharString index="80">
            -6 rlinecurve
            -4 -68 rlineto
            return
          </CharString>
          <CharString index="81">
            -97 -23 78 916 76 hstem
            80 180 535 180 vstem
            return
          </CharString>
          <CharString index="82">
            rmoveto
            -39 callsubr
            return
          </CharString>
          <CharString index="83">
            rmoveto
            -116 -113 -92 -142 4 hvcurveto
            -149 6 109 -62 115 hhcurveto
            114 115 88 148 -4 hvcurveto
            147 -6 -113 62 -111 hhcurveto
            -8 -60 rmoveto
            70 5 59 -54 -129 vvcurveto
            -84 -53 -59 -55 -2 vhcurveto
            -76 -2 -53 71 101 vvcurveto
            86 45 63 63 4 vhcurveto
            return
          </CharString>
          <CharString index="84">
            -156 141 -408 -10 hvcurveto
            -175 -83 rmoveto
            4 65 64 2 82 hhcurveto
            186 162 -80 return
          </CharString>
          <CharString index="85">
            -51 -3 -56 rlinecurve
            return
          </CharString>
          <CharString index="86">
            7 143 7 80 141 4 149 4 rcurveline
            154 4 127 -49 -12 -242 rrcurveto
            return
          </CharString>
          <CharString index="87">
            0 54 callgsubr
            -68 68 return
          </CharString>
          <CharString index="88">
            52 51 53 69 2 hvcurveto
            return
          </CharString>
          <CharString index="89">
            hhcurveto
            -14 -16 5 6 -10 hvcurveto
            70 8 -40 41 -55 hhcurveto
            -59 -29 -49 -46 -83 86 -28 69 return
          </CharString>
          <CharString index="90">
            67 1114 175 2 211 2 45 -119 -8 -242 rlinecurve
            return
          </CharString>
          <CharString index="91">
            5 11 -15 hvcurveto
            55 -30 38 -50 1 vhcurveto
            -61 2 -22 -55 -31 vvcurveto
            -69 55 -37 105 return
          </CharString>
          <CharString index="92">
            -42 -23 90 -90 103 893 74 return
          </CharString>
          <CharString index="93">
            -53 -85 -31 -18 -51 19 14 15 6 12 1 24 3 43 -28 47 -65 -2 -63 -2 -43 -46 -3 -66 rrcurveto
            -95 -5 81 -29 85 hhcurveto
            143 76 113 226 105 hvcurveto
            373 801 78 168 35 83 153 9 rlinecurve
            endchar
          </CharString>
          <CharString index="94">
            84 193 96 return
          </CharString>
          <CharString index="95">
            1839 rmoveto
            -72 -45 -59 -49 -74 hhcurveto
            -110 -47 140 -5 -162 hvcurveto
            return
          </CharString>
          <CharString index="96">
            96 3 callgsubr
            5 callsubr
            hintmask 00000000
            hintmask 10101010
            return
          </CharString>
          <CharString index="97">
            -22 callsubr
            -47 -885 return
          </CharString>
          <CharString index="98">
            hstemhm
            212 172 -156 172 return
          </CharString>
          <CharString index="99">
            hstemhm
            61 172 -122 160 329 168 -161 85 callgsubr
            return
          </CharString>
          <CharString index="100">
            -111 -555 103 1328 171 -133 133 return
          </CharString>
          <CharString index="101" raw="1">
            13b093f7 260b  
          </CharString>
          <CharString index="102">
            -224 -119 -280 -115 -201 vhcurveto
            return
          </CharString>
          <CharString index="103">
            -68 -55 34 56 -4 hvcurveto
            16 17 4 20 17 vvcurveto
            32 -21 30 -38 -51 -21 -50 -40 vhcurveto
            1 -98 87 -80 146 -4 186 -4 114 106 7 138 5 110 -66 98 -144 11 rrcurveto
            return
          </CharString>
          <CharString index="104">
            86 -2 callgsubr
            return
          </CharString>
          <CharString index="105">
            -86 -2 -103 -77 -53 -119 58 -35 rcurveline
            76 51 57 41 59 hhcurveto
            return
          </CharString>
          <CharString index="106">
            1280 rmoveto
            59 41 62 33 47 96 49 -108 127 hhcurveto
            return
          </CharString>
          <CharString index="107">
            86 callgsubr
            -91 148 9 return
          </CharString>
          <CharString index="108">
            -142 51 -124 164 112 136 78 373 135 vhcurveto
            7 hlineto
            -25 -102 -10 -37 -78 vvcurveto
            -100 54 -134 164 113 134 84 373 129 vhcurveto
            6 hlineto
            return
          </CharString>
          <CharString index="109">
            -217 -163 115 252 -2 hvcurveto
            return
          </CharString>
          <CharString index="110">
            155 24 -7 151 -154 hhcurveto
            -163 -90 -193 -96 -23 50 callgsubr
            47 65 53 45 hhcurveto
            47 7 -43 -49 -2 hvcurveto
            -2 -34 -8 -76 -72 -442 rrcurveto
            return
          </CharString>
          <CharString index="111">
            10 188 -112 195 -254 -5 rrcurveto
            1047 -86 rmoveto
            -91 86 -1219 -1422 80 -78 rlineto
            181 1424 rmoveto
            153 35 -201 -137 -8 hvcurveto
            return
          </CharString>
          <CharString index="112">
            23 callgsubr
            370 170 -107 168 return
          </CharString>
          <CharString index="113">
            -199 -23 147 -73 142 656 133 -74 139 return
          </CharString>
          <CharString index="114">
            115 62 -135 141 hhcurveto
            90 94 40 168 66 hvcurveto
            return
          </CharString>
          <CharString index="115">
            4 74 rlinecurve
            return
          </CharString>
          <CharString index="116">
            8 359 rlineto
            return
          </CharString>
          <CharString index="117">
            127 -35 71 -129 -164 -86 -192 -96 -18 vhcurveto
            57 -13 rlineto
            146 41 66 53 45 hhcurveto
            49 6 -45 -51 hvcurveto
            -117 -68 -262 -227 vvcurveto
            return
          </CharString>
          <CharString index="118">
            -93 callgsubr
            -6 callgsubr
            return
          </CharString>
          <CharString index="119">
            131 -73 6 92 188 hhcurveto
            4 68 rlineto
            -520 hlineto
            return
          </CharString>
          <CharString index="120">
            2 8 1 8 14 vvcurveto
            47 -44 34 -44 -56 -38 -48 -51 -60 56 -50 77 return
          </CharString>
          <CharString index="121">
            104 174 76 82 135 8 rrcurveto
            endchar
          </CharString>
          <CharString index="122">
            142 -61 124 -164 -133 -131 -84 -373 -139 vhcurveto
            return
          </CharString>
          <CharString index="123">
            rmoveto
            -211 -143 -127 -150 hvcurveto
            return
          </CharString>
          <CharString index="124">
            50 25 callsubr
            return
          </CharString>
          <CharString index="125">
            196 1036 196 return
          </CharString>
          <CharString index="126">
            -269 -59 -141 -250 -129 hhcurveto
            -107 -37 143 186 return
          </CharString>
          <CharString index="127">
            rmoveto
            8 123 rlineto
            hintmask 10100000
            -934 -405 -6 -134 889 -397 8 127 -759 342 rlineto
            2 vlineto
            return
          </CharString>
          <CharString index="128">
            306 1102 rmoveto
            -2 -55 rlineto
            2 20 17 0 22 hhcurveto
            142 30 -115 -67 -4 hvcurveto
            -84 -4 -65 -90 -107 hhcurveto
            return
          </CharString>
          <CharString index="129">
            8 146 -12 100 154 6 return
          </CharString>
          <CharString index="130">
            -4 -91 161 7 -30 -35 -42 -103 -31 -81 rlinecurve
            -46 -115 -120 -273 -107 -230 -277 630 rcurveline
            return
          </CharString>
          <CharString index="131">
            -195 -79 -127 -62 -107 hhcurveto
            -145 -105 108 287 return
          </CharString>
          <CharString index="132">
            -23 97 -97 105 862 103 -23 -20 return
          </CharString>
          <CharString index="133">
            -419 -23 105 857 85 -80 79 hstemhm
            174 166 return
          </CharString>
          <CharString index="134">
            48 callgsubr
            69 3 -38 54 -56 hhcurveto
            return
          </CharString>
          <CharString index="135">
            -78 hlineto
            -185 -53 -94 -104 -168 hhcurveto
            return
          </CharString>
          <CharString index="136">
            -53 -45 hhcurveto
            -49 -6 45 51 hvcurveto
            117 return
          </CharString>
          <CharString index="137">
            140 280 237 -156 141 return
          </CharString>
          <CharString index="138">
            9 -7 -41 -5 -51 -3 -93 callsubr
            return
          </CharString>
          <CharString index="139">
            1546 -25 callsubr
            return
          </CharString>
          <CharString index="140">
            -23 102 1334 78 55 -20 return
          </CharString>
          <CharString index="141">
            149 0 86 1259 88 -2 callgsubr
            43 1327 -1200 229 hintmask 00000000
            return
          </CharString>
          <CharString index="142">
            140 20 274 66 12 166 rrcurveto
            78 7 -41 67 -105 hhcurveto
            -33 -65 -12 -25 -41 hvcurveto
            return
          </CharString>
          <CharString index="143">
            237 179 -145 -256 4 hvcurveto
            73 hlineto
            return
          </CharString>
          <CharString index="144">
            456 -315 212 -475 -2 return
          </CharString>
          <CharString index="145" raw="1">
            05850a0b   
          </CharString>
          <CharString index="146">
            -8 -37 -320 hvcurveto
            return
          </CharString>
          <CharString index="147">
            1434 rmoveto
            return
          </CharString>
          <CharString index="148">
            -99 -23 116 346 59 453 96 366 78 55 -20 hstem
            123 166 return
          </CharString>
          <CharString index="149">
            50 715 290 4 6 80 rlineto
            -290 hlineto
            2 25 28 411 154 return
          </CharString>
          <CharString index="150">
            1765 rmoveto
            -28 -61 -37 -50 -37 -24 rrcurveto
            return
          </CharString>
          <CharString index="151">
            82 callsubr
            hstemhm
            return
          </CharString>
          <CharString index="152">
            1455 rmoveto
            -24 -41 -27 -46 -31 -25 rrcurveto
            return
          </CharString>
          <CharString index="153">
            vvcurveto
            22 0 13 -2 18 vhcurveto
            return
          </CharString>
          <CharString index="154">
            -127 -6 -54 -162 -149 hhcurveto
            -162 -30 205 131 9 hvcurveto
            return
          </CharString>
          <CharString index="155">
            -180 -3 -83 -99 -132 hhcurveto
            return
          </CharString>
          <CharString index="156">
            -77 callgsubr
            6 35 return
          </CharString>
          <CharString index="157">
            6 rrcurveto
            hintmask 11010000
            return
          </CharString>
          <CharString index="158">
            407 0 128 1257 82 hstemhm
            119 192 -188 61 return
          </CharString>
          <CharString index="159">
            25 469 rlineto
            -113 hlineto
            4 -98 rlineto
            return
          </CharString>
          <CharString index="160">
            hintmask 00000000
            hintmask 11101000
            return
          </CharString>
          <CharString index="161">
            150 9 -7 return
          </CharString>
          <CharString index="162">
            0 86 684 104 482 78 -75 75 hstemhm
            80 callgsubr
            return
          </CharString>
          <CharString index="163">
            -25 callsubr
            146 8 -6 -28 return
          </CharString>
          <CharString index="164">
            rmoveto
            50 82 64 39 112 164 29 -141 205 hhcurveto
            return
          </CharString>
          <CharString index="165">
            -17 -152 -14 -114 -21 -95 rrcurveto
            return
          </CharString>
          <CharString index="166">
            67 79 callsubr
            return
          </CharString>
          <CharString index="167">
            1556 -20 hstem
            return
          </CharString>
          <CharString index="168">
            -127 37 -71 129 164 78 192 96 18 vhcurveto
            return
          </CharString>
          <CharString index="169">
            -79 callgsubr
            47 return
          </CharString>
          <CharString index="170">
            134 6 rrcurveto
            return
          </CharString>
          <CharString index="171">
            7 -100 -154 -27 callsubr
            461 hlineto
            5 return
          </CharString>
          <CharString index="172">
            629 rmoveto
            -72 55 -1026 -1453 63 -47 rlineto
            return
          </CharString>
          <CharString index="173">
            hintmask 00000000
            hintmask 11011000
            return
          </CharString>
          <CharString index="174">
            -6 -93 152 66 callgsubr
            return
          </CharString>
          <CharString index="175">
            hintmask 00000000
            hintmask 10110000
            return
          </CharString>
          <CharString index="176">
            -215 -11 -147 -104 return
          </CharString>
          <CharString index="177">
            116 19 116 hstemhm
            return
          </CharString>
          <CharString index="178">
            926 68 hstemhm
            61 172 -122 160 return
          </CharString>
          <CharString index="179">
            -49 -12 -242 rrcurveto
            59 callsubr
            return
          </CharString>
          <CharString index="180">
            -27 -180 hhcurveto
            -9 -82 144 8 -6 -35 return
          </CharString>
          <CharString index="181">
            80 351 rlineto
            -135 hlineto
            -83 -351 rlineto
            return
          </CharString>
          <CharString index="182">
            hlineto
            -2 1 6 35 4 53 8 callsubr
            47 return
          </CharString>
          <CharString index="183">
            -11 callgsubr
            hintmask 00000000
            return
          </CharString>
          <CharString index="184">
            1075 rmoveto
            9 callsubr
            return
          </CharString>
          <CharString index="185">
            40 callsubr
            -418 hlineto
            return
          </CharString>
          <CharString index="186">
            hlineto
            9 callsubr
            return
          </CharString>
          <CharString index="187">
            113 188 return
          </CharString>
          <CharString index="188">
            347 0 78 1269 88 -76 76 return
          </CharString>
          <CharString index="189">
            397 0 68 1279 86 -68 68 return
          </CharString>
          <CharString index="190">
            0 callgsubr
            endchar
          </CharString>
          <CharString index="191">
            hintmask 00000000
            hintmask 10111000
            return
          </CharString>
          <CharString index="192">
            144 6 rrcurveto
            endchar
          </CharString>
          <CharString index="193">
            943 190 return
          </CharString>
        <CharString name=".notdef">
          -133 0 75 874 75 hstem
          60 901 vstem
          961 19 callgsubr
        </CharString>
        <CharString name=".null">
          -1164 endchar
        </CharString>
        <CharString name="A">
          -4 callgsubr
          hstem
          86 callsubr
          vstem
          699 1473 -107 callgsubr
        </CharString>
        <CharString name="AE">
          792 0 68 -68 79 368 82 180 74 563 86 -74 74 hstemhm
          933 175 640 72 -37 69 hintmask 0000000000000000
          hintmask 0111011100000000
          1817 77 callsubr
          -1016 hlineto
          hintmask 1011101100000000
          -4 -91 184 9 rlineto
          -1 -1 -1 0 vhcurveto
          -796 -1094 rlineto
          -82 -59 -72 -106 -106 hhcurveto
          -4 -68 rlineto
          381 -33 callsubr
          -158 -9 rlineto
          2 vlineto
          260 359 500 11 -10 -187 rlineto
          hintmask 0111011010000000
          -6 -125 -23 -65 -123 -2 -4 -74 rcurveline
          1049 hlineto
          32 399 rlineto
          -69 hlineto
          -13 -241 -116 -85 -178 3 -396 6 rcurveline
          6 35 5 51 4 74 25 464 rcurveline
          2 48 51 2 51 hhcurveto
          173 69 1 -181 -8 hvcurveto
          68 hlineto
          22 447 rlineto
          -67 hlineto
          -180 -8 -72 -13 -172 hhcurveto
          -151 hlineto
          18 330 9 166 5 74 154 4 rlinecurve
          176 4 rlineto
          hintmask 0111011100000000
          153 4 121 -49 -12 -242 rrcurveto
          -776 117 rmoveto
          2 hlineto
          -33 -662 rlineto
          -441 hlineto
          endchar
        </CharString>
        <CharString name="Aacute">
          -4 callgsubr
          hstem
          86 callsubr
          vstem
          821 1751 -68 callsubr
          43 -58 rlineto
          177 -87 -107 callgsubr
        </CharString>
        <CharString name="Abreve">
          -4 callgsubr
          1105 111 hstem
          86 callsubr
          vstem
          907 1895 -59 callgsubr
          -255 -400 -107 callgsubr
        </CharString>
        <CharString name="Acircumflex">
          -4 callgsubr
          hstem
          86 callsubr
          vstem
          748 -47 callsubr
          -419 -143 -107 callgsubr
        </CharString>
        <CharString name="Acute">
          -572 60 callsubr
          92 407 vstem
          434 1747 -68 callsubr
          43 -58 rlineto
          endchar
        </CharString>
        <CharString name="Adieresis">
          -4 callgsubr
          hstem
          678 130 135 190 vstem
          678 -53 callsubr
          -310 -242 -107 callgsubr
        </CharString>
        <CharString name="Agrave">
          -4 callgsubr
          hstem
          86 callsubr
          vstem
          846 -62 callsubr
          152 -274 -107 callgsubr
        </CharString>
        <CharString name="Amacron">
          -4 callgsubr
          1185 111 hstem
          86 callsubr
          vstem
          946 1719 -53 callgsubr
          296 -238 -107 callgsubr
        </CharString>
        <CharString name="Aogonek">
          128 -571 98 473 68 -68 86 362 82 hstemhm
          703 129 111 190 hintmask 00000000
          hintmask 10111100
          1262 hmoveto
          4 90 -133 -8 6 61 -30 107 -19 57 rlinecurve
          -391 1166 rlineto
          -46 hlineto
          -462 -1149 -62 -153 -53 -101 -102 -2 rlinecurve
          -3 -9 callgsubr
          -153 -8 24 45 14 31 25 65 rlinecurve
          25 64 27 71 31 84 524 12 rcurveline
          59 -192 rlineto
          hintmask 11011100
          23 -76 24 -114 -154 -4 -2 -68 rcurveline
          173 hlineto
          -154 -82 -125 -128 -8 -152 rrcurveto
          -84 callsubr
          hvcurveto
          hintmask 10111100
          138 131 127 150 65 vhcurveto
          -738 530 rmoveto
          42 113 52 138 70 177 85 230 rcurveline
          4 hlineto
          77 -223 72 -221 67 -214 rrcurveto
          endchar
        </CharString>
        <CharString name="Aring">
          -4 callgsubr
          993 62 323 60 hstemhm
          502 109 237 109 -14 190 hintmask 00000000
          hintmask 11111100
          727 1968 -24 callsubr
          -20 -435 rmoveto
          -46 hlineto
          -462 -1149 -62 -153 -53 -101 -102 -2 rlinecurve
          -3 -9 callgsubr
          -153 -8 24 45 14 31 25 65 rlinecurve
          25 64 27 71 31 84 524 12 rcurveline
          59 -192 rlineto
          hintmask 11111010
          23 -76 24 -114 -154 -4 -2 -68 rcurveline
          445 -33 callsubr
          -133 -8 6 61 -30 107 -19 57 rlinecurve
          -466 881 rmoveto
          4 hlineto
          77 -223 72 -221 67 -214 rrcurveto
          -469 hlineto
          42 113 52 138 70 177 rrcurveto
          endchar
        </CharString>
        <CharString name="Atilde">
          -4 callgsubr
          1072 70 callsubr
          86 callsubr
          53 callsubr
          1040 -12 callsubr
          hintmask 11111000
          -2 callsubr
          hintmask 11101000
          7 callsubr
          -395 -337 -107 callgsubr
        </CharString>
        <CharString name="B">
          -82 callgsubr
        </CharString>
        <CharString name="Breve">
          -564 1657 125 hstem
          82 600 vstem
          628 1892 rmoveto
          -56 -47 -101 -54 -104 hhcurveto
          -104 -95 54 56 -39 hvcurveto
          -56 -24 rlineto
          -137 53 107 -74 125 hhcurveto
          125 117 74 137 73 hvcurveto
          endchar
        </CharString>
        <CharString name="C">
          -3 callgsubr
          1292 303 -84 callgsubr
        </CharString>
        <CharString name="CR">
          -1164 endchar
        </CharString>
        <CharString name="Cacute">
          -3 callgsubr
          743 1617 -98 callsubr
          390 -1584 -84 callgsubr
        </CharString>
        <CharString name="Caron">
          -203 1528 358 hstem
          92 776 vstem
          467 1528 -90 callsubr
          endchar
        </CharString>
        <CharString name="Ccaron">
          241 -33 107 1270 111 -72 84 hstemhm
          102 193 952 96 hintmask 10111000
          886 1578 -90 callsubr
          781 -1568 rmoveto
          -151 -119 -188 -78 -176 hhcurveto
          -303 -232 264 387 21 hvcurveto
          401 20 246 257 291 hhcurveto
          237 154 -147 -256 14 hvcurveto
          74 hlineto
          hintmask 11011000
          25 475 rlineto
          -111 hlineto
          5 -111 rlineto
          -2 hlineto
          hintmask 10111000
          82 -121 -129 41 -154 hhcurveto
          -478 -243 -388 -385 -21 hvcurveto
          -407 -20 256 -320 411 hhcurveto
          166 240 56 237 188 hvcurveto
          endchar
        </CharString>
        <CharString name="Ccedilla">
          247 -33 107 1309 84 -12 -20 hstemhm
          104 193 483 168 301 96 hintmask 00000000
          hintmask 11011100
          547 -209 rmoveto
          82 callgsubr
          7 35 -25 83 callgsubr
          12 -68 rcurveline
          35 callsubr
          46 122 rlineto
          12 11 -1 12 hhcurveto
          166 240 56 237 188 hvcurveto
          -51 43 rlineto
          -151 -119 -188 -78 -176 hhcurveto
          -303 -232 264 387 21 hvcurveto
          401 20 246 257 291 hhcurveto
          237 154 -147 -256 14 hvcurveto
          74 hlineto
          hintmask 10111100
          25 475 rlineto
          -111 hlineto
          5 -111 rlineto
          hintmask 11011100
          84 -122 -129 39 -155 hhcurveto
          -478 -243 -388 -385 -21 hvcurveto
          -18 -357 195 -290 325 -66 rrcurveto
          endchar
        </CharString>
        <CharString name="Cedilla">
          -539 -514 530 hstem
          92 438 vstem
          104 -514 rmoveto
          35 callsubr
          65 170 rlineto
          -118 hlineto
          -70 -225 82 callgsubr
          6 35 -24 83 callgsubr
          rrcurveto
          endchar
        </CharString>
        <CharString name="Circumflex">
          -203 1559 346 hstem
          92 776 vstem
          498 -47 callsubr
          endchar
        </CharString>
        <CharString name="D">
          81 callsubr
          hstemhm
          1232 191 68 callsubr
          158 1436 rmoveto
          hintmask 11010000
          10 callgsubr
          hvcurveto
          hintmask 10110000
          37 callsubr
          vhcurveto
          -180 -307 rmoveto
          -28 callsubr
          -69 -60 -1 5 -90 hvcurveto
          -55 callgsubr
          rrcurveto
          endchar
        </CharString>
        <CharString name="Dcaron">
          81 callsubr
          hstem
          1232 191 vstem
          776 1578 -90 callsubr
          -243 -435 rmoveto
          10 callgsubr
          37 callsubr
          hvcurveto
          -180 -307 rmoveto
          -28 callsubr
          -69 -60 -1 5 -90 hvcurveto
          -55 callgsubr
          rrcurveto
          endchar
        </CharString>
        <CharString name="Dcroat">
          -73 callgsubr
        </CharString>
        <CharString name="Delta">
          266 0 112 1239 116 0 -20 hstemhm
          20 1317 68 callsubr
          1337 hmoveto
          -518 1467 rlineto
          -164 hlineto
          -635 -1467 rlineto
          167 112 rmoveto
          8 vlineto
          hintmask 11010000
          521 1231 rlineto
          2 hlineto
          417 -1237 rlineto
          -2 vlineto
          endchar
        </CharString>
        <CharString name="Dieresis">
          -443 1593 245 hstem
          295 130 vstem
          295 -53 callsubr
          endchar
        </CharString>
        <CharString name="E">
          -47 callgsubr
          hstemhm
          1061 72 63 callgsubr
          hintmask 10101100
          1129 1075 -106 callsubr
        </CharString>
        <CharString name="Eacute">
          -47 callgsubr
          hstemhm
          1061 72 63 callgsubr
          904 1751 -68 callsubr
          hintmask 10101100
          43 -58 rlineto
          524 -485 -106 callsubr
        </CharString>
        <CharString name="Ecaron">
          104 0 79 629 77 -74 73 563 86 hstemhm
          1061 72 -37 70 hintmask 11011000
          716 1578 -90 callsubr
          788 -796 rmoveto
          9 callsubr
          -977 hlineto
          -91 callsubr
          hintmask 11010100
          33 399 rlineto
          -70 hlineto
          -12 -243 -121 -72 -178 -2 -391 -6 rcurveline
          -55 callgsubr
          25 469 rcurveline
          hintmask 10111000
          -105 callgsubr
          endchar
        </CharString>
        <CharString name="Ecircumflex">
          -47 callgsubr
          hstemhm
          1061 72 63 callgsubr
          hintmask 10101100
          721 -47 callsubr
          38 -541 -106 callsubr
        </CharString>
        <CharString name="Edieresis">
          -86 callgsubr
        </CharString>
        <CharString name="Edotaccent">
          -47 callgsubr
          hstemhm
          652 215 194 72 63 callgsubr
          hintmask 10101110
          769 1876 -56 callgsubr
          360 -801 rmoveto
          9 callsubr
          -977 hlineto
          hintmask 11010101
          -91 callsubr
          33 399 rlineto
          -70 hlineto
          -12 -243 -121 -72 -178 -2 -391 -6 rcurveline
          -55 callgsubr
          25 469 rcurveline
          hintmask 10101110
          -105 callgsubr
          endchar
        </CharString>
        <CharString name="Egrave">
          -47 callgsubr
          hstemhm
          1061 72 63 callgsubr
          hintmask 10101100
          850 -62 callsubr
          578 -672 -106 callsubr
        </CharString>
        <CharString name="Emacron">
          -47 callgsubr
          281 111 hstemhm
          1061 72 63 callgsubr
          hintmask 10101110
          1029 1719 -53 callgsubr
          643 -636 rmoveto
          9 callsubr
          -977 hlineto
          hintmask 11010101
          -91 callsubr
          33 399 rlineto
          -70 hlineto
          -12 -243 -121 -72 -178 -2 -391 -6 rcurveline
          -55 callgsubr
          25 469 rcurveline
          hintmask 10101110
          -105 callgsubr
          endchar
        </CharString>
        <CharString name="Eogonek">
          104 -571 98 473 79 629 77 -74 73 575 74 hstemhm
          681 129 251 72 63 callgsubr
          1133 hmoveto
          33 399 rlineto
          -70 hlineto
          -12 -243 -121 -72 -178 -2 -391 -6 rcurveline
          -55 callgsubr
          25 469 rcurveline
          hintmask 11101101
          -105 callgsubr
          68 79 callsubr
          -977 hlineto
          hintmask 11011110
          -98 callgsubr
          884 hlineto
          -154 -82 -125 -128 -8 -152 rrcurveto
          -84 callsubr
          138 131 127 150 65 hvcurveto
          endchar
        </CharString>
        <CharString name="Eth">
          -73 callgsubr
        </CharString>
        <CharString name="Euro">
          384 -33 113 416 113 -111 108 189 113 -112 109 476 86 -14 -20 hstemhm
          258 180 hintmask 00000000
          117 908 rmoveto
          -34 -113 rlineto
          187 hlineto
          -10 -60 -4 -65 2 -61 rrcurveto
          -157 hlineto
          -35 -113 rlineto
          203 hlineto
          -308 50 214 -221 342 hhcurveto
          168 219 54 243 189 hvcurveto
          -54 45 rlineto
          -153 -118 -166 -76 -178 hhcurveto
          hintmask 11010101
          -240 -183 160 258 -56 hvcurveto
          495 hlineto
          61 108 rlineto
          -572 hlineto
          -5 61 3 68 7 61 rrcurveto
          662 hlineto
          61 109 rlineto
          -703 hlineto
          309 73 211 167 229 hhcurveto
          237 92 -147 -195 19 hvcurveto
          73 hlineto
          hintmask 10101101
          62 414 rlineto
          -111 hlineto
          -8 -101 rlineto
          -2 hlineto
          hintmask 10101011
          76 -111 -113 39 -147 hhcurveto
          -354 -235 -256 -303 -86 hvcurveto
          endchar
        </CharString>
        <CharString name="F">
          -56 0 86 592 76 593 86 -74 74 hstemhm
          1027 71 66 callsubr
          1094 77 callsubr
          -942 hlineto
          hintmask 11101000
          -58 callsubr
          23 428 rlineto
          4 53 53 2 53 hhcurveto
          146 59 -12 -168 -8 hvcurveto
          67 hlineto
          23 448 rlineto
          -68 hlineto
          -8 -168 -61 -22 -146 -2 rrcurveto
          -159 hlineto
          19 377 rlineto
          hintmask 11011000
          -21 callsubr
          endchar
        </CharString>
        <CharString name="G">
          37 callgsubr
          hstemhm
          102 193 881 156 -72 98 hintmask 00000000
          hintmask 11101100
          1325 74 -55 callsubr
          hintmask 11101010
          36 callsubr
          hintmask 11011010
          52 callsubr
          hintmask 11101100
          -36 callgsubr
          endchar
        </CharString>
        <CharString name="Gamma">
          -48 callsubr
        </CharString>
        <CharString name="Gbreve">
          37 callgsubr
          202 111 hstemhm
          102 193 881 156 -72 98 hintmask 00000000
          hintmask 11101110
          1128 1895 -59 callgsubr
          150 -1799 -55 callsubr
          hintmask 11101101
          36 callsubr
          hintmask 11011101
          52 callsubr
          hintmask 11101110
          -36 callgsubr
          endchar
        </CharString>
        <CharString name="Gcommaaccent">
          37 callgsubr
          hstemhm
          102 193 305 151 425 156 -72 98 hintmask 00000000
          hintmask 11101110
          1325 74 -55 callsubr
          hintmask 11101101
          36 callsubr
          hintmask 11011101
          52 callsubr
          hintmask 11101110
          -36 callgsubr
          -684 -221 -97 callgsubr
        </CharString>
        <CharString name="Grave">
          -572 1556 340 hstem
          93 407 vstem
          457 -62 callsubr
          endchar
        </CharString>
        <CharString name="H">
          -76 callgsubr
        </CharString>
        <CharString name="I">
          -482 -20 callsubr
          hstemhm
          84 529 39 callgsubr
          613 1434 -99 callsubr
          hintmask 10110000
          -38 callgsubr
          endchar
        </CharString>
        <CharString name="Iacute">
          -482 -20 callsubr
          hstemhm
          84 545 hintmask 00000000
          564 1751 -68 callsubr
          hintmask 11010000
          43 -58 rlineto
          348 -126 -99 callsubr
          hintmask 10110000
          -38 callgsubr
          endchar
        </CharString>
        <CharString name="Icircumflex">
          -484 -20 callsubr
          hstemhm
          29 737 39 callgsubr
          766 1616 rmoveto
          -350 289 rlineto
          -4 hlineto
          -383 -289 33 -51 330 176 rlineto
          4 hlineto
          333 -182 rlineto
          -116 -125 -99 callsubr
          hintmask 10110000
          -38 callgsubr
          endchar
        </CharString>
        <CharString name="Idieresis">
          -482 -20 callsubr
          hstemhm
          145 201 111 201 66 callsubr
          255 1838 rmoveto
          27 callsubr
          312 hmoveto
          27 callsubr
          46 -404 -99 callsubr
          hintmask 10111000
          -38 callgsubr
          endchar
        </CharString>
        <CharString name="Idotaccent">
          -482 0 54 callgsubr
          hstemhm
          312 215 hintmask 00000000
          429 1876 -56 callgsubr
          184 -442 -99 callsubr
          hintmask 11100000
          -38 callgsubr
          endchar
        </CharString>
        <CharString name="Igrave">
          -482 -20 callsubr
          hstemhm
          84 529 39 callgsubr
          463 -62 callsubr
          449 -313 -99 callsubr
          hintmask 10110000
          -38 callgsubr
          endchar
        </CharString>
        <CharString name="Imacron">
          -482 -20 callsubr
          281 111 hstemhm
          84 611 66 callsubr
          689 1719 -53 callgsubr
          467 -277 -99 callsubr
          hintmask 10111000
          -38 callgsubr
          endchar
        </CharString>
        <CharString name="Iogonek">
          -482 -582 98 484 54 callgsubr
          -68 68 hstemhm
          103 129 53 callsubr
          455 1134 rmoveto
          hintmask 11011000
          -38 callgsubr
          hintmask 11101000
          4 68 rlineto
          -453 hlineto
          -4 -91 148 -92 callsubr
          327 hlineto
          -163 -82 -137 -132 -8 -159 rrcurveto
          -84 callsubr
          146 146 133 159 61 hvcurveto
          4 54 -2 -1 2 38 -147 84 callgsubr
        </CharString>
        <CharString name="J">
          -49 callgsubr
        </CharString>
        <CharString name="K">
          6 callgsubr
          84 1272 hintmask 00000000
          hintmask 01110100
          1342 1434 -102 callgsubr
          endchar
        </CharString>
        <CharString name="Kcommaaccent">
          6 callgsubr
          523 151 hintmask 00000000
          hintmask 01110100
          1342 1434 -102 callgsubr
          -823 -1513 -97 callgsubr
        </CharString>
        <CharString name="L">
          30 callgsubr
          1055 70 39 callgsubr
          611 40 callsubr
          -78 callgsubr
          hintmask 10110000
          6 146 4 100 85 callsubr
        </CharString>
        <CharString name="Lacute">
          30 callgsubr
          1055 70 hintmask 00000000
          554 1751 -68 callsubr
          hintmask 11010000
          43 -58 rlineto
          356 -126 rmoveto
          -78 callgsubr
          hintmask 10110000
          6 146 4 100 85 callsubr
        </CharString>
        <CharString name="Lcaron">
          18 0 79 969 -20 319 86 -68 68 27 -20 hstem
          858 145 52 70 vstem
          839 1461 -50 callgsubr
          -369 hmoveto
          -78 callgsubr
          6 146 4 100 85 callsubr
        </CharString>
        <CharString name="Lcommaaccent">
          30 callgsubr
          431 151 473 70 66 callsubr
          611 40 callsubr
          -78 callgsubr
          hintmask 10111000
          6 146 4 100 144 6 rrcurveto
          -184 -1513 -97 callgsubr
        </CharString>
        <CharString name="Lslash">
          30 callgsubr
          249 171 636 70 66 callsubr
          613 40 callsubr
          -453 -91 hlineto
          146 9 -9 -41 -3 -22 callsubr
          -28 -501 -166 -121 -7 -115 167 123 -15 -271 -8 -145 8 -33 callgsubr
          -5 -68 rlineto
          1008 hlineto
          35 424 rlineto
          -70 hlineto
          -12 -243 -96 -96 -172 -3 -383 -6 rcurveline
          -55 callgsubr
          26 484 rcurveline
          209 154 7 111 -210 -154 15 283 rlineto
          hintmask 10111000
          6 146 4 100 85 callsubr
        </CharString>
        <CharString name="M">
          -85 callsubr
        </CharString>
        <CharString name="N">
          44 callsubr
          92 1430 39 callgsubr
          1522 1434 -99 callgsubr
          rlineto
          hintmask 10110000
          22 callsubr
          rrcurveto
          endchar
        </CharString>
        <CharString name="NULL">
          -1164 endchar
        </CharString>
        <CharString name="Nacute">
          44 callsubr
          92 1430 39 callgsubr
          693 1617 -98 callsubr
          670 -453 -99 callgsubr
          rlineto
          hintmask 10110000
          22 callsubr
          rrcurveto
          endchar
        </CharString>
        <CharString name="Ncaron">
          82 callsubr
          hstem
          92 1430 vstem
          856 1578 -90 callsubr
          1041 -437 -99 callgsubr
          22 callsubr
          rlinecurve
          endchar
        </CharString>
        <CharString name="Ncommaaccent">
          44 callsubr
          621 151 39 callgsubr
          1522 1434 -99 callgsubr
          rlineto
          hintmask 10110000
          22 callsubr
          rrcurveto
          -905 -1513 -97 callgsubr
        </CharString>
        <CharString name="Ntilde">
          82 callsubr
          168 70 callsubr
          92 1430 hintmask 00000000
          hintmask 11010100
          1138 -12 callsubr
          hintmask 11011100
          -2 callsubr
          hintmask 11010100
          7 callsubr
          330 -376 -99 callgsubr
          rlineto
          hintmask 10110100
          22 callsubr
          rrcurveto
          endchar
        </CharString>
        <CharString name="O">
          -34 callsubr
          846 1467 -104 callgsubr
        </CharString>
        <CharString name="OE">
          909 -33 97 -64 82 629 73 576 74 -53 86 hstemhm
          101 191 1575 71 63 callgsubr
          1938 hmoveto
          33 399 rlineto
          -70 hlineto
          -12 -243 -119 -86 -178 6 -393 12 rcurveline
          6 35 6 51 2 74 25 454 rcurveline
          7 45 59 2 47 hhcurveto
          172 70 0 -181 -8 hvcurveto
          68 hlineto
          22 447 rlineto
          -68 hlineto
          -180 -8 -71 -13 -172 hhcurveto
          -152 hlineto
          18 330 9 166 6 74 153 4 rlinecurve
          176 4 rlineto
          hintmask 01110101
          154 4 121 72 callsubr
          -833 hlineto
          hintmask 01110110
          -88 16 -98 19 -80 -2 -480 -12 -242 -396 -20 -385 rrcurveto
          -408 -21 253 -299 417 hhcurveto
          hintmask 10101110
          80 95 10 23 108 hvcurveto
          hintmask 01110110
          5 96 rmoveto
          -22 -84 -63 -10 -75 hhcurveto
          -352 -189 253 388 17 hvcurveto
          421 18 250 255 291 hhcurveto
          79 97 -17 -31 76 hvcurveto
          endchar
        </CharString>
        <CharString name="Oacute">
          -34 callsubr
          1016 1751 -68 callsubr
          43 -58 rlineto
          129 -93 -104 callgsubr
        </CharString>
        <CharString name="Ocircumflex">
          -34 callsubr
          881 -47 callsubr
          -405 -149 -104 callgsubr
        </CharString>
        <CharString name="Odieresis">
          450 -33 84 1334 82 hstem
          100 196 508 130 398 196 vstem
          804 -53 callsubr
          -289 -248 -104 callgsubr
        </CharString>
        <CharString name="Ograve">
          -34 callsubr
          969 -62 callsubr
          176 -280 -104 callgsubr
        </CharString>
        <CharString name="Ohungarumlaut">
          -34 callsubr
          536 1633 -49 callsubr
          -25 callgsubr
          -202 -418 -104 callgsubr
        </CharString>
        <CharString name="Omacron">
          450 -33 84 1334 82 248 111 hstem
          100 18 callsubr
          vstem
          1141 1719 -53 callgsubr
          248 -244 -104 callgsubr
        </CharString>
        <CharString name="Omega">
          51 callsubr
          388 89 602 197 hintmask 00000000
          hintmask 11101100
          862 hmoveto
          -23 callgsubr
          -2 vlineto
          -144 2 rlineto
          hintmask 11011100
          43 callgsubr
          hintmask 11101100
          4 callgsubr
          rrcurveto
          endchar
        </CharString>
        <CharString name="Oslash">
          448 -33 84 1334 82 79 -20 hstem
          98 18 callsubr
          vstem
          1397 1477 rmoveto
          -103 69 -103 -163 rlineto
          53 -94 -115 31 -138 hhcurveto
          -455 -291 -375 -422 -215 84 -232 191 -136 hvcurveto
          -119 -189 90 -56 122 190 rlineto
          -41 88 104 -24 122 hhcurveto
          502 244 441 348 200 -73 216 -162 141 hvcurveto
          -840 -1103 rmoveto
          -114 138 -46 202 3 165 rrcurveto
          315 4 193 355 342 hhcurveto
          116 96 -43 -70 76 hvcurveto
          82 -96 rmoveto
          84 -126 43 -166 -161 vvcurveto
          -313 -187 -359 -353 -104 -86 31 51 -69 vhcurveto
          endchar
        </CharString>
        <CharString name="Otilde">
          450 -33 84 1334 82 135 70 callsubr
          100 18 callsubr
          hintmask 00000000
          hintmask 11101100
          1212 -12 callsubr
          hintmask 11111100
          -2 callsubr
          hintmask 11101100
          7 callsubr
          -420 -343 -104 callgsubr
        </CharString>
        <CharString name="P">
          -65 callgsubr
        </CharString>
        <CharString name="Pi">
          -67 callgsubr
        </CharString>
        <CharString name="Q">
          450 -446 67 346 84 -68 -20 1422 82 hstemhm
          100 18 callsubr
          hintmask 00000000
          hintmask 11011100
          1597 -446 rmoveto
          67 -12 vlineto
          -68 -57 57 177 -190 hvcurveto
          hintmask 10111100
          121 -131 -76 7 -115 hhcurveto
          2 vlineto
          390 84 190 380 307 vvcurveto
          333 -201 378 -481 -455 -291 -375 -422 vhcurveto
          hintmask 11011100
          -332 201 -371 481 162 50 -115 -184 204 vhcurveto
          -114 127 59 0 148 hhcurveto
          -697 1831 rmoveto
          326 171 -341 -321 -313 -187 -359 -353 -366 -134 385 279 4 hvcurveto
          315 4 193 355 342 hhcurveto
          endchar
        </CharString>
        <CharString name="R">
          28 callgsubr
          hstemhm
          959 190 hintmask 00000000
          154 1343 -96 callgsubr
          rrcurveto
          hintmask 11110000
          -76 callsubr
          endchar
        </CharString>
        <CharString name="Racute">
          28 callgsubr
          -78 78 hstemhm
          959 190 66 callsubr
          526 1617 -98 callsubr
          hintmask 11101000
          -531 -544 -96 callgsubr
          rrcurveto
          hintmask 11011000
          -76 callsubr
          endchar
        </CharString>
        <CharString name="Rcaron">
          28 callgsubr
          -78 78 hstem
          959 190 vstem
          696 1578 -90 callsubr
          -167 -528 -96 callgsubr
          -76 callsubr
          endchar
        </CharString>
        <CharString name="Rcommaaccent">
          28 callgsubr
          hstemhm
          505 151 303 190 hintmask 00000000
          154 1343 -96 callgsubr
          rrcurveto
          hintmask 11111000
          -76 callsubr
          64 -867 -97 callgsubr
        </CharString>
        <CharString name="Ring">
          -521 1468 62 323 60 hstem
          94 109 237 109 vstem
          319 1913 -24 callsubr
          endchar
        </CharString>
        <CharString name="S">
          -8 callgsubr
          107 420 -89 callsubr
        </CharString>
        <CharString name="Sacute">
          -8 callgsubr
          513 1617 -98 callsubr
          -565 -1467 -89 callsubr
        </CharString>
        <CharString name="Scaron">
          2 callgsubr
          683 172 hintmask 11011000
          626 1578 -90 callsubr
          -144 -1451 rmoveto
          -11 -436 rlineto
          107 hlineto
          -6 71 rlineto
          -69 103 150 -19 105 hhcurveto
          305 185 160 227 10 hvcurveto
          -39 callgsubr
          240 104 -188 -197 2 hvcurveto
          74 hlineto
          hintmask 10111000
          22 449 rlineto
          -104 hlineto
          3 -87 rlineto
          hintmask 11011000
          -75 callsubr
          22 callgsubr
        </CharString>
        <CharString name="Scedilla">
          -5 -209 90 88 84 1332 82 -18 -20 hstemhm
          101 98 -52 163 363 152 57 172 -119 85 hintmask 0000000000000000
          1010 1000 rmoveto
          22 449 rlineto
          -104 hlineto
          3 -87 rlineto
          hintmask 1101101010000000
          -75 callsubr
          hintmask 1110011100000000
          2 callsubr
          -80 hlineto
          -11 -436 rlineto
          107 hlineto
          -6 71 85 -57 118 -23 98 -6 rlinecurve
          -57 -174 69 -35 rlineto
          -81 callsubr
          45 126 279 14 168 156 10 216 rlinecurve
          hintmask 1110101100000000
          -39 callgsubr
          hintmask 1110011100000000
          240 104 -188 -197 2 hvcurveto
          endchar
        </CharString>
        <CharString name="Scommaaccent">
          2 callgsubr
          -52 163 153 151 268 172 -119 85 hintmask 00000000
          hintmask 11010110
          107 420 rmoveto
          -11 -436 rlineto
          107 hlineto
          -6 71 rlineto
          -69 103 150 -19 105 hhcurveto
          305 185 160 227 10 hvcurveto
          hintmask 11001110
          -39 callgsubr
          hintmask 11010101
          240 104 -188 -197 2 hvcurveto
          74 hlineto
          hintmask 10110101
          22 449 rlineto
          -104 hlineto
          3 -87 rlineto
          hintmask 11001110
          -75 callsubr
          hintmask 11010110
          2 callsubr
          269 -567 -97 callgsubr
        </CharString>
        <CharString name="T">
          29 callgsubr
          hstemhm
          80 callgsubr
          66 callsubr
          1285 1001 rmoveto
          -92 callgsubr
          hintmask 10111000
          -17 callsubr
          endchar
        </CharString>
        <CharString name="Tcaron">
          29 callgsubr
          hstem
          80 callgsubr
          vstem
          726 1578 -90 callsubr
          934 -870 rmoveto
          -92 callgsubr
          -17 callsubr
          endchar
        </CharString>
        <CharString name="Thorn">
          18 0 86 240 80 698 80 163 -3 callsubr
          953 192 hintmask 00000000
          hintmask 11110100
          613 40 callsubr
          -453 hlineto
          -4 -91 148 9 -7 -41 -5 -51 -3 -94 callgsubr
          7 35 3 28 3 74 rlinecurve
          5 107 rlineto
          33 hlineto
          561 139 284 193 237 -186 144 -395 -34 -37 -1 -1 -36 hvcurveto
          hintmask 11101100
          7 115 18 63 127 6 rrcurveto
          -156 -264 rmoveto
          2 46 38 0 10 hhcurveto
          250 170 -98 -238 -14 hvcurveto
          -13 -219 -174 -141 -258 -2 rrcurveto
          -35 -27 -2 2 -30 hvcurveto
          endchar
        </CharString>
        <CharString name="Tilde">
          1602 70 callsubr
          92 793 hintmask 00000000
          hintmask 10100000
          831 -12 callsubr
          hintmask 11100000
          -2 callsubr
          hintmask 10100000
          7 callsubr
          endchar
        </CharString>
        <CharString name="U">
          -43 callsubr
          39 callgsubr
          1522 1434 -100 callgsubr
        </CharString>
        <CharString name="Uacute">
          -43 callsubr
          hintmask 00000000
          996 1751 -68 callsubr
          hintmask 11010000
          43 -58 rlineto
          825 -126 -100 callgsubr
        </CharString>
        <CharString name="Ucircumflex">
          -43 callsubr
          39 callgsubr
          893 -47 callsubr
          259 -182 -100 callgsubr
        </CharString>
        <CharString name="Udieresis">
          -43 callsubr
          419 130 hintmask 00000000
          820 -21 callgsubr
          hintmask 11010100
          -46 callsubr
          371 -281 rmoveto
          -383 hlineto
          -4 -91 147 9 -6 -41 -4 -51 -4 -56 rlinecurve
          -37 -577 rlineto
          -320 -22 -134 -223 -294 hhcurveto
          -367 -43 297 305 16 hvcurveto
          hintmask 10101100
          27 518 rlineto
          56 4 8 106 140 hhcurveto
          hintmask 11001100
          4 68 rlineto
          -455 hlineto
          -4 -88 147 6 -8 -54 -4 -41 -4 -71 rlinecurve
          -27 -490 rlineto
          hintmask 10110100
          -506 -26 123 -223 438 hhcurveto
          409 156 314 356 21 hvcurveto
          28 477 8 146 -8 100 156 6 rlinecurve
          endchar
        </CharString>
        <CharString name="Ugrave">
          -43 callsubr
          39 callgsubr
          899 -62 callsubr
          922 -313 -100 callgsubr
        </CharString>
        <CharString name="Uhungarumlaut">
          -43 callsubr
          39 callgsubr
          516 1633 -49 callsubr
          -25 callgsubr
          494 -451 -100 callgsubr
        </CharString>
        <CharString name="Umacron">
          73 callgsubr
          281 111 -9 callsubr
          66 callsubr
          1121 1719 -53 callgsubr
          944 -277 rmoveto
          -383 hlineto
          -4 -91 147 9 -6 -41 -4 -51 -4 -56 rlinecurve
          -37 -577 rlineto
          -320 -22 -134 -223 -294 hhcurveto
          -367 -43 297 305 16 hvcurveto
          hintmask 10110100
          27 518 rlineto
          56 4 8 106 140 hhcurveto
          hintmask 11010100
          4 68 rlineto
          -455 hlineto
          -4 -88 147 6 -8 -54 -4 -41 -4 -71 rlinecurve
          -27 -490 rlineto
          hintmask 10111000
          -506 -26 123 -223 438 hhcurveto
          409 156 314 356 21 hvcurveto
          28 477 8 146 -8 100 156 6 rlinecurve
          endchar
        </CharString>
        <CharString name="Uogonek">
          360 -571 98 440 117 1265 85 -68 68 -9 callsubr
          150 129 hintmask 00000000
          hintmask 11101010
          1522 40 callsubr
          -383 hlineto
          -4 -91 147 9 -6 -41 -4 -51 -4 -56 rlinecurve
          -37 -577 rlineto
          -320 -22 -134 -223 -294 hhcurveto
          -367 -43 297 305 16 hvcurveto
          hintmask 11010110
          27 518 rlineto
          56 4 8 106 140 hhcurveto
          hintmask 11100110
          4 68 rlineto
          -455 hlineto
          -4 -88 147 6 -8 -54 -4 -41 -4 -71 rlinecurve
          -27 -490 rlineto
          hintmask 11011010
          -506 -26 123 -223 438 hhcurveto
          33 1 -128 -82 -97 -115 -7 -133 rlinecurve
          -84 callsubr
          141 137 129 153 64 hvcurveto
          247 93 102 257 17 283 28 477 rcurveline
          8 146 -8 100 156 6 rrcurveto
          endchar
        </CharString>
        <CharString name="Uring">
          73 callgsubr
          123 58 276 58 -9 callsubr
          249 105 194 105 hintmask 0000000000000000
          hintmask 1101110110000000
          861 1949 -77 callsubr
          665 -457 rmoveto
          -383 hlineto
          -4 -91 147 9 -6 -41 -4 -51 -4 -56 rlinecurve
          -37 -577 rlineto
          -320 -22 -134 -223 -294 hhcurveto
          -367 -43 297 305 16 hvcurveto
          hintmask 1011101110000000
          27 518 rlineto
          56 4 8 106 140 hhcurveto
          hintmask 1101101110000000
          4 68 rlineto
          -455 hlineto
          -4 -88 147 6 -8 -54 -4 -41 -4 -71 rlinecurve
          -27 -490 rlineto
          hintmask 1011110110000000
          -506 -26 123 -223 438 hhcurveto
          409 156 314 356 21 hvcurveto
          28 477 8 146 -8 100 156 6 rlinecurve
          endchar
        </CharString>
        <CharString name="V">
          198 1345 88 -2 callgsubr
          47 1378 -1263 212 hintmask 00000000
          hintmask 10100000
          1425 40 callsubr
          -416 hlineto
          -4 -91 158 9 -18 -33 -21 -49 -29 -70 rlinecurve
          -49 -121 -73 -174 -140 -342 -49 -121 -33 -77 -36 -95 rrcurveto
          -5 hlineto
          -30 92 -56 150 -59 154 -63 174 -48 141 -57 162 rrcurveto
          hintmask 10010000
          -49 135 27 78 139 8 4 70 rcurveline
          -467 hlineto
          -4 -91 115 5 4 -62 16 -78 53 -139 rlinecurve
          402 -1092 rlineto
          53 hlineto
          461 1099 17 45 18 44 rrcurveto
          hintmask 01100000
          61 148 53 47 121 6 rrcurveto
          endchar
        </CharString>
        <CharString name="W">
          872 1346 87 -68 68 4 -20 hstemhm
          57 2044 -1928 216 hintmask 00000000
          1054 1438 rmoveto
          -41 -123 -123 -328 -147 -395 -21 -55 -51 -133 -33 -92 rrcurveto
          -4 hlineto
          -35 129 -32 102 -33 123 -43 165 -48 132 -39 180 rrcurveto
          hintmask 00110000
          -37 164 22 51 159 8 rrcurveto
          hintmask 01001000
          4 68 rlineto
          -491 hlineto
          -4 -91 116 5 7 -62 23 -73 41 -144 rlinecurve
          308 -1091 rlineto
          54 hlineto
          421 1109 rlineto
          7 hlineto
          20 -81 21 -80 41 -142 233 -806 rcurveline
          53 hlineto
          148 354 133 360 145 371 rrcurveto
          hintmask 10001000
          99 252 30 35 140 16 rrcurveto
          hintmask 01010000
          4 68 rlineto
          -416 hlineto
          -4 -91 164 7 -28 -47 -26 -58 -16 -45 rlinecurve
          -49 -127 -42 -103 -151 -409 -36 -96 -36 -94 -31 -78 rrcurveto
          -4 hlineto
          -33 129 -36 121 -33 123 rrcurveto
          hintmask 10010000
          -43 165 -127 426 -43 181 rrcurveto
          endchar
        </CharString>
        <CharString name="X">
          -83 callgsubr
        </CharString>
        <CharString name="Y">
          34 callsubr
          hintmask 10110000
          1370 1434 -66 callsubr
        </CharString>
        <CharString name="Yacute">
          34 callsubr
          897 1751 -68 callsubr
          hintmask 10110000
          43 -58 rlineto
          772 -126 -66 callsubr
        </CharString>
        <CharString name="Ydieresis">
          149 0 86 1259 88 -2 callgsubr
          170 229 286 130 hintmask 00000000
          685 -21 callgsubr
          hintmask 10101000
          -46 callsubr
          354 -281 rmoveto
          -418 hlineto
          hintmask 11001000
          -50 callsubr
          -63 119 -95 162 rrcurveto
          hintmask 10111000
          12 callsubr
          hintmask 11011000
          -4 -91 127 5 6 -52 27 -71 65 -109 rlinecurve
          324 -563 -12 -234 -7 -139 9 -106 -154 7 callgsubr
          6 53 2 74 rlinecurve
          -2 2 19 282 4 86 88 150 92 162 105 176 rrcurveto
          hintmask 10101000
          14 callsubr
        </CharString>
        <CharString name="Z">
          25 callgsubr
          868 70 vstem
          1182 1362 -87 callgsubr
        </CharString>
        <CharString name="Zacute">
          25 callgsubr
          868 70 vstem
          574 1617 -98 callsubr
          449 -525 -87 callgsubr
        </CharString>
        <CharString name="Zcaron">
          25 callgsubr
          868 70 vstem
          686 1578 -90 callsubr
          871 -509 -87 callgsubr
        </CharString>
        <CharString name="Zdotaccent">
          25 callgsubr
          414 215 239 70 vstem
          736 1876 -56 callgsubr
          446 -514 -87 callgsubr
        </CharString>
        <CharString name="a">
          -32 callgsubr
          742 436 -102 callsubr
        </CharString>
        <CharString name="aacute">
          -32 callgsubr
          496 1227 -98 callsubr
          87 -1061 -102 callsubr
        </CharString>
        <CharString name="abreve">
          -15 callsubr
          198 111 hstemhm
          76 172 457 153 hintmask 00000000
          hintmask 10111100
          879 1505 -59 callgsubr
          -184 -1047 rmoveto
          -21 -102 -16 -95 -77 vvcurveto
          hintmask 01111100
          -101 callsubr
          hintmask 10111100
          -103 callsubr
        </CharString>
        <CharString name="acircumflex">
          -32 callgsubr
          968 -54 callsubr
          -175 -770 -102 callsubr
        </CharString>
        <CharString name="acute">
          -672 1186 376 hstem
          92 306 vstem
          92 1227 -98 callsubr
          endchar
        </CharString>
        <CharString name="adieresis">
          -15 callsubr
          67 callgsubr
          76 172 156 188 113 153 -153 188 hintmask 00000000
          hintmask 10111110
          506 1485 rmoveto
          -100 callsubr
          hintmask 10111101
          301 hmoveto
          -100 callsubr
          hintmask 01111110
          -65 -1049 rmoveto
          -21 -102 -16 -95 -77 vvcurveto
          -101 callsubr
          hintmask 10111110
          -103 callsubr
        </CharString>
        <CharString name="ae">
          366 -23 103 -103 115 384 65 436 70 hstemhm
          53 170 -98 163 363 159 433 164 hintmask 00000000
          hintmask 10111011
          780 861 rmoveto
          113 -43 -80 73 -135 hhcurveto
          hintmask 10110111
          -236 -156 -139 -119 -5 hvcurveto
          -2 -51 34 -36 48 -1 rrcurveto
          49 -1 34 40 41 vvcurveto
          19 -2 23 -16 21 vhcurveto
          77 22 84 56 105 hhcurveto
          178 16 -160 -170 -12 hvcurveto
          -6 -82 0 -22 -2 vvcurveto
          hintmask 01111011
          -279 11 -325 -114 -239 vvcurveto
          -133 86 -89 176 129 135 60 129 117 vhcurveto
          hintmask 10111011
          -135 74 96 -54 162 hhcurveto
          139 163 71 241 124 hvcurveto
          -66 38 rlineto
          -139 -79 -115 -108 -127 hhcurveto
          -189 -67 159 233 -1 hvcurveto
          486 52 111 181 121 vvcurveto
          50 -23 171 -250 -152 -118 -65 -121 -80 vhcurveto
          314 118 rmoveto
          59 1 86 -26 -124 vvcurveto
          -176 -215 -88 -217 -21 vhcurveto
          24 248 103 182 160 4 rrcurveto
          -447 -503 rmoveto
          -4 -78 6 -89 16 -76 rrcurveto
          hintmask 01111011
          -86 -90 -117 -61 -108 10 -62 6 -77 33 4 101 rrcurveto
          hintmask 10111011
          7 200 234 38 187 6 rrcurveto
          endchar
        </CharString>
        <CharString name="agrave">
          -32 callgsubr
          712 -70 callgsubr
          241 -969 -102 callsubr
        </CharString>
        <CharString name="amacron">
          -15 callsubr
          278 111 hstemhm
          76 172 457 153 hintmask 00000000
          hintmask 10111100
          918 -7 callgsubr
          367 -885 rmoveto
          -21 -102 -16 -95 -77 vvcurveto
          hintmask 01111100
          -101 callsubr
          hintmask 10111100
          -103 callsubr
        </CharString>
        <CharString name="ampersand">
          235 -33 96 435 131 106 86 573 73 hstemhm
          69 195 -88 180 454 172 hintmask 00000000
          hintmask 11111010
          1370 715 rmoveto
          -84 -88 -84 -2 -109 hhcurveto
          -174 -84 -25 -137 -92 hvcurveto
          41 -41 rlineto
          84 108 65 -12 105 hhcurveto
          -232 -129 -203 -317 -160 -200 111 246 12 vhcurveto
          110 6 80 205 260 hhcurveto
          78 -2 4 90 rlineto
          -1 -25 1 -1 -58 hhcurveto
          hintmask 11110110
          -229 -31 197 96 6 hvcurveto
          150 8 99 130 172 hhcurveto
          104 79 -52 -57 10 hvcurveto
          -13 -22 -6 -23 1 -23 2 -47 41 -29 45 2 rrcurveto
          54 2 30 45 50 vvcurveto
          115 -135 112 -218 -246 -191 -140 -229 -16 vhcurveto
          -11 -142 63 -119 228 -49 rrcurveto
          hintmask 11111010
          -248 -33 -129 -186 -10 -190 rrcurveto
          -279 -14 232 -133 299 hhcurveto
          440 125 316 218 -4 hvcurveto
          161 15 42 64 65 100 rrcurveto
          endchar
        </CharString>
        <CharString name="aogonek">
          -42 -571 98 450 90 -81 -20 1007 74 hstemhm
          76 172 285 129 43 153 hintmask 00000000
          hintmask 10111110
          967 10 rmoveto
          92 60 50 125 14 71 -58 12 rcurveline
          -51 callsubr
          -60 2 67 56 133 48 350 43 326 hvcurveto
          22 -89 -104 13 -82 hhcurveto
          -399 -199 -330 -383 hvcurveto
          hintmask 11011110
          -258 113 -99 147 113 157 56 403 130 vhcurveto
          6 hlineto
          -21 -102 -16 -95 -77 vvcurveto
          hintmask 10111110
          -88 26 -64 65 -24 vhcurveto
          -143 -82 -113 -122 -7 -144 rrcurveto
          -84 callsubr
          128 112 118 134 68 hvcurveto
          21 6 19 8 17 11 rrcurveto
          hintmask 11011110
          -584 58 rmoveto
          -100 -33 127 174 301 115 304 248 63 55 -8 -17 41 hvcurveto
          -366 -2 -200 -515 -187 hhcurveto
          endchar
        </CharString>
        <CharString name="approxequal">
          53 308 123 18 126 61 123 18 126 hstemhm
          150 920 hintmask 00000000
          hintmask 01011000
          150 688 57 callsubr
          hintmask 01111000
          13 callgsubr
          -6 -441 57 callsubr
          hintmask 11011000
          13 callgsubr
          endchar
        </CharString>
        <CharString name="aring">
          -15 callsubr
          120 58 276 58 hstemhm
          76 172 199 105 153 153 -112 105 hintmask 0000000000000000
          hintmask 1011111010000000
          658 1559 -77 callsubr
          hintmask 0111111100000000
          88 -1065 rmoveto
          -21 -102 -16 -95 -77 vvcurveto
          -101 callsubr
          hintmask 1011111100000000
          -103 callsubr
        </CharString>
        <CharString name="asciicircum">
          522 1384 70 hstem
          111 1431 vstem
          1542 883 rmoveto
          -596 571 rlineto
          -174 hlineto
          -661 -563 rlineto
          163 hlineto
          573 493 rlineto
          2 hlineto
          517 -501 rlineto
          endchar
        </CharString>
        <CharString name="asciitilde">
          7 473 131 19 135 hstemhm
          127 920 hintmask 00000000
          hintmask 01100000
          127 528 rmoveto
          54 82 64 41 112 164 29 -150 205 hhcurveto
          hintmask 11100000
          108 86 45 62 64 hvcurveto
          6 120 -78 -63 -92 -41 -99 8 rlinecurve
          hintmask 01100000
          12 -141 -20 142 -211 hhcurveto
          -109 -69 -39 -70 -95 hvcurveto
          endchar
        </CharString>
        <CharString name="asterisk">
          -113 1041 -20 446 -20 hstem
          498 144 vstem
          575 64 callgsubr
          -69 -13 -84 -65 5 hvcurveto
          6 -92 6 -105 14 -80 -67 36 -93 48 -82 39 -59 29 -82 16 -26 -65 -29 -66 74 -33 65 -14 86 -16 107 -16 84 -15 -70 -59 -68 -66 -65 -68 -47 -49 -47 -84 51 -37 rrcurveto
          51 -36 61 51 35 57 47 80 60 98 41 78 30 -78 50 -98 39 -80 32 -57 47 -56 58 39 57 39 -39 86 -41 47 -61 68 -67 72 -58 53 86 9 106 20 90 18 rrcurveto
          68 14 73 35 -18 66 -17 65 -89 -18 -62 -29 -86 -41 -94 -42 -74 -40 24 80 16 105 16 92 rrcurveto
          65 11 -3 84 -70 hhcurveto
          endchar
        </CharString>
        <CharString name="at">
          458 -195 84 243 70 -59 78 705 61 236 80 hstemhm
          89 149 199 137 362 121 341 139 hintmask 0000000000000000
          hintmask 1101111110000000
          1301 84 rmoveto
          -151 -170 -203 -29 -141 4 -303 9 -287 196 22 445 19 344 225 311 338 27 340 26 272 -186 -37 -494 -20 -241 -129 -146 -115 25 -73 16 -9 111 13 106 18 135 39 201 33 187 rrcurveto
          18 -68 -82 8 -63 hhcurveto
          -314 -172 -260 -299 -16 hvcurveto
          hintmask 1011111110000000
          -201 -10 90 -84 115 hhcurveto
          88 125 43 312 116 hvcurveto
          4 hlineto
          -36 -158 -37 -172 188 -33 rrcurveto
          hintmask 1101111110000000
          135 -24 299 110 23 430 16 328 -227 350 -486 -26 -489 -27 -246 -406 -16 -344 -21 -393 232 -338 504 10 215 5 190 71 139 152 rrcurveto
          -462 893 rmoveto
          51 43 -6 -13 30 hvcurveto
          hintmask 1011111110000000
          -286 -16 -176 -400 -148 hhcurveto
          -69 -35 88 137 8 hvcurveto
          hintmask 1101111110000000
          216 10 109 264 193 hhcurveto
          endchar
        </CharString>
        <CharString name="atilde">
          -15 callsubr
          217 106 2 105 -27 -20 hstemhm
          76 172 457 153 hintmask 00000000
          358 -1 callsubr
          hintmask 10101011
          -1 callgsubr
          hintmask 10110111
          8 callgsubr
          435 -871 rmoveto
          -21 -102 -16 -95 -77 vvcurveto
          -101 callsubr
          hintmask 01101011
          -103 callsubr
        </CharString>
        <CharString name="b">
          -117 -23 72 902 96 366 78 55 -20 hstem
          777 176 vstem
          340 1546 rmoveto
          -28 -32 -48 -27 -180 hhcurveto
          -8 -82 147 8 -6 -37 0 -2 -6 -69 rlinecurve
          -41 -475 -12 -281 -37 -533 rrcurveto
          -32 84 117 -11 67 hhcurveto
          406 162 316 377 198 -68 179 -188 -123 -164 -41 -396 -109 hvcurveto
          -6 hlineto
          21 217 20 193 19 180 10 92 16 140 19 114 rrcurveto
          237 -595 rmoveto
          97 4 38 -115 5 -187 4 -249 -62 -351 -299 -4 rrcurveto
          -53 -66 14 33 -32 hvcurveto
          8 342 166 504 194 9 rrcurveto
          endchar
        </CharString>
        <CharString name="backslash">
          444 60 callsubr
          98 1393 vstem
          1491 -487 rmoveto
          -1280 2043 -113 -76 1296 -2035 rlineto
          endchar
        </CharString>
        <CharString name="bar">
          -683 60 callsubr
          113 248 vstem
          241 -555 rmoveto
          120 2111 rlineto
          -143 hlineto
          -105 -2111 rlineto
          endchar
        </CharString>
        <CharString name="braceleft">
          -484 -555 57 972 107 905 70 hstemhm
          204 148 -109 154 -131 160 hintmask 00000000
          hintmask 11100100
          710 1556 rmoveto
          -57 hlineto
          -281 -92 -131 -289 -14 hvcurveto
          -6 -121 16 -129 -6 -107 rrcurveto
          -139 -8 -47 -59 -152 hhcurveto
          -47 hlineto
          -6 -107 rlineto
          47 hlineto
          hintmask 11101000
          152 41 -67 -140 -7 hvcurveto
          hintmask 11110000
          -6 -106 -26 -137 -7 -121 rrcurveto
          -288 -16 76 -170 280 hhcurveto
          58 hlineto
          4 57 -211 -6 -55 145 12 234 rlinecurve
          hintmask 11101000
          4 92 37 182 4 96 8 170 -98 88 -117 22 rrcurveto
          4 vlineto
          hintmask 11100100
          119 23 108 80 9 170 6 96 -21 175 6 92 13 233 65 95 211 -7 rrcurveto
          endchar
        </CharString>
        <CharString name="braceright">
          -484 -555 70 905 107 972 57 hstemhm
          237 160 -131 154 -109 148 hintmask 00000000
          hintmask 11110000
          -47 -555 rmoveto
          57 hlineto
          281 92 131 289 14 hvcurveto
          6 121 -16 129 6 107 rrcurveto
          139 8 47 59 152 hhcurveto
          47 hlineto
          6 107 rlineto
          -47 hlineto
          hintmask 11101000
          -152 -41 67 140 7 hvcurveto
          hintmask 11100100
          6 106 26 137 7 121 rrcurveto
          288 16 -76 170 -280 hhcurveto
          -58 hlineto
          -4 -57 211 6 55 -145 -12 -234 rlinecurve
          hintmask 11101000
          -4 -92 -37 -182 -4 -96 -8 -170 98 -88 117 -22 rrcurveto
          -4 vlineto
          hintmask 11110000
          -119 -23 -108 -80 -9 -170 -6 -96 21 -175 -6 -92 -13 -233 -65 -95 -211 7 rrcurveto
          endchar
        </CharString>
        <CharString name="bracketleft">
          -425 -522 117 1833 117 hstem
          94 688 vstem
          774 1432 rmoveto
          8 114 rlineto
          -543 hlineto
          -145 -2068 rlineto
          548 hlineto
          9 114 -411 7 135 1826 rlineto
          endchar
        </CharString>
        <CharString name="bracketright">
          -425 -522 117 1833 117 hstem
          -57 688 vstem
          -49 -408 rmoveto
          -8 -114 rlineto
          543 hlineto
          145 2068 rlineto
          -548 hlineto
          -9 -114 411 -7 -135 -1826 rlineto
          endchar
        </CharString>
        <CharString name="breve">
          -427 1245 111 hstem
          92 553 vstem
          598 1505 -59 callgsubr
          endchar
        </CharString>
        <CharString name="brokenbar">
          -629 60 callsubr
          139 246 vstem
          337 794 rmoveto
          48 762 rlineto
          -144 hlineto
          -33 -762 rlineto
          60 -1349 rmoveto
          47 762 rlineto
          -143 hlineto
          -33 -762 rlineto
          endchar
        </CharString>
        <CharString name="bullet">
          -367 463 606 hstem
          100 617 vstem
          422 1069 rmoveto
          -170 -144 -133 -170 -8 hvcurveto
          -170 -10 131 -133 170 hhcurveto
          170 145 133 170 11 hvcurveto
          170 8 -133 133 -170 hhcurveto
          endchar
        </CharString>
        <CharString name="c">
          55 callgsubr
          823 335 -88 callgsubr
        </CharString>
        <CharString name="cacute">
          55 callgsubr
          441 1223 -98 callsubr
          223 -1158 -88 callgsubr
        </CharString>
        <CharString name="caron">
          -347 1524 -20 hstem
          92 633 vstem
          725 1524 -66 callgsubr
          endchar
        </CharString>
        <CharString name="caroncomb.alt">
          -1164 1135 453 hstem
          312 145 vstem
          293 1588 -50 callgsubr
          endchar
        </CharString>
        <CharString name="ccaron">
          55 callgsubr
          911 1520 -66 callgsubr
          254 -849 -88 callgsubr
        </CharString>
        <CharString name="ccedilla">
          -193 -209 90 1094 72 hstemhm
          80 180 295 152 -4 174 hintmask 00000000
          hintmask 11110000
          322 -205 rmoveto
          69 -35 rlineto
          -81 callsubr
          48 135 157 3 153 87 103 234 rlinecurve
          -72 34 rlineto
          24 callsubr
          217 70 285 237 hvcurveto
          hintmask 11101000
          80 68 -33 -76 14 hvcurveto
          -22 -24 -4 -29 -24 vvcurveto
          -32 23 -53 64 2 vhcurveto
          54 1 33 41 59 vvcurveto
          135 -131 105 -176 -340 -150 -353 -268 -266 116 -143 187 -32 vhcurveto
          endchar
        </CharString>
        <CharString name="cedilla">
          -564 -209 90 hstem
          354 152 vstem
          295 16 rmoveto
          -102 hlineto
          -72 -221 69 -35 rlineto
          -81 callsubr
          endchar
        </CharString>
        <CharString name="cent">
          -177 976 71 hstem
          84 180 443 174 vstem
          680 1274 rmoveto
          -121 hlineto
          -18 -227 rlineto
          -317 -23 -140 -339 -259 vvcurveto
          -281 129 -145 207 -23 vhcurveto
          -21 -241 rlineto
          107 hlineto
          23 241 142 18 135 103 93 213 rlinecurve
          -72 34 rlineto
          -195 -79 -127 -76 -107 hhcurveto
          -145 -105 112 287 217 70 286 237 80 68 -34 -76 14 hvcurveto
          -22 -24 -4 -29 -24 vvcurveto
          -32 23 -53 64 2 vhcurveto
          54 1 33 41 59 vvcurveto
          112 -91 93 -132 27 vhcurveto
          endchar
        </CharString>
        <CharString name="circumflex">
          -345 1206 383 hstem
          92 635 vstem
          727 -54 callsubr
          endchar
        </CharString>
        <CharString name="colon">
          -646 1057 -20 hstemhm
          152 233 hintmask 00000000
          279 1057 -72 callsubr
          hintmask 11000000
          -31 -832 -72 callsubr
          endchar
        </CharString>
        <CharString name="comma">
          -679 229 hmoveto
          -96 callsubr
          endchar
        </CharString>
        <CharString name="commaaccentcomb">
          -1164 -531 416 hstem
          185 151 vstem
          177 -147 -97 callgsubr
        </CharString>
        <CharString name="copyright">
          630 -102 98 213 123 790 105 -84 74 225 94 hstemhm
          94 131 193 182 612 87 283 131 hintmask 0000000000000000
          hintmask 1110111110000000
          -41 callsubr
          318 -961 rmoveto
          -94 -80 -131 -55 -91 hhcurveto
          -215 -151 174 227 12 hvcurveto
          252 12 183 137 155 hhcurveto
          142 108 -71 -179 13 hvcurveto
          77 hlineto
          hintmask 1101111110000000
          19 345 rlineto
          -99 hlineto
          5 -74 rlineto
          -2 hlineto
          hintmask 1110111110000000
          50 -68 -97 34 -100 hhcurveto
          -329 -189 -277 -241 -12 hvcurveto
          -281 -14 200 -219 283 hhcurveto
          117 182 43 166 129 hvcurveto
          endchar
        </CharString>
        <CharString name="currency">
          -27 138 80 627 73 hstem
          187 171 412 167 vstem
          1003 910 rmoveto
          -76 66 -118 -139 rlineto
          50 -57 -76 31 -93 hhcurveto
          -94 -79 -31 -50 -62 hvcurveto
          -103 139 -83 -66 117 -142 -56 -72 -32 -89 -4 -86 rlinecurve
          -5 -86 20 -83 44 -67 -127 -137 rcurveline
          76 -66 113 133 rlineto
          -48 58 77 -29 98 hhcurveto
          98 81 30 48 63 hvcurveto
          101 -134 83 66 -115 138 51 67 29 83 5 85 rlinecurve
          4 86 -23 88 -48 72 rrcurveto
          -291 78 rmoveto
          154 42 -187 -104 -5 hvcurveto
          -131 -7 -55 -205 -162 hhcurveto
          -162 -33 205 131 7 hvcurveto
          104 5 62 187 154 hhcurveto
          endchar
        </CharString>
        <CharString name="d">
          -27 35 callgsubr
          hintmask 00000000
          hintmask 10101111
          961 32 callsubr
          150 8 -10 -39 -6 -37 -7 -49 rlinecurve
          hintmask 10011111
          -12 -95 -10 -84 -8 -75 rrcurveto
          hintmask 10101111
          6 -37 -38 3 -40 hhcurveto
          -395 -201 -282 -399 -215 88 -174 189 120 150 74 375 113 hvcurveto
          6 hlineto
          -21 -102 -10 -84 -78 vvcurveto
          hintmask 01101111
          -31 callsubr
          163 -13 callsubr
          19 vhcurveto
          -60 40 callgsubr
          -40 -62 -53 -45 hhcurveto
          -53 -2 55 53 148 30 276 29 262 hvcurveto
          37 320 10 92 23 158 16 102 rlinecurve
          -381 -573 rmoveto
          47 48 -5 -15 45 hvcurveto
          58 callsubr
          hintmask 10101111
          19 callsubr
          hvcurveto
          hintmask 01101111
          79 callgsubr
          vhcurveto
          endchar
        </CharString>
        <CharString name="dagger">
          -120 858 139 559 -20 hstem
          482 175 vstem
          496 -555 rmoveto
          43 379 22 389 66 360 -26 75 -16 111 -23 152 98 -20 102 -15 98 -14 rrcurveto
          66 -8 88 -2 76 vvcurveto
          80 -80 -7 -65 -8 vhcurveto
          -103 -13 -101 -15 -103 -21 29 123 41 188 22 152 rrcurveto
          65 10 -10 84 -76 hhcurveto
          -76 -23 -84 -65 3 hvcurveto
          6 -152 20 -188 17 -123 -99 21 -102 15 -98 13 rrcurveto
          -66 8 -88 3 -76 vvcurveto
          -76 80 2 65 8 vhcurveto
          102 14 101 15 102 20 -38 -151 -29 -112 -33 -75 29 -360 -15 -389 3 -379 rrcurveto
          endchar
        </CharString>
        <CharString name="daggerdbl">
          -70 17 145 693 146 555 -20 hstemhm
          400 183 -88 184 53 callsubr
          596 1556 rmoveto
          -76 -27 -84 -65 2 hvcurveto
          6 -152 25 -188 17 -123 -99 21 -100 19 -100 13 -66 9 -84 -2 -4 -76 -4 -76 84 -2 65 8 102 13 101 19 102 21 -39 -155 -31 -166 -34 -75 26 -76 14 -177 23 -156 rrcurveto
          -98 20 -102 20 -98 13 -66 8 -84 -2 -4 -76 -4 -75 84 -2 65 8 rrcurveto
          hintmask 11110000
          100 13 104 19 102 21 -29 -124 -44 -203 -22 -152 rrcurveto
          -65 -10 14 -84 76 hhcurveto
          76 27 84 65 -3 hvcurveto
          -6 153 -24 202 -17 124 98 -21 101 -19 100 -13 66 -8 84 2 4 75 4 76 -84 2 -65 -8 -102 -13 -103 -19 -101 -21 39 156 34 178 34 75 -26 75 -16 166 -23 155 rrcurveto
          98 -21 102 -19 98 -13 66 -8 84 2 4 76 4 76 -84 2 -65 -9 rrcurveto
          hintmask 11101000
          -101 -13 -103 -19 -103 -21 29 123 45 188 22 152 rrcurveto
          65 10 -14 84 -76 hhcurveto
          endchar
        </CharString>
        <CharString name="dcaron">
          115 35 callgsubr
          326 145 hintmask 0000000000000000
          hintmask 1010111110000000
          1182 1588 -50 callgsubr
          -362 -15 -25 callsubr
          150 8 -10 -39 -6 -37 -7 -49 rlinecurve
          hintmask 1001111110000000
          -12 -95 -10 -84 -8 -75 -38 callsubr
          37 320 10 92 23 158 16 102 rlinecurve
          -381 -573 rmoveto
          47 48 -5 -15 45 hvcurveto
          58 callsubr
          hintmask 1010111110000000
          19 callsubr
          hvcurveto
          hintmask 0110111110000000
          79 callgsubr
          vhcurveto
          endchar
        </CharString>
        <CharString name="dcroat">
          -27 -23 96 -96 103 893 74 -9 -20 167 87 141 78 55 -20 hstemhm
          78 176 459 162 hintmask 0000000000000000
          hintmask 1010111110000000
          970 1189 rmoveto
          163 2 6 81 rlineto
          -159 hlineto
          12 88 16 109 12 77 rrcurveto
          -59 hlineto
          -39 callsubr
          150 8 -10 -39 -6 -37 -7 -49 rlinecurve
          -3 -20 rlineto
          -380 hlineto
          -6 -89 376 4 rlineto
          hintmask 1001111110000000
          -6 -53 -6 -50 -5 -46 -38 callsubr
          -207 -282 rmoveto
          hintmask 1010111110000000
          19 callsubr
          79 callgsubr
          47 48 -5 -15 45 hvcurveto
          hintmask 0110111110000000
          58 callsubr
          endchar
        </CharString>
        <CharString name="degree">
          -371 845 96 432 94 hstem
          121 123 376 122 vstem
          451 64 callgsubr
          -174 -146 -139 -178 -10 hvcurveto
          -178 -8 108 -127 193 hhcurveto
          174 145 127 178 9 hvcurveto
          178 10 -109 139 -192 hhcurveto
          -8 -94 rmoveto
          114 67 -104 -113 -4 hvcurveto
          -113 -6 -79 -102 -113 hhcurveto
          -115 -69 102 113 6 hvcurveto
          113 4 82 104 113 hhcurveto
          endchar
        </CharString>
        <CharString name="dieresis">
          -445 1261 224 hstem
          116 188 80 callsubr
          vstem
          218 -71 callgsubr
          endchar
        </CharString>
        <CharString name="divide">
          -613 1056 -20 hstemhm
          165 233 hintmask 00000000
          292 1056 -72 callsubr
          hintmask 11000000
          -20 -708 -72 callsubr
          endchar
        </CharString>
        <CharString name="dollar">
          -81 -33 81 1338 81 hstemhm
          93 83 -49 165 167 108 -29 109 172 173 -132 89 hintmask 00000000
          655 1706 rmoveto
          -110 hlineto
          -13 -239 -301 -14 -98 -217 -6 -129 rlinecurve
          -21 -459 732 41 -18 -386 rrcurveto
          -149 -7 -121 -106 -160 hhcurveto
          hintmask 11010110
          -217 -137 109 252 -2 hvcurveto
          -72 hlineto
          -22 -435 rlineto
          111 hlineto
          -6 65 84 -48 109 -20 85 -4 rlinecurve
          -12 -280 rlineto
          106 hlineto
          16 280 269 19 139 172 10 190 rlinecurve
          hintmask 11101010
          23 446 -730 -15 6 363 rrcurveto
          122 2 91 122 172 hhcurveto
          hintmask 11011010
          240 63 -170 -197 2 hvcurveto
          76 hlineto
          25 448 rlineto
          -103 hlineto
          hintmask 11011001
          3 -92 -73 50 -74 29 -76 10 rlinecurve
          endchar
        </CharString>
        <CharString name="dotaccent">
          -758 1248 238 hstem
          96 215 vstem
          213 1486 -56 callgsubr
          endchar
        </CharString>
        <CharString name="dotlessi">
          -12 callgsubr
          71 746 rmoveto
          hintmask 11010000
          -73 callsubr
          hintmask 11100000
          -97 callsubr
          hintmask 11010000
          -57 callgsubr
          endchar
        </CharString>
        <CharString name="e">
          -20 callgsubr
          830 327 -82 callsubr
          -106 callgsubr
        </CharString>
        <CharString name="eacute">
          -20 callgsubr
          432 1227 -98 callsubr
          239 -1170 -82 callsubr
          -106 callgsubr
        </CharString>
        <CharString name="ecaron">
          -23 103 897 70 477 -20 hstem
          80 180 435 169 vstem
          902 1524 -66 callgsubr
          270 -861 -82 callsubr
          -106 callgsubr
        </CharString>
        <CharString name="ecircumflex">
          -20 callgsubr
          904 -54 callsubr
          -23 -879 -82 callsubr
          -106 callgsubr
        </CharString>
        <CharString name="edieresis">
          -23 103 897 70 67 callgsubr
          80 180 80 188 80 callsubr
          -134 169 hintmask 00000000
          hintmask 11111010
          442 1485 rmoveto
          -100 callsubr
          hintmask 11111100
          301 hmoveto
          -100 callsubr
          87 -1158 -82 callsubr
          hintmask 11111010
          -106 callgsubr
        </CharString>
        <CharString name="edotaccent">
          -23 103 897 70 hstemhm
          80 180 217 215 hintmask 00000000
          594 1486 -56 callgsubr
          236 -1159 -82 callsubr
          hintmask 11110000
          -106 callgsubr
        </CharString>
        <CharString name="egrave">
          -20 callgsubr
          648 -70 callgsubr
          393 -1078 -82 callsubr
          -106 callgsubr
        </CharString>
        <CharString name="eight">
          -9 -33 82 1338 80 hstemhm
          116 170 -110 180 483 189 -172 155 hintmask 00000000
          hintmask 11100100
          622 64 callgsubr
          hintmask 11010100
          -207 -224 -115 -258 -15 hvcurveto
          -7 -120 91 -125 182 -110 rrcurveto
          hintmask 11101000
          -170 -100 -145 -149 -11 -178 rrcurveto
          -258 -12 219 -87 232 hhcurveto
          241 219 116 258 13 hvcurveto
          9 179 -144 150 -175 105 rrcurveto
          hintmask 11100100
          149 75 137 137 7 154 rrcurveto
          213 10 -192 113 -207 hhcurveto
          hintmask 11010100
          -80 vmoveto
          146 98 -95 -174 -10 hvcurveto
          -5 -95 -75 -124 -130 -85 -202 84 -95 112 7 129 rrcurveto
          127 7 98 121 161 hhcurveto
          hintmask 11101000
          -110 -687 rmoveto
          13 -7 14 -6 14 -7 182 -88 117 -127 -13 -161 rrcurveto
          -149 -12 -108 -106 -156 hhcurveto
          -185 -102 104 186 10 hvcurveto
          6 103 59 150 161 108 rrcurveto
          endchar
        </CharString>
        <CharString name="ellipsis">
          417 215 225 -72 callsubr
          553 hmoveto
          -87 callsubr
          553 hmoveto
          -87 callsubr
          endchar
        </CharString>
        <CharString name="emacron">
          -23 103 897 70 278 111 hstem
          80 180 435 169 vstem
          854 -7 callgsubr
          519 -994 -82 callsubr
          -106 callgsubr
        </CharString>
        <CharString name="emdash">
          257 588 135 hstem
          129 1163 vstem
          1286 588 rmoveto
          6 135 rlineto
          -1157 hlineto
          -6 -135 rlineto
          endchar
        </CharString>
        <CharString name="endash">
          30 588 135 hstem
          129 939 vstem
          1060 588 rmoveto
          8 135 rlineto
          -932 hlineto
          -7 -135 rlineto
          endchar
        </CharString>
        <CharString name="eogonek">
          -571 98 450 103 897 70 hstemhm
          80 180 -65 129 371 169 hintmask 00000000
          hintmask 11110100
          830 327 -82 callsubr
          255 28 349 92 226 vvcurveto
          175 -141 61 -145 -336 -162 -310 -317 -260 114 -175 248 -8 vhcurveto
          hintmask 11101100
          -135 -82 -105 -118 -7 -139 rrcurveto
          -84 callsubr
          140 134 127 150 65 hvcurveto
          115 41 93 93 81 153 rrcurveto
          hintmask 11110100
          -348 688 rmoveto
          98 48 -69 -87 -158 -218 -95 -215 -29 hvcurveto
          220 15 84 218 188 hhcurveto
          endchar
        </CharString>
        <CharString name="equal">
          38 383 119 274 119 hstem
          133 938 vstem
          1071 895 rmoveto
          -912 hlineto
          -6 -119 rlineto
          912 hlineto
          -15 -274 rmoveto
          -911 hlineto
          -6 -119 rlineto
          911 hlineto
          endchar
        </CharString>
        <CharString name="estimated">
          16 -26 70 463 71 396 67 hstem
          84 221 570 221 vstem
          967 275 rmoveto
          -153 -90 -126 -78 -162 hhcurveto
          -108 -96 39 75 -80 hvcurveto
          349 791 vlineto
          293 -10 -172 241 -325 hhcurveto
          -303 -202 -231 -303 -300 196 -233 309 190 145 91 169 111 hvcurveto
          -160 344 rmoveto
          -570 279 hlineto
          79 77 94 38 111 hhcurveto
          110 96 -38 -79 82 hvcurveto
          endchar
        </CharString>
        <CharString name="eth">
          -107 -23 78 893 82 407 -20 67 69 -69 72 hstemhm
          82 176 512 166 hintmask 00000000
          737 1589 rmoveto
          -59 53 -119 -134 -88 38 -104 17 -123 -10 rlinecurve
          hintmask 11110110
          -69 vlineto
          102 3 83 -18 66 -32 -128 -143 rcurveline
          69 -65 134 161 130 -105 47 -178 15 -178 rlinecurve
          -60 72 -75 26 -86 3 rrcurveto
          -242 8 -217 -235 -375 vvcurveto
          -297 164 -154 184 266 240 183 553 vhcurveto
          hintmask 11101110
          327 -88 288 -213 139 vhcurveto
          -94 -519 rmoveto
          96 80 -42 -102 52 hvcurveto
          -28 1 -28 -27 vvcurveto
          -252 -67 -414 -236 -119 -90 141 254 326 160 172 123 vhcurveto
          endchar
        </CharString>
        <CharString name="exclam">
          -607 1467 -20 hstemhm
          137 240 -240 299 -229 229 hintmask 00000000
          hintmask 10100000
          238 471 rmoveto
          75 hlineto
          121 845 rlineto
          hintmask 10010000
          73 11 -27 78 -88 hhcurveto
          -84 -41 -78 -73 2 hvcurveto
          hintmask 11000000
          57 -1084 rmoveto
          -63 -60 -60 -74 -4 hvcurveto
          -73 -4 51 -58 64 hhcurveto
          63 62 58 73 4 hvcurveto
          74 4 -49 60 -68 hhcurveto
          endchar
        </CharString>
        <CharString name="exclamdown">
          -646 1057 -20 hstemhm
          148 240 hintmask 00000000
          261 792 rmoveto
          63 60 60 74 4 hvcurveto
          73 4 -51 58 -64 hhcurveto
          -63 -62 -58 -73 -4 hvcurveto
          -74 -4 49 -60 68 hhcurveto
          26 -239 rmoveto
          -75 hlineto
          -121 -845 rlineto
          hintmask 11000000
          -73 -11 27 -78 88 hhcurveto
          84 41 78 73 -2 hvcurveto
          endchar
        </CharString>
        <CharString name="f">
          -69 callsubr
        </CharString>
        <CharString name="fi">
          153 -555 80 452 103 857 87 -82 82 -80 103 446 63 hstemhm
          -256 163 947 168 -127 179 -140 166 hintmask 0000000000000000
          hintmask 1101010100000000
          238 1024 rmoveto
          -178 hlineto
          hintmask 1110011100000000
          -10 -88 178 2 -36 -311 -13 -468 -37 -300 rlinecurve
          -199 -24 -44 -135 -104 hhcurveto
          -25 -23 -16 callsubr
          334 74 389 391 28 vhcurveto
          hintmask 1101010010000000
          42 callsubr
          29 111 4 rlinecurve
          98 4 102 -51 17 -70 -11 -26 -5 -27 3 -23 5 -36 28 -34 49 -4 47 -4 47 35 3 62 5 121 -162 115 -196 1 -311 -8 -123 -223 -43 -266 rrcurveto
          483 -313 rmoveto
          hintmask 1100110001000000
          -73 callsubr
          hintmask 1101010100000000
          -97 callsubr
          hintmask 1100110001000000
          -57 callgsubr
          endchar
        </CharString>
        <CharString name="five">
          -93 -33 80 750 92 406 139 hstem
          73 164 536 201 vstem
          960 1302 rmoveto
          31 265 rlineto
          -54 hlineto
          -93 -4 -57 -40 -154 hhcurveto
          -520 hlineto
          -33 -656 56 -51 rlineto
          51 82 96 19 69 hhcurveto
          289 19 -252 -154 -7 hvcurveto
          -6 -174 -102 -160 -199 -10 -96 -4 -131 43 -2 102 rrcurveto
          21 26 8 33 25 vvcurveto
          47 -35 43 -57 -54 -42 -39 -60 -5 vhcurveto
          -140 -12 131 -156 262 hhcurveto
          266 238 158 303 16 hvcurveto
          221 12 -110 240 -336 hhcurveto
          -119 -98 -27 -26 -62 hvcurveto
          25 452 rlineto
          endchar
        </CharString>
        <CharString name="fl">
          87 -555 80 452 102 858 87 -82 82 467 65 -10 -20 hstemhm
          -256 163 892 166 hintmask 00000000
          hintmask 11011001
          238 1024 rmoveto
          -178 hlineto
          hintmask 11101011
          -10 -88 177 2 -36 -311 -13 -468 -36 -300 rlinecurve
          -199 -25 -43 -135 -104 hhcurveto
          -25 -23 -16 callsubr
          344 66 389 391 26 vhcurveto
          hintmask 11011001
          42 callsubr
          33 111 -2 rlinecurve
          92 -2 102 -47 39 -37 -51 -367 -78 -713 4 -181 rrcurveto
          -110 2 51 -57 111 hhcurveto
          164 84 192 96 18 hvcurveto
          -59 47 callgsubr
          -62 -53 -45 hhcurveto
          -53 -4 55 53 197 55 525 37 289 hvcurveto
          hintmask 11010101
          0 callgsubr
          -59 hlineto
          hintmask 11011001
          -63 -102 -105 73 -145 hhcurveto
          -291 -123 -231 -266 -43 hvcurveto
          endchar
        </CharString>
        <CharString name="florin">
          -69 callsubr
        </CharString>
        <CharString name="foundry">
          1359 -107 110 579 54 hstemhm
          272 231 159 83 148 87 331 28 146 156 -32 221 -59 81 122 68 hintmask 0000000000000000
          878 569 rmoveto
          -38 40 -80 34 -50 -7 rrcurveto
          11 -74 24 -130 -132 vvcurveto
          -56 -4 -58 -12 -53 vhcurveto
          -3 -10 -6 -23 -21 -5 rrcurveto
          -29 90 -8 99 103 vvcurveto
          47 1 47 3 48 vhcurveto
          -37 35 -69 12 -30 6 rrcurveto
          -17 -33 -10 -48 -72 vvcurveto
          -76 6 -78 20 -66 vhcurveto
          -21 -47 -47 -83 -74 -24 rrcurveto
          -83 59 -32 155 159 vvcurveto
          187 44 190 51 48 vhcurveto
          20 -25 24 -89 -73 vvcurveto
          -13 -1 -14 -1 -13 vhcurveto
          -3 -8 0 -14 17 19 rrcurveto
          53 45 37 57 70 vvcurveto
          179 -130 31 -86 18 vhcurveto
          -157 -137 -57 -236 2 -234 rrcurveto
          -204 5 85 -209 217 hhcurveto
          97 47 68 58 20 hvcurveto
          -62 31 46 -42 69 hhcurveto
          18 18 15 12 7 hvcurveto
          -23 -190 -2 -127 -120 -77 rrcurveto
          -4 19 -3 23 24 vvcurveto
          40 6 41 4 35 vhcurveto
          38 -38 -57 15 -47 hhcurveto
          -11 -39 -10 -43 -46 vvcurveto
          -103 26 -57 100 231 96 330 367 vhcurveto
          hintmask 1111111011000000
          89 -5 90 -10 88 vhcurveto
          851 377 rmoveto
          0 1 0 -1 1 vhcurveto
          -24 hlineto
          5 28 rlineto
          0 4 1 -5 vhcurveto
          -25 -9 rlineto
          8 -11 -13 1 -14 hhcurveto
          -36 -36 -24 -42 -12 hvcurveto
          -21 -21 -136 -22 -138 -26 rrcurveto
          -27 -169 15 4 -2 hvcurveto
          -8 -3 -8 -7 7 hvcurveto
          37 -34 94 4 27 -24 57 -68 69 -68 77 -16 6 -19 8 -21 10 -17 rrcurveto
          1 -9 -9 1 -8 hhcurveto
          -8 -8 -1 -1 -9 hvcurveto
          -36 -58 -22 -124 -2 -105 rrcurveto
          -1 -10 0 -9 -10 vvcurveto
          -128 54 -113 139 vhcurveto
          63 7 42 44 24 39 rrcurveto
          -52 14 40 -38 76 hhcurveto
          36 5 49 30 10 40 rrcurveto
          -40 17 43 -49 55 hhcurveto
          47 34 44 43 11 hvcurveto
          -55 34 52 -32 70 hhcurveto
          142 35 158 112 12 0 9 -1 10 hvcurveto
          -5 -5 2 -5 -10 hvcurveto
          -30 -122 -45 -76 -58 -44 rrcurveto
          -41 60 -20 80 99 vvcurveto
          107 50 57 198 164 vvcurveto
          174 -45 73 -169 28 vhcurveto
          -77 -139 -41 -212 -204 vvcurveto
          -94 8 -93 19 -83 vhcurveto
          3 -21 -12 -22 -31 -65 -28 7 rlinecurve
          -20 68 -7 89 90 vvcurveto
          100 9 100 11 79 vhcurveto
          -22 22 -72 30 -31 -9 -13 -8 -15 -79 -5 -14 rrcurveto
          11 -30 -38 8 -33 hhcurveto
          -66 -70 -23 -97 -5 -103 rrcurveto
          hintmask 0100000100000000
          -77 vlineto
          -18 -45 -32 -67 -56 -24 -27 18 -9 40 -10 40 rrcurveto
          78 24 42 109 98 vvcurveto
          85 -31 53 -52 26 vhcurveto
          hintmask 0100111011000000
          -2 1 0 0 1 vvcurveto
          -11 20 -13 26 -13 26 134 21 45 176 43 87 rrcurveto
          499 -547 rmoveto
          7 149 29 171 28 116 rrcurveto
          6 -28 2 -36 -40 vvcurveto
          -116 -24 -146 -48 -70 vhcurveto
          -740 261 rmoveto
          10 -24 13 -23 13 -17 -13 4 -13 1 -15 3 -17 56 rcurveline
          -546 -41 rmoveto
          62 -150 7 -256 11 -170 rrcurveto
          -2 7 6 -1 7 hhcurveto
          52 32 42 53 16 hvcurveto
          14 41 0 79 48 vvcurveto
          13 53 40 39 14 40 rrcurveto
          -63 9 30 -32 52 hhcurveto
          15 14 3 5 18 hvcurveto
          -5 27 -3 32 32 vvcurveto
          49 6 51 7 41 vhcurveto
          -19 37 -56 16 -60 6 rrcurveto
          -11 -22 -11 -44 -25 vvcurveto
          -13 -39 -22 -43 -32 -62 -6 76 -19 55 -22 38 -15 18 -21 12 -25 5 -23 5 -30 4 -39 2 rrcurveto
          624 -111 rmoveto
          10 -20 15 -42 -42 vvcurveto
          -71 -20 -83 -44 -6 vhcurveto
          91 14 94 25 79 vhcurveto
          263 -405 rmoveto
          -11 34 -5 41 42 vvcurveto
          111 30 124 31 38 vhcurveto
          -2 -16 0 -25 -30 vvcurveto
          -63 5 -84 17 -72 vhcurveto
          -2 -40 -40 -41 -23 -19 rrcurveto
          endchar
        </CharString>
        <CharString name="four">
          -85 0 81 314 123 948 -20 hstem
          630 166 vstem
          805 513 rmoveto
          41 954 rlineto
          -70 hlineto
          -765 -971 -5 -101 rlineto
          626 hlineto
          -3 -70 -6 -149 -31 -98 -139 -11 rlinecurve
          -16 hlineto
          -5 -67 rlineto
          498 hlineto
          6 84 -161 -6 13 41 3 49 2 55 rlinecurve
          7 172 rlineto
          204 hlineto
          6 115 rlineto
          -340 672 rmoveto
          4 hlineto
          -35 -667 -499 7 rlineto
          endchar
        </CharString>
        <CharString name="fraction">
          -234 1467 -20 hstem
          -78 1098 vstem
          1020 1412 rmoveto
          -72 55 -1026 -1453 63 -47 rlineto
          endchar
        </CharString>
        <CharString name="g">
          53 callgsubr
          hstemhm
          29 189 -140 172 528 158 53 callsubr
          740 436 52 callgsubr
          hintmask 11110100
          -52 callgsubr
          hintmask 11101100
          -57 callsubr
        </CharString>
        <CharString name="gbreve">
          53 callgsubr
          198 111 hstemhm
          29 189 -140 172 528 158 hintmask 00000000
          hintmask 11110100
          850 1505 -59 callgsubr
          -157 -1047 52 callgsubr
          hintmask 11111010
          -52 callgsubr
          hintmask 11110110
          -57 callsubr
        </CharString>
        <CharString name="gcommaaccent">
          53 callgsubr
          492 -20 hstemhm
          29 189 -140 172 251 151 126 158 hintmask 00000000
          hintmask 11110110
          660 1195 rmoveto
          -13 115 -11 66 104 163 -51 40 rcurveline
          -105 -97 -74 -109 -9 -104 -3 -36 5 -36 13 -34 rrcurveto
          224 -727 52 callgsubr
          hintmask 11111011
          -52 callgsubr
          hintmask 11110111
          -57 callsubr
        </CharString>
        <CharString name="germandbls">
          167 -555 80 452 76 884 86 465 67 hstemhm
          -258 163 694 172 -80 143 160 155 -55 168 hintmask 0000000000000000
          hintmask 1111101010000000
          58 1024 rmoveto
          -10 -88 184 3 -19 -138 -10 -150 -12 -149 rlinecurve
          -543 -45 13 -434 -192 hhcurveto
          -15 -31 5 11 -16 hvcurveto
          55 -28 40 -50 1 vhcurveto
          -61 2 -24 -57 -31 vvcurveto
          -69 55 -36 105 -1 vhcurveto
          400 -4 16 547 41 495 22 275 9 237 38 174 rrcurveto
          195 43 89 125 198 hhcurveto
          hintmask 1111101100000000
          174 71 -119 -113 -9 hvcurveto
          -20 -260 -268 0 -15 -223 rrcurveto
          hintmask 1111101010000000
          -14 -221 417 -97 -208 vvcurveto
          -123 -55 -72 -125 vhcurveto
          hintmask 1111110010000000
          -74 -66 35 59 -21 hvcurveto
          14 22 4 21 20 vvcurveto
          44 -29 43 -54 -50 -39 -41 -60 -141 153 -78 166 207 137 127 172 vhcurveto
          hintmask 1111101010000000
          287 -428 90 160 vvcurveto
          158 280 35 33 239 vhcurveto
          hintmask 1111101100000000
          19 138 -95 174 -304 -1 rrcurveto
          -345 -121 -227 -305 -55 hvcurveto
          endchar
        </CharString>
        <CharString name="grave">
          -672 1186 376 hstem
          93 306 vstem
          350 -70 callgsubr
          endchar
        </CharString>
        <CharString name="greater">
          -60 179 936 hstemhm
          100 940 -138 135 hintmask 00000000
          hintmask 11000000
          108 302 rmoveto
          -8 -123 rlineto
          hintmask 10100000
          934 405 6 134 -889 397 -8 -127 759 -342 rlineto
          -2 vlineto
          endchar
        </CharString>
        <CharString name="greaterequal">
          -29 1033 754 rmoveto
          -889 397 -8 -127 759 -342 rlineto
          -2 vlineto
          -794 -342 -8 -123 934 405 rlineto
          -27 -620 rmoveto
          5 111 rlineto
          -912 hlineto
          -5 -111 rlineto
          endchar
        </CharString>
        <CharString name="guillemotleft">
          -105 -15 1138 hstem
          51 921 vstem
          51 540 rmoveto
          516 -555 59 53 -372 498 rlineto
          4 vlineto
          448 528 -49 55 -602 -575 rlineto
          436 -2 rmoveto
          375 -389 59 55 -229 342 rlineto
          4 vlineto
          280 342 -51 51 -434 -399 rlineto
          endchar
        </CharString>
        <CharString name="guillemotright">
          -97 -15 1138 hstem
          76 921 vstem
          997 568 rmoveto
          -516 555 -59 -53 372 -498 rlineto
          -4 vlineto
          -448 -528 49 -55 602 575 rlineto
          -436 2 rmoveto
          -375 389 -59 -55 229 -342 rlineto
          -4 vlineto
          -280 -342 51 -51 434 399 rlineto
          endchar
        </CharString>
        <CharString name="guilsinglleft">
          -408 -14 1138 hstem
          51 651 vstem
          702 1069 rmoveto
          -49 55 -602 -575 rlineto
          -8 vlineto
          516 -555 59 53 -373 498 rlineto
          4 vlineto
          endchar
        </CharString>
        <CharString name="guilsinglright">
          -408 -14 1138 hstem
          43 651 vstem
          43 41 rmoveto
          49 -55 602 575 rlineto
          8 vlineto
          -516 555 -59 -53 373 -498 rlineto
          -4 vlineto
          endchar
        </CharString>
        <CharString name="h">
          7 -23 102 872 96 366 78 55 -20 hstemhm
          123 166 430 170 -111 85 callgsubr
          hintmask 11111010
          369 32 callsubr
          144 8 -6 -35 -2 -4 -11 -69 rlinecurve
          -47 -318 -55 -751 -187 -17 callgsubr
          378 209 464 182 80 18 -78 -47 vhcurveto
          -215 -59 -284 -152 vvcurveto
          hintmask 11111100
          61 callsubr
          -51 47 callgsubr
          -64 29 callsubr
          57 262 227 vvcurveto
          hintmask 11111010
          15 callsubr
          -7 hlineto
          11 143 32 326 19 139 83 callsubr
        </CharString>
        <CharString name="hungarumlaut">
          -306 1553 -20 22 -20 hstemhm
          92 672 hintmask 00000000
          hintmask 01100000
          92 1243 -49 callsubr
          rlineto
          hintmask 10100000
          -25 callgsubr
          endchar
        </CharString>
        <CharString name="hungarumlaut.case">
          -388 1620 341 hstem
          133 664 vstem
          133 1660 rmoveto
          49 -40 196 192 63 62 5 37 -28 31 rlinecurve
          -36 38 -55 -19 -48 -74 rrcurveto
          114 -213 rmoveto
          34 -50 290 164 81 44 9 43 -18 33 rlinecurve
          -23 42 -48 9 -81 -73 rrcurveto
          endchar
        </CharString>
        <CharString name="hyphen">
          -175 592 131 hstem
          129 733 vstem
          856 596 rmoveto
          6 127 rlineto
          -727 hlineto
          -6 -135 rlineto
          endchar
        </CharString>
        <CharString name="i">
          -62 callgsubr
        </CharString>
        <CharString name="iacute">
          -12 callgsubr
          276 1227 -98 callsubr
          -364 -751 rmoveto
          hintmask 11010000
          -73 callsubr
          hintmask 11100000
          -97 callsubr
          hintmask 11010000
          -57 callgsubr
          endchar
        </CharString>
        <CharString name="icircumflex">
          -12 callgsubr
          608 1260 rmoveto
          -258 329 rlineto
          -4 hlineto
          -324 -321 45 -54 258 224 rlineto
          5 hlineto
          225 -232 rlineto
          -484 -460 rmoveto
          hintmask 11010000
          -73 callsubr
          hintmask 11100000
          -97 callsubr
          hintmask 11010000
          -57 callgsubr
          endchar
        </CharString>
        <CharString name="idieresis">
          -500 -23 103 864 103 67 callgsubr
          80 callsubr
          -103 168 -88 166 -30 188 hintmask 00000000
          215 -71 callgsubr
          -445 -739 rmoveto
          hintmask 11110010
          -73 callsubr
          hintmask 11000100
          -97 callsubr
          hintmask 11001000
          -57 callgsubr
          endchar
        </CharString>
        <CharString name="igrave">
          -12 callgsubr
          370 -70 callgsubr
          -88 -659 rmoveto
          hintmask 11010000
          -73 callsubr
          hintmask 11100000
          -97 callsubr
          hintmask 11010000
          -57 callgsubr
          endchar
        </CharString>
        <CharString name="imacron">
          -500 -23 103 864 103 278 111 hstemhm
          198 168 -88 166 hintmask 00000000
          hintmask 11110000
          635 -7 callgsubr
          -21 -575 rmoveto
          hintmask 11101000
          -73 callsubr
          hintmask 11110000
          -97 callsubr
          hintmask 11101000
          -57 callgsubr
          endchar
        </CharString>
        <CharString name="infinity">
          550 276 148 -139 139 561 154 -123 133 hstemhm
          123 84 1315 86 hintmask 00000000
          hintmask 01011100
          1278 1149 rmoveto
          -165 -153 -130 -169 -88 hvcurveto
          hintmask 01101100
          189 -106 -109 100 -165 hhcurveto
          -217 -139 -183 -233 -13 hvcurveto
          -205 -10 86 -233 266 hhcurveto
          164 138 130 156 86 hvcurveto
          hintmask 10011100
          -231 134 111 -64 144 hhcurveto
          208 146 197 234 12 hvcurveto
          hintmask 01011100
          245 14 -98 197 -246 hhcurveto
          4 -133 rmoveto
          144 104 -129 -162 -8 hvcurveto
          hintmask 10011100
          -160 -8 -102 -141 -173 hhcurveto
          -151 -96 186 156 -77 hvcurveto
          hintmask 01011100
          185 126 116 65 125 hhcurveto
          hintmask 01101100
          -808 -31 rmoveto
          180 82 -194 -136 71 hvcurveto
          1 -2 0 -2 1 -1 rrcurveto
          -146 -94 -122 -80 -128 hhcurveto
          -157 -109 123 162 8 hvcurveto
          176 11 124 100 132 hhcurveto
          endchar
        </CharString>
        <CharString name="integral">
          -365 -555 84 1945 82 hstem
          -104 991 vstem
          278 -208 rmoveto
          -8 -164 -50 -91 -79 -8 -25 -3 -34 5 -12 9 3 63 -33 46 -56 1 rrcurveto
          -65 2 -23 -58 -33 vvcurveto
          -73 60 -43 107 267 104 201 269 12 vhcurveto
          64 1297 9 180 30 72 100 10 rlinecurve
          25 2 27 -4 12 -9 -3 -63 33 -46 56 -1 rrcurveto
          65 -2 23 58 33 vvcurveto
          73 -60 41 -107 -266 -98 -200 -269 -14 vhcurveto
          endchar
        </CharString>
        <CharString name="iogonek">
          -500 -526 98 420 -20 972 103 hstemhm
          96 215 -113 168 -88 166 hintmask 00000000
          199 1248 rmoveto
          56 54 51 68 2 hvcurveto
          66 4 -42 53 -60 hhcurveto
          -59 -54 -53 -66 -4 hvcurveto
          -68 -2 46 -51 59 hhcurveto
          380 -970 rmoveto
          hintmask 11110000
          -51 callsubr
          -45 -19 30 56 hvcurveto
          229 78 275 164 vvcurveto
          hintmask 11101000
          -57 callgsubr
          57 -12 rlineto
          -56 callsubr
          47 10 -57 -35 hvcurveto
          hintmask 11100100
          -233 -80 -212 -237 vvcurveto
          -92 32 -60 65 -26 vhcurveto
          hintmask 11101000
          -112 -80 -83 -107 -6 -122 rrcurveto
          -84 callsubr
          100 68 93 94 69 hvcurveto
          152 1 75 173 25 115 rrcurveto
          endchar
        </CharString>
        <CharString name="j">
          -63 callsubr
        </CharString>
        <CharString name="k">
          41 callsubr
          465 -81 callgsubr
          endchar
        </CharString>
        <CharString name="kcommaaccent">
          41 callsubr
          122 151 192 -81 callgsubr
          47 -645 -97 callgsubr
        </CharString>
        <CharString name="l">
          -584 33 callsubr
          hstem
          126 166 vstem
          380 31 callgsubr
          -75 callgsubr
          endchar
        </CharString>
        <CharString name="lacute">
          -584 33 callsubr
          hstem
          126 166 vstem
          181 1622 -98 callsubr
          40 -346 -32 callsubr
          -75 callgsubr
          endchar
        </CharString>
        <CharString name="lcaron">
          -457 33 callsubr
          hstem
          126 166 336 145 vstem
          609 1588 -50 callgsubr
          -370 -15 -32 callsubr
          -75 callgsubr
          endchar
        </CharString>
        <CharString name="lcommaaccent">
          -584 33 callsubr
          hstemhm
          126 166 -90 151 53 callsubr
          380 31 callgsubr
          hintmask 11110000
          -75 callgsubr
          hintmask 11101000
          -245 -1693 -97 callgsubr
        </CharString>
        <CharString name="less">
          -60 178 936 hstemhm
          66 940 -937 135 hintmask 00000000
          hintmask 11000000
          998 991 20 callsubr
          endchar
        </CharString>
        <CharString name="lessequal">
          -31 0 111 hstemhm
          76 967 -937 135 hintmask 00000000
          hintmask 11000000
          1035 1025 20 callsubr
          752 -572 rmoveto
          -912 hlineto
          -5 -111 rlineto
          912 hlineto
          endchar
        </CharString>
        <CharString name="logicalnot">
          34 584 121 hstem
          942 104 vstem
          1056 705 rmoveto
          -911 hlineto
          -6 -121 rlineto
          806 hlineto
          -5 -262 rlineto
          98 hlineto
          endchar
        </CharString>
        <CharString name="lozenge">
          -171 60 callsubr
          82 850 vstem
          932 805 rmoveto
          -348 751 rlineto
          -53 hlineto
          -447 -765 -2 -54 359 -770 rlineto
          53 hlineto
          436 785 rlineto
          -383 657 rmoveto
          4 hlineto
          281 -631 -352 -649 rlineto
          -4 hlineto
          -297 641 rlineto
          endchar
        </CharString>
        <CharString name="lslash">
          -578 33 callsubr
          hstem
          131 166 vstem
          385 31 callgsubr
          -23 -169 -27 -226 -22 -212 -167 -116 rcurveline
          -6 -115 162 114 -19 -195 -12 -168 2 -76 rlinecurve
          -110 2 51 -57 111 hhcurveto
          164 83 192 96 19 hvcurveto
          -59 47 callgsubr
          -62 -53 -45 hhcurveto
          -53 -4 55 53 106 16 203 20 209 hvcurveto
          195 137 7 110 -190 -132 15 139 15 135 14 104 rlinecurve
          83 callsubr
        </CharString>
        <CharString name="m">
          -90 callgsubr
        </CharString>
        <CharString name="macron">
          -431 1325 111 hstem
          92 549 vstem
          635 -7 callgsubr
          endchar
        </CharString>
        <CharString name="minus">
          32 522 133 hstem
          137 917 vstem
          1054 655 rmoveto
          -911 hlineto
          -6 -133 rlineto
          911 hlineto
          endchar
        </CharString>
        <CharString name="mu">
          -65 callsubr
        </CharString>
        <CharString name="multiply">
          -70 176 918 hstem
          76 942 vstem
          1018 1006 rmoveto
          -69 88 -397 -370 -334 359 -88 -92 329 -354 -383 -358 78 -91 384 364 351 -376 86 94 -344 369 rlineto
          endchar
        </CharString>
        <CharString name="n">
          -11 callsubr
          401 580 -94 callsubr
        </CharString>
        <CharString name="nacute">
          -11 callsubr
          559 1227 -98 callsubr
          -317 -917 -94 callsubr
        </CharString>
        <CharString name="ncaron">
          96 3 callgsubr
          477 -20 5 callsubr
          hintmask 00000000
          hintmask 10110101
          1029 1524 -66 callgsubr
          -286 -608 -46 callgsubr
          hintmask 11010101
          -42 callsubr
          -2 39 callsubr
          hintmask 10111001
          -89 callgsubr
          hintmask 10110110
          -86 callsubr
          hintmask 10110101
          -42 callgsubr
          endchar
        </CharString>
        <CharString name="ncommaaccent">
          96 3 callgsubr
          23 callgsubr
          76 151 143 170 -107 85 callgsubr
          hintmask 10101101
          401 580 -46 callgsubr
          hintmask 11001101
          -42 callsubr
          -2 39 callsubr
          hintmask 10110101
          -89 callgsubr
          hintmask 10101110
          -86 callsubr
          hintmask 10101101
          -42 callgsubr
          94 -727 -97 callgsubr
        </CharString>
        <CharString name="nine">
          -34 -33 78 496 92 755 79 hstemhm
          119 186 -178 186 542 175 hintmask 00000000
          hintmask 11110100
          598 64 callgsubr
          -295 5 -170 -217 -14 -256 rrcurveto
          -206 -10 69 -252 328 hhcurveto
          160 115 81 90 71 hvcurveto
          -229 -11 -61 -438 -305 hhcurveto
          hintmask 11101100
          -135 -46 72 53 -16 hvcurveto
          23 18 12 40 23 vvcurveto
          46 -32 43 -56 -52 -41 -39 -58 -5 vhcurveto
          -128 -10 111 -148 249 hhcurveto
          459 82 475 299 12 hvcurveto
          hintmask 11110100
          16 392 -85 330 -363 4 rrcurveto
          -18 -79 rmoveto
          222 50 -263 -274 3 hvcurveto
          -115 -47 -130 -103 -125 hhcurveto
          -229 -27 258 153 8 hvcurveto
          181 9 90 163 176 hhcurveto
          endchar
        </CharString>
        <CharString name="noBreak">
          -625 endchar
        </CharString>
        <CharString name="nonmarkingreturn">
          -625 endchar
        </CharString>
        <CharString name="notequal">
          -40 368 114 278 116 hstem
          90 938 vstem
          954 1065 rmoveto
          -84 65 -182 -254 rlineto
          -572 hlineto
          -6 -116 rlineto
          496 hlineto
          -198 -276 rlineto
          -312 hlineto
          -6 -117 rlineto
          234 hlineto
          -158 -220 79 -63 205 284 rlineto
          551 hlineto
          6 114 rlineto
          -473 hlineto
          201 280 rlineto
          287 hlineto
          6 113 rlineto
          -211 hlineto
          endchar
        </CharString>
        <CharString name="ntilde">
          96 3 callgsubr
          217 106 2 105 -27 -20 5 callsubr
          hintmask 0000000000000000
          421 -1 callsubr
          hintmask 1010100101000000
          -1 callgsubr
          hintmask 1011010101000000
          8 callgsubr
          31 -727 -46 callgsubr
          hintmask 1010100101000000
          -42 callsubr
          -2 39 callsubr
          hintmask 1101010101000000
          -89 callgsubr
          hintmask 1011011001000000
          -86 callsubr
          hintmask 1011010110000000
          -42 callgsubr
          endchar
        </CharString>
        <CharString name="numbersign">
          491 365 122 474 122 351 -20 hstem
          53 1563 vstem
          1273 1083 rmoveto
          74 callsubr
          -435 hlineto
          74 callsubr
          -341 hlineto
          -33 -122 rlineto
          345 hlineto
          -111 -474 rlineto
          -336 hlineto
          -33 -122 rlineto
          340 hlineto
          -86 -365 rlineto
          147 hlineto
          83 365 rlineto
          429 hlineto
          -86 -365 rlineto
          148 hlineto
          82 365 rlineto
          338 hlineto
          32 122 rlineto
          -342 hlineto
          107 474 rlineto
          340 hlineto
          31 120 rlineto
          2 vlineto
          -944 -122 rmoveto
          434 hlineto
          -111 -474 rlineto
          -431 hlineto
          endchar
        </CharString>
        <CharString name="o">
          -26 callsubr
          586 1047 -105 callsubr
        </CharString>
        <CharString name="oacute">
          -26 callsubr
          465 1227 -98 callsubr
          -38 -450 -105 callsubr
        </CharString>
        <CharString name="ocircumflex">
          -26 callsubr
          937 -54 callsubr
          -300 -159 -105 callsubr
        </CharString>
        <CharString name="odieresis">
          -97 -23 78 916 76 67 callgsubr
          80 180 80 callsubr
          80 callsubr
          -67 180 hintmask 00000000
          hintmask 11111010
          475 1485 rmoveto
          -100 callsubr
          hintmask 11111100
          301 hmoveto
          -100 callsubr
          hintmask 11111010
          -190 -438 -105 callsubr
        </CharString>
        <CharString name="oe">
          468 -23 80 -80 103 891 76 -71 71 hstemhm
          82 174 498 161 433 163 hintmask 00000000
          hintmask 10101110
          848 831 rmoveto
          -47 135 -100 79 -134 2 rrcurveto
          -315 4 -170 -283 -332 vvcurveto
          -254 102 -205 271 143 133 96 109 68 vhcurveto
          4 hlineto
          hintmask 01101110
          -139 58 120 -66 131 hhcurveto
          186 145 97 215 115 hvcurveto
          -68 38 -90 -172 -148 -85 -116 10 rlinecurve
          -111 10 -120 99 11 285 rrcurveto
          290 27 305 101 221 vvcurveto
          182 -152 42 -145 -160 -142 -116 -100 -58 vhcurveto
          hintmask 10011110
          330 145 rmoveto
          97 9 67 -45 -110 vvcurveto
          -185 -238 -74 -195 -27 vhcurveto
          13 221 115 198 141 13 rrcurveto
          hintmask 10101110
          -651 -5 rmoveto
          227 -4 -2 -318 -4 -141 -6 -227 -76 -226 -199 2 -188 2 -33 256 4 189 4 262 90 209 183 -4 rrcurveto
          endchar
        </CharString>
        <CharString name="ogonek">
          -539 -526 98 hstem
          94 129 vstem
          532 109 rmoveto
          -213 -68 -215 -158 -10 -200 rrcurveto
          -84 callsubr
          146 146 133 159 61 hvcurveto
          endchar
        </CharString>
        <CharString name="ograve">
          -26 callsubr
          681 -70 callgsubr
          116 -358 -105 callsubr
        </CharString>
        <CharString name="ohungarumlaut">
          -97 -23 78 916 76 506 -20 22 -20 hstemhm
          80 180 535 180 hintmask 00000000
          hintmask 11011100
          282 1243 -49 callsubr
          rlineto
          hintmask 11101100
          -25 callgsubr
          -208 -448 -105 callsubr
        </CharString>
        <CharString name="omacron">
          -97 -23 78 916 76 278 111 hstem
          80 180 535 180 vstem
          887 -7 callgsubr
          242 -274 -105 callsubr
        </CharString>
        <CharString name="one">
          -439 0 86 1381 -20 hstem
          63 565 vstem
          532 64 callgsubr
          -70 hlineto
          -399 -296 37 -60 250 157 rlineto
          4 hlineto
          -45 -967 -6 -141 -43 -86 -142 -6 rlinecurve
          -2 -68 rlineto
          508 -33 callsubr
          -172 -8 9 39 2 49 2 53 rlinecurve
          endchar
        </CharString>
        <CharString name="onehalf">
          338 9 105 523 68 74 70 618 -20 hstem
          274 114 518 117 244 139 vstem
          -44 callsubr
          886 65 callsubr
          1160 42 -45 callsubr
        </CharString>
        <CharString name="onequarter">
          306 8 68 147 79 335 68 762 -20 hstemhm
          274 114 755 109 -94 115 hintmask 00000000
          hintmask 11111010
          -44 callsubr
          904 65 callsubr
          790 41 rmoveto
          hintmask 11111100
          44 callgsubr
          hintmask 11111010
          9 callgsubr
          hintmask 11111100
          45 callgsubr
          hintmask 11111010
          18 callgsubr
        </CharString>
        <CharString name="onesuperior">
          -611 637 68 762 -20 hstem
          274 114 vstem
          -44 callsubr
          endchar
        </CharString>
        <CharString name="ordfeminine">
          -341 779 76 -76 82 549 57 0 -20 hstemhm
          131 114 275 108 hintmask 00000000
          544 1070 rmoveto
          -14 -66 -10 -59 -49 vvcurveto
          hintmask 01101100
          -72 24 -45 70 104 37 98 74 19 vhcurveto
          -45 10 rlineto
          -92 -27 -27 -14 -24 hhcurveto
          -23 0 31 37 84 31 231 27 207 hvcurveto
          hintmask 10011100
          14 -56 -77 8 -52 hhcurveto
          -254 -116 -219 -244 -163 61 -62 94 72 100 35 256 82 hvcurveto
          -80 340 rmoveto
          41 2 37 -10 21 -10 -8 -232 -127 -313 -109 14 rrcurveto
          -43 6 -27 49 111 vvcurveto
          193 58 182 157 8 vhcurveto
          endchar
        </CharString>
        <CharString name="ordmasculine">
          -423 769 64 573 61 hstem
          125 123 315 123 vstem
          442 1467 -29 callgsubr
          endchar
        </CharString>
        <CharString name="oslash">
          -26 callsubr
          1002 1092 rmoveto
          -84 59 -114 -169 rlineto
          42 -62 -74 23 -82 hhcurveto
          -315 -191 -279 -332 -142 38 -126 80 -84 hvcurveto
          -128 -190 65 -52 130 188 rlineto
          -34 56 69 -19 83 hhcurveto
          318 184 291 330 133 -36 106 -61 76 hvcurveto
          -582 -684 rmoveto
          -29 85 -9 102 2 88 4 262 109 208 182 -3 81 -1 55 -41 37 -60 rrcurveto
          44 -108 rmoveto
          19 -72 5 -81 -1 -73 -4 -199 -82 -285 -217 4 -67 1 -49 33 -35 50 rrcurveto
          endchar
        </CharString>
        <CharString name="otilde">
          -97 -23 78 916 76 217 106 2 105 -27 -20 hstemhm
          80 180 535 180 hintmask 00000000
          327 -1 callsubr
          hintmask 11010110
          -1 callgsubr
          hintmask 11101110
          8 callgsubr
          310 -260 -105 callsubr
        </CharString>
        <CharString name="p">
          -80 callgsubr
        </CharString>
        <CharString name="paragraph">
          -160 1347 86 hstem
          102 753 vstem
          751 -522 rmoveto
          104 1956 rlineto
          -448 hlineto
          -145 -149 -103 -196 -11 hvcurveto
          -12 -210 150 -79 134 -10 -74 -1358 rcurveline
          136 hlineto
          101 1867 178 5 -99 -1872 rlineto
          endchar
        </CharString>
        <CharString name="parenleft">
          -554 1557 -20 hstem
          61 194 vstem
          526 -507 rmoveto
          -197 280 -92 332 21 385 20 385 127 354 223 281 -47 47 rcurveline
          -211 -186 -284 -426 -25 -455 -22 -455 239 -403 195 -186 rrcurveto
          endchar
        </CharString>
        <CharString name="parenright">
          -554 60 callsubr
          340 194 vstem
          69 1509 rmoveto
          197 -280 92 -332 -21 -385 -20 -385 -127 -354 -223 -281 47 -47 rcurveline
          211 186 284 426 25 455 22 455 -239 403 -195 186 rrcurveto
          endchar
        </CharString>
        <CharString name="partialdiff">
          -134 -23 78 893 82 454 72 -3 -20 hstemhm
          60 174 538 161 hintmask 00000000
          hintmask 11101100
          297 1484 rmoveto
          389 11 79 -277 7 -278 -51 58 -73 29 -76 3 -252 8 -240 -235 -20 -375 rrcurveto
          -297 -15 156 -154 184 hhcurveto
          266 250 183 553 29 hvcurveto
          hintmask 11011100
          25 483 -152 398 -502 -41 rrcurveto
          467 -832 rmoveto
          -252 -14 -92 -414 -236 hhcurveto
          -119 -88 141 254 15 hvcurveto
          326 16 174 172 143 hhcurveto
          93 69 -39 -94 43 hvcurveto
          endchar
        </CharString>
        <CharString name="percent">
          624 74 callgsubr
          104 60 callgsubr
          102 60 callgsubr
          hintmask 00000000
          hintmask 10111111
          496 64 callgsubr
          -240 -4 -141 -202 -11 -191 rrcurveto
          -197 -10 117 -186 244 hhcurveto
          209 178 191 211 10 hvcurveto
          4 callsubr
          47 callsubr
          104 4 54 187 154 hhcurveto
          hintmask 11011111
          852 -644 rmoveto
          -37 callsubr
          -2 -78 rmoveto
          -28 callgsubr
          endchar
        </CharString>
        <CharString name="period">
          -689 -33 258 hstem
          88 233 vstem
          215 225 -72 callsubr
          endchar
        </CharString>
        <CharString name="periodcentered">
          -679 538 258 hstem
          129 233 vstem
          256 796 -72 callsubr
          endchar
        </CharString>
        <CharString name="perthousand">
          1443 74 callgsubr
          108 60 callgsubr
          102 60 callgsubr
          71 60 callgsubr
          hintmask 0000000000000000
          hintmask 1101111111000000
          500 64 callgsubr
          -240 -4 -141 -202 -11 -191 rrcurveto
          hintmask 0010110000000000
          -197 -10 117 -186 244 hhcurveto
          209 178 191 211 10 hvcurveto
          hintmask 1101111111000000
          4 callsubr
          hintmask 0010110000000000
          47 callsubr
          hintmask 1101111111000000
          104 4 54 187 154 hhcurveto
          852 -644 rmoveto
          -37 callsubr
          819 hmoveto
          -37 callsubr
          -821 -78 rmoveto
          -28 callgsubr
          819 hmoveto
          -28 callgsubr
          endchar
        </CharString>
        <CharString name="pi">
          20 -33 110 -110 185 717 125 -77 130 -127 127 hstemhm
          20 1115 -374 165 hintmask 00000000
          hintmask 01001100
          1103 1047 rmoveto
          hintmask 01100100
          -42 -79 -52 -11 -70 hhcurveto
          hintmask 01001100
          -156 -162 53 -211 hhcurveto
          -129 -92 -63 -70 -61 hvcurveto
          31 -45 73 34 46 16 107 1 rlinecurve
          -11 -218 -20 -540 -129 -47 rrcurveto
          25 -20 -26 12 -33 hhcurveto
          -46 -43 -38 -56 -52 42 -39 58 221 42 333 212 19 hvcurveto
          hintmask 01010100
          12 134 5 158 6 113 rrcurveto
          hintmask 10100010
          119 -9 114 -31 144 -8 -41 -689 rcurveline
          -76 -5 -2 -137 146 hhcurveto
          78 82 55 47 38 hvcurveto
          -24 33 rlineto
          -17 -25 -26 -8 -19 hhcurveto
          -57 -29 49 142 8 hvcurveto
          32 613 rlineto
          hintmask 01001100
          84 26 62 58 31 39 rrcurveto
          endchar
        </CharString>
        <CharString name="plus">
          -117 592 113 -111 108 hstemhm
          450 123 -95 123 hintmask 00000000
          591 702 rmoveto
          22 410 rlineto
          -123 hlineto
          hintmask 01010000
          -22 -407 rlineto
          -394 hlineto
          -6 -113 rlineto
          hintmask 10010000
          394 hlineto
          -23 -424 rlineto
          123 hlineto
          hintmask 10100000
          23 426 rlineto
          395 hlineto
          6 108 rlineto
          endchar
        </CharString>
        <CharString name="plusminus">
          -1 0 111 509 109 328 -20 hstemhm
          531 123 hintmask 00000000
          646 729 rmoveto
          17 328 rlineto
          -123 hlineto
          -17 -326 rlineto
          -392 hlineto
          -6 -113 rlineto
          hintmask 11110000
          392 hlineto
          -18 -342 rlineto
          123 hlineto
          18 344 rlineto
          396 hlineto
          6 109 rlineto
          -39 -729 rmoveto
          6 111 rlineto
          -911 hlineto
          -6 -111 rlineto
          endchar
        </CharString>
        <CharString name="product">
          471 -522 86 1784 85 -2 callgsubr
          254 179 763 178 66 callsubr
          1515 40 callsubr
          -1402 -91 hlineto
          148 9 rlineto
          -5 -41 -2 -51 -56 vvcurveto
          -1407 vlineto
          -145 13 81 callgsubr
          -148 -8 rlineto
          5 35 2 53 74 vvcurveto
          1622 vlineto
          763 9 rlineto
          -1556 vlineto
          -145 12 81 callgsubr
          -147 -8 rlineto
          4 35 2 53 74 vvcurveto
          1392 vlineto
          hintmask 10111000
          146 -12 100 153 6 vhcurveto
          endchar
        </CharString>
        <CharString name="q">
          -103 -522 61 438 96 904 70 0 -20 hstemhm
          78 176 53 callsubr
          738 426 rmoveto
          -25 -186 -23 -209 -16 -205 rrcurveto
          -160 -12 2 -127 -115 hhcurveto
          -61 387 84 vlineto
          -129 -6 12 47 5 67 4 56 rlinecurve
          hintmask 11011000
          24 362 66 594 26 344 rrcurveto
          hintmask 11101000
          13 -61 -137 8 -68 hhcurveto
          -395 -4 -207 -287 2 -399 2 -215 90 -168 189 3 121 2 143 70 108 377 rrcurveto
          -86 551 rmoveto
          54 51 -6 -12 41 hvcurveto
          -19 -365 -176 -519 -194 -2 rrcurveto
          -113 -33 136 187 -2 hvcurveto
          -2 249 105 328 288 4 rrcurveto
          endchar
        </CharString>
        <CharString name="question">
          -195 385 94 908 80 hstemhm
          104 189 7 138 -102 221 175 185 hintmask 00000000
          hintmask 11010100
          597 494 rmoveto
          -11 -26 -33 -4 -19 hhcurveto
          -65 -18 35 33 2 hvcurveto
          8 137 438 148 31 277 rrcurveto
          172 20 -88 186 -315 hhcurveto
          hintmask 11100100
          -258 -170 -172 -123 -60 42 -41 54 56 37 44 48 25 -6 34 -24 22 hvcurveto
          62 14 101 81 119 hhcurveto
          192 54 -124 -148 -11 hvcurveto
          hintmask 11010100
          -26 -313 -395 -95 -11 -185 rrcurveto
          -100 -4 107 -37 51 hhcurveto
          61 58 10 27 45 hvcurveto
          hintmask 11001100
          -163 -213 rmoveto
          -57 -58 -55 -66 -4 hvcurveto
          -76 -2 49 -45 58 hhcurveto
          63 51 54 67 2 hvcurveto
          66 5 -45 55 -62 hhcurveto
          endchar
        </CharString>
        <CharString name="questiondown">
          -212 -443 80 908 94 418 -20 hstemhm
          26 185 175 221 -102 138 7 189 hintmask 00000000
          488 815 rmoveto
          57 58 55 66 4 hvcurveto
          76 2 -49 45 -58 hhcurveto
          -63 -51 -54 -67 -2 hvcurveto
          -66 -5 45 -55 62 hhcurveto
          -142 -285 rmoveto
          hintmask 11111000
          11 26 33 4 19 hhcurveto
          65 18 -35 -33 -2 hvcurveto
          -8 -137 -438 -148 -31 -277 rrcurveto
          -172 -20 88 -186 315 hhcurveto
          hintmask 11110100
          258 170 172 123 60 -42 41 -54 -56 -37 -44 -48 -25 6 -34 24 -22 hvcurveto
          -62 -14 -101 -81 -119 hhcurveto
          -192 -54 124 148 11 hvcurveto
          hintmask 10110010
          26 313 395 95 11 185 rrcurveto
          100 4 -107 37 -51 hhcurveto
          -61 -58 -10 -27 -45 hvcurveto
          endchar
        </CharString>
        <CharString name="quotedbl">
          -435 1467 -20 hstem
          162 505 vstem
          289 1006 rmoveto
          75 callgsubr
          461 hmoveto
          75 callgsubr
          endchar
        </CharString>
        <CharString name="quotedblbase">
          -318 229 hmoveto
          -96 callsubr
          363 hmoveto
          -96 callsubr
          endchar
        </CharString>
        <CharString name="quotedblleft">
          -369 982 210 357 -20 hstem
          135 105 256 105 vstem
          240 1183 rmoveto
          -35 callsubr
          358 hmoveto
          -35 callsubr
          endchar
        </CharString>
        <CharString name="quotedblright">
          -402 266 1355 rmoveto
          -96 callsubr
          363 hmoveto
          -96 callsubr
          endchar
        </CharString>
        <CharString name="quoteleft">
          -732 982 210 357 -20 hstem
          135 105 vstem
          240 1183 rmoveto
          -35 callsubr
          endchar
        </CharString>
        <CharString name="quoteright">
          -763 266 1355 rmoveto
          -96 callsubr
          endchar
        </CharString>
        <CharString name="quotesinglbase">
          -679 229 hmoveto
          -96 callsubr
          endchar
        </CharString>
        <CharString name="quotesingle">
          -756 1467 -20 hstem
          162 183 vstem
          298 1006 rmoveto
          47 461 rlineto
          -172 hlineto
          -11 -461 rlineto
          endchar
        </CharString>
        <CharString name="r">
          49 callgsubr
          26 callgsubr
          hintmask 01010000
          400 600 -58 callgsubr
          hintmask 10101000
          -59 callsubr
          hintmask 01011000
          12 callgsubr
          endchar
        </CharString>
        <CharString name="racute">
          49 callgsubr
          26 callgsubr
          hintmask 01010000
          385 1227 -98 callsubr
          -144 -897 -58 callgsubr
          hintmask 10101000
          -59 callsubr
          hintmask 01011000
          12 callgsubr
          endchar
        </CharString>
        <CharString name="radical">
          548 953 71 665 76 hstem
          14 1837 vstem
          1843 1686 rmoveto
          8 79 rlineto
          -616 hlineto
          -596 -1531 -219 790 rlineto
          -398 hlineto
          -8 -68 256 -6 3 -33 14 -49 26 -88 rlinecurve
          232 -786 rlineto
          92 hlineto
          663 1698 rlineto
          endchar
        </CharString>
        <CharString name="rcaron">
          49 callgsubr
          477 -20 26 callgsubr
          hintmask 01101000
          855 1524 -66 callgsubr
          -113 -588 -58 callgsubr
          hintmask 10110100
          -59 callsubr
          hintmask 01101100
          12 callgsubr
          endchar
        </CharString>
        <CharString name="rcommaaccent">
          49 callgsubr
          hstemhm
          205 168 -151 151 -97 155 316 189 hintmask 00000000
          hintmask 01001000
          400 600 -58 callgsubr
          hintmask 10100100
          -59 callsubr
          hintmask 01010100
          12 callgsubr
          -192 -747 -97 callgsubr
        </CharString>
        <CharString name="registered">
          630 -102 98 274 70 -61 79 302 85 395 89 213 94 hstemhm
          94 131 406 145 355 149 303 131 hintmask 0000000000000000
          hintmask 1011111111000000
          -41 callsubr
          -387 -307 rmoveto
          102 10 -4 -27 -2 -35 -2 -36 rlinecurve
          -28 -535 -5 -96 -2 -66 -100 -2 rlinecurve
          -4 -69 rlineto
          338 81 hlineto
          -98 -4 4 25 4 33 2 47 rlinecurve
          10 205 23 -4 63 -3 27 1 rlinecurve
          38 -60 50 -83 53 -83 rrcurveto
          hintmask 1101111111000000
          61 -94 43 -59 41 -11 rrcurveto
          168 hlineto
          4 70 rlineto
          -59 -39 25 231 -141 hvcurveto
          -30 48 -26 24 -23 11 rrcurveto
          2 vlineto
          196 52 60 133 5 92 6 142 -98 123 -262 6 -105 2 -166 -6 -100 -4 rrcurveto
          215 -473 rmoveto
          12 221 5 98 0 65 100 9 rlinecurve
          127 12 124 -68 -7 -133 -8 -151 -154 -51 -96 -5 -35 -2 -33 2 -33 3 rrcurveto
          endchar
        </CharString>
        <CharString name="ring">
          -572 1167 58 276 58 hstem
          94 105 194 105 vstem
          305 1559 -77 callsubr
          endchar
        </CharString>
        <CharString name="s">
          -67 callsubr
        </CharString>
        <CharString name="sacute">
          -287 -23 76 926 68 -8 callsubr
          hintmask 11010100
          330 1227 -98 callsubr
          hintmask 11011000
          -24 -450 16 callsubr
          hintmask 11010100
          -26 callgsubr
          hintmask 11100100
          -64 callgsubr
          hintmask 11010100
          -16 callgsubr
          hintmask 11011000
          -60 callsubr
          vhcurveto
          endchar
        </CharString>
        <CharString name="scaron">
          -287 -23 76 926 68 477 -20 -8 callsubr
          hintmask 11101010
          800 1524 -66 callgsubr
          hintmask 11101100
          7 -141 16 callsubr
          hintmask 11101010
          -26 callgsubr
          hintmask 11110010
          -64 callgsubr
          hintmask 11101010
          -16 callgsubr
          hintmask 11101100
          -60 callsubr
          vhcurveto
          endchar
        </CharString>
        <CharString name="scedilla">
          -287 -209 90 98 74 71 callsubr
          249 152 -72 168 -161 85 callgsubr
          hintmask 11101001
          287 -205 rmoveto
          69 -35 rlineto
          hintmask 11101100
          -81 callsubr
          49 138 rlineto
          hintmask 11101001
          196 20 131 119 157 -16 callgsubr
          hintmask 11101010
          -60 callsubr
          -211 -143 -127 -150 vhcurveto
          hintmask 11101001
          -26 callgsubr
          hintmask 11110001
          -74 -76 35 59 -21 hvcurveto
          14 22 4 21 20 vvcurveto
          44 -29 43 -54 -50 -39 -41 -60 -129 136 -76 150 -12 vhcurveto
          endchar
        </CharString>
        <CharString name="scommaaccent">
          -287 -23 76 71 callsubr
          39 151 139 168 -161 85 callgsubr
          465 1047 16 callsubr
          hintmask 11011100
          -26 callgsubr
          hintmask 11011010
          -64 callgsubr
          hintmask 11101010
          -16 callgsubr
          hintmask 11011010
          -60 callsubr
          vhcurveto
          hintmask 11011100
          -163 -1194 -97 callgsubr
        </CharString>
        <CharString name="section">
          -91 -466 78 1866 78 hstemhm
          75 157 -141 151 -41 142 377 139 -41 151 hintmask 00000000
          611 1556 rmoveto
          -291 -110 -223 -131 -9 hvcurveto
          -7 -96 29 -73 48 -61 rrcurveto
          hintmask 11001010
          -119 -97 -71 -135 -6 -114 -18 -237 212 -118 184 -119 179 -116 109 -77 -24 -154 rrcurveto
          -90 -14 -65 -103 -189 hhcurveto
          hintmask 11100100
          -104 -105 61 66 2 hvcurveto
          15 18 10 25 27 vvcurveto
          40 -23 44 -59 -61 -31 -52 -53 -2 vhcurveto
          -125 -4 143 -129 219 hhcurveto
          291 111 216 131 8 hvcurveto
          7 100 -31 76 -52 62 124 95 74 134 7 117 rrcurveto
          hintmask 11010100
          27 432 -697 18 25 350 rrcurveto
          90 6 74 123 188 hhcurveto
          105 104 -61 -66 -2 hvcurveto
          -14 -18 -11 -25 -26 vvcurveto
          -41 23 -43 59 62 30 51 53 2 vhcurveto
          125 5 -144 129 -219 hhcurveto
          hintmask 11001010
          -296 -631 rmoveto
          188 -176 352 -68 -23 -292 -6 -79 -30 -87 -54 -60 -188 175 -346 73 24 291 5 73 28 87 50 63 rrcurveto
          endchar
        </CharString>
        <CharString name="semicolon">
          -609 -9 210 856 -20 hstemhm
          166 233 hintmask 00000000
          293 1057 -72 callsubr
          hintmask 11100000
          -13 -1057 rmoveto
          -96 callsubr
          endchar
        </CharString>
        <CharString name="seven">
          -238 1294 140 hstem
          66 872 vstem
          938 40 callsubr
          -858 hlineto
          -14 -291 rlineto
          49 hlineto
          6 112 66 38 110 1 rrcurveto
          540 hlineto
          -145 -280 -152 -347 -87 -192 -61 -135 -97 -193 -4 -88 -2 -49 18 -39 54 -4 65 -4 31 64 20 67 148 481 86 316 221 407 rrcurveto
          endchar
        </CharString>
        <CharString name="six">
          -29 -33 80 758 90 494 78 hstemhm
          109 176 555 193 -188 186 hintmask 00000000
          687 64 callgsubr
          -467 -8 -90 -539 -17 -244 rrcurveto
          -434 -29 111 -275 348 hhcurveto
          hintmask 11110100
          275 202 213 256 13 hvcurveto
          207 12 -82 252 -328 hhcurveto
          -154 -114 -80 -90 -73 hvcurveto
          18 195 63 462 312 7 rrcurveto
          hintmask 11111000
          110 3 64 -64 12 -47 rrcurveto
          -20 -24 -8 -32 -23 vvcurveto
          -46 34 -42 56 52 40 38 58 4 vhcurveto
          7 105 -108 156 -243 -4 rrcurveto
          hintmask 11110100
          -88 -662 rmoveto
          229 20 -260 -154 -8 hvcurveto
          -180 -8 -94 -164 -193 hhcurveto
          -214 -51 270 258 5 hvcurveto
          120 44 139 110 131 hhcurveto
          endchar
        </CharString>
        <CharString name="slash">
          175 60 callsubr
          -37 1393 vstem
          1356 1480 rmoveto
          -113 76 -1280 -2043 97 -68 rlineto
          endchar
        </CharString>
        <CharString name="space">
          -625 endchar
        </CharString>
        <CharString name="sterling">
          -44 -33 150 39 76 407 98 654 76 hstemhm
          244 157 -90 140 337 160 hintmask 00000000
          hintmask 11110110
          127 737 rmoveto
          -6 -98 rlineto
          167 hlineto
          16 -73 12 -71 -5 -87 -4 -79 -28 -73 -35 -49 -103 -28 -78 -63 -4 -74 rrcurveto
          -38 -2 30 -37 49 hhcurveto
          66 66 82 105 17 hvcurveto
          2 10 12 0 10 185 127 -189 172 hhcurveto
          133 76 115 164 16 hvcurveto
          -63 hlineto
          -88 -13 -43 -41 -61 -92 -135 115 -179 hhcurveto
          -39 -38 -3 -5 -37 hvcurveto
          69 78 51 94 5 91 3 53 -3 50 -5 49 rrcurveto
          295 hlineto
          7 98 rlineto
          hintmask 11111010
          -315 hlineto
          -17 113 -23 111 8 139 rrcurveto
          151 8 93 140 153 hhcurveto
          97 51 -61 -53 12 hvcurveto
          -23 -22 -4 -30 -22 vvcurveto
          -29 21 -51 59 2 vhcurveto
          50 1 30 39 55 vvcurveto
          90 -63 157 -242 -219 -166 -177 -272 -14 vhcurveto
          -6 -115 12 -87 16 -79 rrcurveto
          endchar
        </CharString>
        <CharString name="summation">
          161 -522 79 1788 88 -77 77 hstemhm
          1111 69 -59 72 hintmask 00000000
          hintmask 10101000
          1189 77 callsubr
          -1082 hlineto
          hintmask 11010000
          -4 -91 95 5 3 -26 13 -36 29 -59 rlinecurve
          382 -799 -452 -727 -35 -55 -61 -80 -52 2 rlinecurve
          -4 -90 rlineto
          1119 hlineto
          32 399 rlineto
          -69 hlineto
          -13 -241 -118 -86 -177 4 -617 6 rcurveline
          38 44 36 55 38 61 481 786 rcurveline
          hintmask 10101000
          -354 758 -14 30 -17 30 -18 28 rlinecurve
          485 10 153 3 119 -48 -12 -242 rlinecurve
          endchar
        </CharString>
        <CharString name="t">
          26 callsubr
          68 callsubr
          444 1313 rmoveto
          28 callsubr
          hintmask 11010000
          -40 callgsubr
          hintmask 10110000
          14 callgsubr
          endchar
        </CharString>
        <CharString name="tcaron">
          26 callsubr
          348 145 84 callsubr
          669 1676 -50 callgsubr
          -366 -336 rmoveto
          28 callsubr
          hintmask 11011000
          -40 callgsubr
          hintmask 10111000
          14 callgsubr
          endchar
        </CharString>
        <CharString name="thorn">
          -115 -522 61 438 72 902 96 366 78 55 -20 hstem
          778 176 vstem
          342 32 callsubr
          149 8 -8 -47 -4 -43 -4 -59 rlinecurve
          -42 -551 -23 -326 -39 -567 rrcurveto
          -160 -10 0 -125 -115 hhcurveto
          -61 387 84 vlineto
          -129 -6 13 47 0 67 4 56 rlinecurve
          12 259 rlineto
          -6 47 43 -2 33 hhcurveto
          405 162 314 377 198 -67 181 -189 -123 -164 -41 -396 -108 hvcurveto
          -6 2 20 217 20 191 18 180 rlinecurve
          10 92 18 140 18 114 rrcurveto
          238 -595 rmoveto
          96 4 39 -117 4 -187 4 -249 -61 -349 -299 -4 rrcurveto
          -54 -71 14 33 -33 hvcurveto
          8 342 172 504 195 9 rrcurveto
          endchar
        </CharString>
        <CharString name="three">
          -48 -33 88 660 88 584 80 hstemhm
          63 192 -114 179 462 193 -166 203 hintmask 00000000
          hintmask 11101100
          398 803 rmoveto
          -5 -92 rlineto
          2 43 37 2 55 hhcurveto
          hintmask 11110010
          254 33 -211 -119 -6 hvcurveto
          -203 -10 -123 -127 -205 hhcurveto
          -107 -113 41 92 -23 hvcurveto
          21 26 6 31 25 vvcurveto
          47 -35 45 -57 -54 -41 -39 -60 -5 vhcurveto
          -132 -10 135 -164 295 hhcurveto
          258 256 154 278 15 hvcurveto
          10 193 -133 156 -262 22 rrcurveto
          hintmask 11101100
          235 57 106 155 7 131 rrcurveto
          258 14 -195 96 -217 hhcurveto
          -282 -154 -184 -123 -59 39 -36 51 52 37 41 46 24 -5 31 -21 25 hvcurveto
          69 18 106 86 127 hhcurveto
          196 49 -129 -168 -8 hvcurveto
          -112 -6 -79 -175 -215 hhcurveto
          endchar
        </CharString>
        <CharString name="threequarters">
          460 8 68 147 79 325 36 callgsubr
          640 109 -94 115 hintmask 0000000000000000
          hintmask 1111101010100000
          21 callsubr
          hintmask 1111110010100000
          -4 callsubr
          hintmask 1111101101000000
          -18 callgsubr
          1079 310 rmoveto
          -72 55 -1026 -1453 63 -47 rlineto
          812 41 rmoveto
          44 callgsubr
          hintmask 1111101010100000
          9 callgsubr
          hintmask 1111101011000000
          45 callgsubr
          hintmask 1111101010100000
          18 callgsubr
        </CharString>
        <CharString name="threesuperior">
          -431 627 36 callgsubr
          hintmask 00000000
          hintmask 11101010
          21 callsubr
          hintmask 11110010
          -4 callsubr
          hintmask 11101100
          -18 callgsubr
          endchar
        </CharString>
        <CharString name="tilde">
          -296 1264 106 2 105 -27 -20 hstemhm
          92 684 hintmask 00000000
          143 -1 callsubr
          hintmask 01010000
          -1 callgsubr
          hintmask 10110000
          8 callgsubr
          endchar
        </CharString>
        <CharString name="trademark">
          966 621 57 -55 68 663 79 hstemhm
          166 51 621 64 895 123 hintmask 00000000
          hintmask 01111100
          899 1163 rmoveto
          6 271 rlineto
          -729 hlineto
          -20 -271 rlineto
          61 hlineto
          6 123 38 68 83 1 rrcurveto
          127 hlineto
          -28 -550 rlineto
          hintmask 10111100
          -74 -4 -19 -53 -78 hhcurveto
          hintmask 01111100
          -4 -57 rlineto
          320 hlineto
          4 73 -94 -4 4 23 0 30 2 31 rlinecurve
          31 583 rlineto
          90 hlineto
          118 2 27 -63 -2 -133 rrcurveto
          1175 271 rmoveto
          -225 hlineto
          -82 -183 -88 -157 -76 -168 -18 -41 -33 -68 -22 -47 rrcurveto
          -2 hlineto
          -29 78 -27 82 -22 65 -148 439 rcurveline
          -254 hlineto
          -4 -82 88 5 -3 -13 -2 -21 -3 -35 rlinecurve
          -45 -463 -8 -84 -18 -57 -82 -2 rlinecurve
          -5 -57 rlineto
          289 hlineto
          4 69 -100 -6 8 23 2 28 4 35 rlinecurve
          36 393 9 130 rlineto
          2 hlineto
          69 -227 87 -231 86 -227 rrcurveto
          86 hlineto
          256 533 19 40 18 41 17 48 rlinecurve
          2 hlineto
          -2 -50 -3 -45 1 -45 5 -305 rcurveline
          1 -86 -21 -61 -82 -2 -4 -57 rcurveline
          324 hlineto
          4 71 -100 -5 2 27 1 44 -1 31 rlinecurve
          -7 430 -2 86 14 57 80 2 rlinecurve
          endchar
        </CharString>
        <CharString name="two">
          -89 0 138 1249 80 hstem
          122 194 457 197 vstem
          941 hmoveto
          27 283 rlineto
          -62 hlineto
          -8 -160 -143 12 -199 6 -357 10 rcurveline
          28 120 127 126 194 148 307 235 108 177 7 138 rrcurveto
          278 15 -201 94 -217 hhcurveto
          -283 -162 -177 -131 -62 42 -40 56 58 38 46 49 27 -6 35 -26 28 hvcurveto
          80 35 98 65 113 hhcurveto
          196 55 -151 -166 -8 hvcurveto
          -7 -135 -116 -167 -159 -143 -217 -193 -205 -143 -14 -289 rrcurveto
          endchar
        </CharString>
        <CharString name="twosuperior">
          -398 627 105 665 70 hstem
          166 117 244 139 vstem
          643 627 -45 callsubr
        </CharString>
        <CharString name="u">
          -63 callgsubr
          69 746 -107 callsubr
        </CharString>
        <CharString name="uacute">
          -63 callgsubr
          498 1227 -98 callsubr
          -588 -751 -107 callsubr
        </CharString>
        <CharString name="ucircumflex">
          -63 callgsubr
          970 -54 callsubr
          -850 -460 -107 callsubr
        </CharString>
        <CharString name="udieresis">
          17 callsubr
          257 224 -14 callgsubr
          -32 188 80 callsubr
          -113 33 callgsubr
          hintmask 1010110100100000
          508 1485 rmoveto
          -100 callsubr
          hintmask 1010101010000000
          301 hmoveto
          -100 callsubr
          -740 -739 rmoveto
          -88 callsubr
          hintmask 1010110101000000
          -95 callsubr
          hintmask 0110110101000000
          -31 callsubr
          164 -24 callgsubr
          -57 12 rlineto
          -83 callsubr
          hintmask 1001110100100000
          -104 callsubr
          hintmask 1010101000100000
          -71 callsubr
          endchar
        </CharString>
        <CharString name="ugrave">
          -63 callgsubr
          714 -70 callgsubr
          -434 -659 -107 callsubr
        </CharString>
        <CharString name="uhungarumlaut">
          17 callsubr
          549 -20 22 -20 -44 callgsubr
          hintmask 0000000000000000
          hintmask 1010011001000000
          315 1243 -49 callsubr
          rlineto
          hintmask 1010100101000000
          -25 callgsubr
          -758 -749 rmoveto
          -88 callsubr
          hintmask 1010011010000000
          -95 callsubr
          hintmask 0110011010000000
          -31 callsubr
          164 -24 callgsubr
          -57 12 rlineto
          -83 callsubr
          hintmask 1001011001000000
          -104 callsubr
          hintmask 1010010101000000
          -71 callsubr
          endchar
        </CharString>
        <CharString name="umacron">
          17 callsubr
          321 111 -44 callgsubr
          hintmask 0000000000000000
          hintmask 1010110010000000
          920 -7 callgsubr
          -308 -575 rmoveto
          hintmask 1010101010000000
          -88 callsubr
          hintmask 1010110100000000
          -95 callsubr
          hintmask 0110110100000000
          -31 callsubr
          164 -24 callgsubr
          -57 12 rlineto
          -83 callsubr
          hintmask 1001110010000000
          -104 callsubr
          hintmask 1010101010000000
          -71 callsubr
          endchar
        </CharString>
        <CharString name="underscore">
          290 -217 115 hstem
          49 1266 vstem
          1315 -102 rmoveto
          -1260 hlineto
          -6 -115 rlineto
          1259 hlineto
          endchar
        </CharString>
        <CharString name="uni00A0">
          -625 endchar
        </CharString>
        <CharString name="uni00AD">
          -177 590 133 hstem
          131 727 vstem
          858 594 rmoveto
          129 -727 -137 vlineto
          endchar
        </CharString>
        <CharString name="uni00B5">
          -65 callsubr
        </CharString>
        <CharString name="uni0149">
          96 3 callgsubr
          494 210 23 callgsubr
          -101 105 366 170 -107 168 hintmask 0000000000000000
          332 1550 rmoveto
          -96 callsubr
          72 -970 rmoveto
          hintmask 1011001010000000
          149 27 69 318 -217 -61 callgsubr
          hintmask 1010010010000000
          -42 callsubr
          -2 39 callsubr
          hintmask 1100010010000000
          -89 callgsubr
          hintmask 1010100010000000
          -86 callsubr
          hintmask 1010010100000000
          -42 callgsubr
          endchar
        </CharString>
        <CharString name="uni0162">
          139 -209 90 119 86 1270 78 -75 75 hstemhm
          74 76 583 152 322 83 hintmask 00000000
          hintmask 11101110
          1295 40 callsubr
          -1186 hlineto
          -35 -433 rlineto
          76 hlineto
          12 242 70 112 172 1 rrcurveto
          210 hlineto
          -63 -1037 -8 -139 -10 -106 -133 -27 callsubr
          171 hlineto
          -67 -205 69 -35 rlineto
          -81 callsubr
          56 158 rlineto
          201 -33 callsubr
          -170 -8 6 35 4 53 8 callsubr
          hintmask 11011110
          -17 callsubr
          78 hlineto
          endchar
        </CharString>
        <CharString name="uni0163">
          -419 -209 90 1058 85 -80 79 hstemhm
          174 166 144 152 84 callsubr
          727 947 rmoveto
          6 77 rlineto
          -326 hlineto
          37 289 rlineto
          28 callsubr
          hintmask 11011000
          -6 -86 182 2 rlineto
          -35 -295 -18 -272 -154 vvcurveto
          -107 36 -96 103 -29 vhcurveto
          -62 -192 69 -35 rlineto
          -81 callsubr
          48 136 118 9 78 73 75 130 rlinecurve
          -53 35 rlineto
          -131 -78 -76 -12 -39 hhcurveto
          -90 -6 98 80 hvcurveto
          hintmask 10111000
          182 35 271 24 229 vhcurveto
          endchar
        </CharString>
        <CharString name="uni021A">
          29 callgsubr
          hstemhm
          74 76 373 151 533 83 hintmask 00000000
          hintmask 11011100
          1285 1001 rmoveto
          -92 callgsubr
          hintmask 10111100
          -17 callsubr
          -692 -1148 -97 callgsubr
        </CharString>
        <CharString name="uni021B">
          26 callsubr
          -66 151 68 callsubr
          444 1313 rmoveto
          28 callsubr
          hintmask 11010000
          -40 callgsubr
          hintmask 10110000
          14 callgsubr
          hintmask 10101000
          -141 -1171 -97 callgsubr
        </CharString>
        <CharString name="uni02C9">
          -564 1264 111 hstem
          56 549 vstem
          599 1268 -53 callgsubr
          endchar
        </CharString>
        <CharString name="uni0400">
          -47 callgsubr
          hstemhm
          1061 72 63 callgsubr
          hintmask 10101100
          735 1576 rmoveto
          49 41 -159 270 -56 94 -59 -32 -12 -13 rlinecurve
          -17 -16 -28 -49 71 -76 rrcurveto
          605 -720 -106 callsubr
        </CharString>
        <CharString name="uni0401">
          -86 callgsubr
        </CharString>
        <CharString name="uni0402">
          452 55 callsubr
          hintmask 00000000
          784 1358 rmoveto
          175 2 211 2 45 -119 -8 -242 rlinecurve
          78 hlineto
          hintmask 11010100
          -92 callgsubr
          28 459 rlineto
          39 68 95 28 142 hhcurveto
          hintmask 11101100
          174 103 -101 -198 -11 hvcurveto
          -253 -13 -59 -167 -82 -18 callsubr
          224 129 186 315 28 hvcurveto
          263 23 -127 65 callgsubr
          endchar
        </CharString>
        <CharString name="uni0403">
          -56 0 54 callgsubr
          -74 74 122 -20 hstemhm
          1027 71 hintmask 00000000
          883 1747 -68 callsubr
          hintmask 10111000
          43 -58 rlineto
          -130 -425 rmoveto
          -21 callsubr
          67 hlineto
          8 359 rlineto
          -942 hlineto
          hintmask 11011000
          -58 callsubr
          endchar
        </CharString>
        <CharString name="uni0404">
          241 -33 107 634 76 560 111 -72 84 -12 -20 hstemhm
          102 190 955 96 hintmask 00000000
          hintmask 11010110
          752 711 rmoveto
          176 6 68 -6 -8 -181 rrcurveto
          67 hlineto
          23 447 rlineto
          -68 hlineto
          -8 -180 -76 -15 -172 2 rrcurveto
          -456 hlineto
          368 41 237 231 276 hhcurveto
          237 154 -147 -256 14 hvcurveto
          74 hlineto
          hintmask 11001110
          25 475 rlineto
          -111 hlineto
          hintmask 11100110
          5 -111 rlineto
          -2 hlineto
          hintmask 11010110
          82 -121 -129 41 -154 hhcurveto
          -478 -243 -388 -385 -21 hvcurveto
          -407 -20 256 -320 411 hhcurveto
          166 240 56 237 188 hvcurveto
          -51 43 rlineto
          -151 -119 -188 -78 -176 hhcurveto
          -298 -231 255 376 12 hvcurveto
          endchar
        </CharString>
        <CharString name="uni0405">
          -8 callgsubr
          107 420 -89 callsubr
        </CharString>
        <CharString name="uni0406">
          -482 -20 callsubr
          hstemhm
          84 529 39 callgsubr
          613 1434 -99 callsubr
          hintmask 10110000
          -38 callgsubr
          endchar
        </CharString>
        <CharString name="uni0407">
          -482 -20 callsubr
          217 224 hstemhm
          175 188 80 callsubr
          hintmask 00000000
          hintmask 11011100
          277 1875 rmoveto
          -100 callsubr
          301 hmoveto
          -100 callsubr
          35 -441 -99 callsubr
          hintmask 10111100
          -38 callgsubr
          endchar
        </CharString>
        <CharString name="uni0408">
          -49 callgsubr
        </CharString>
        <CharString name="uni0409">
          886 -33 84 -51 80 631 75 558 89 -84 83 -2 callgsubr
          74 187 870 168 508 192 hintmask 0000000000000000
          hintmask 0111001110000000
          1284 784 rmoveto
          12 231 6 119 rlineto
          hintmask 0110011110000000
          -38 callgsubr
          hintmask 1011001110000000
          4 68 rlineto
          -935 hlineto
          -4 -91 219 3 rlineto
          -716 -62 -220 -579 -185 hhcurveto
          -12 -8 2 4 -7 hvcurveto
          12 14 1 12 2 19 rrcurveto
          43 5 -29 57 -67 hhcurveto
          -60 -33 -49 -55 -3 hvcurveto
          -90 -5 67 -41 99 hhcurveto
          334 175 560 713 85 hvcurveto
          hintmask 0110101110000000
          10 64 39 43 95 2 178 3 78 callgsubr
          -10 -189 rcurveline
          -36 -685 -10 callgsubr
          591 hlineto
          258 220 140 280 237 -156 140 -388 -9 hvcurveto
          -175 -83 rmoveto
          4 65 64 2 82 hhcurveto
          167 161 -80 -232 -12 hvcurveto
          -215 -12 -147 -104 -190 hhcurveto
          -27 -127 -22 callgsubr
        </CharString>
        <CharString name="uni040A">
          942 0 80 -80 86 612 85 -73 75 561 -3 callsubr
          1134 169 -145 170 534 192 hintmask 0000000000000000
          1320 70 callgsubr
          6 146 2 80 144 6 rlinecurve
          hintmask 1001010110000000
          -41 callgsubr
          -6 -51 -2 -56 rlinecurve
          -22 -420 rlineto
          -713 hlineto
          20 355 rlineto
          hintmask 1010100110000000
          -30 callgsubr
          hintmask 1010011010000000
          4 68 rlineto
          -453 11 callsubr
          6 35 4 53 4 74 rlinecurve
          23 450 713 9 -19 -373 rlineto
          hintmask 0110101010000000
          -8 -154 6 -104 -153 -4 -5 -68 rcurveline
          592 hlineto
          277 221 140 280 237 -23 callsubr
          -232 -12 hvcurveto
          -215 -11 -147 -40 callsubr
        </CharString>
        <CharString name="uni040B">
          529 55 callsubr
          21 166 hintmask 00000000
          hintmask 11100100
          1604 91 rmoveto
          hintmask 11010110
          77 callgsubr
          3 56 rlinecurve
          12 238 rlineto
          263 14 -118 65 callgsubr
          33 556 175 2 rlineto
          hintmask 11010100
          211 2 45 -119 -8 -242 rrcurveto
          78 hlineto
          hintmask 11101100
          -92 callgsubr
          28 459 rlineto
          39 68 95 28 142 hhcurveto
          hintmask 11100110
          174 102 -101 -158 -9 hvcurveto
          -12 -216 -8 -146 -12 -75 -134 -27 callsubr
          453 hlineto
          endchar
        </CharString>
        <CharString name="uni040C">
          6 callgsubr
          84 1272 hintmask 00000000
          915 1751 -68 callsubr
          hintmask 01110100
          43 -58 rlineto
          726 -126 -102 callgsubr
          endchar
        </CharString>
        <CharString name="uni040D">
          439 -20 callsubr
          hstemhm
          84 1454 39 callgsubr
          915 -62 callsubr
          764 -606 -60 callgsubr
        </CharString>
        <CharString name="uni040E">
          87 -34 92 1287 88 -68 68 90 79 hstemhm
          34 1289 -1162 215 -180 199 101 201 84 callsubr
          1014 43 callsubr
          hintmask 10110001
          -22 -34 -45 -5 -46 -68 callgsubr
          134 hhcurveto
          132 118 59 125 99 hvcurveto
          227 -274 rmoveto
          -418 hlineto
          hintmask 11011000
          23 callsubr
          hintmask 10110100
          61 callgsubr
          hintmask 11010100
          -4 -91 127 5 7 -52 16 -70 48 -107 rlinecurve
          363 -802 -40 -82 -31 -62 -15 -24 rlinecurve
          hintmask 10110010
          -14 callsubr
        </CharString>
        <CharString name="uni040F">
          389 0 85 1263 -3 callsubr
          723 91 39 callgsubr
          1328 1115 rmoveto
          hintmask 10110000
          8 145 -8 100 153 50 callsubr
          5 68 rlineto
          -453 62 callgsubr
          -875 -8 -140 -11 -75 -118 -12 rlinecurve
          -575 -6 6 41 6 51 3 56 rlinecurve
          47 885 rlineto
          hintmask 10110000
          6 145 -6 100 153 76 callgsubr
          -452 62 callgsubr
          -897 -8 -146 -12 -73 -134 -27 callsubr
          474 hlineto
          135 29 -129 -234 -11 hvcurveto
          85 hlineto
          17 363 rlineto
          587 hlineto
          4 91 77 callgsubr
          3 56 rlinecurve
          endchar
        </CharString>
        <CharString name="uni0410">
          -4 callgsubr
          hstem
          86 callsubr
          vstem
          699 1473 -107 callgsubr
        </CharString>
        <CharString name="uni0411">
          104 0 80 661 75 531 86 -74 74 hstemhm
          981 191 -119 71 hintmask 00000000
          hintmask 11010100
          437 814 rmoveto
          18 317 8 143 1 81 141 3 rlinecurve
          179 4 154 3 127 -48 -12 -242 rlinecurve
          59 callsubr
          -972 hlineto
          hintmask 11101000
          -4 -91 1 callgsubr
          -6 -51 -2 -56 rlinecurve
          -45 -874 16 callgsubr
          221 140 295 252 -23 callsubr
          -247 -11 hvcurveto
          -230 -11 -148 -40 callsubr
        </CharString>
        <CharString name="uni0412">
          -82 callgsubr
        </CharString>
        <CharString name="uni0413">
          -48 callsubr
        </CharString>
        <CharString name="uni0414">
          244 0 81 1263 89 -84 84 -2 callgsubr
          20 73 1119 94 hintmask 00000000
          hintmask 10100100
          1203 1134 rmoveto
          hintmask 10010100
          -38 callgsubr
          hintmask 10100100
          4 68 rlineto
          -1008 hlineto
          hintmask 11001100
          -4 -91 196 3 -63 -564 -64 -356 -127 -210 rlinecurve
          -115 -73 -58 -20 -111 hhcurveto
          -17 hlineto
          -23 -445 rlineto
          85 hlineto
          234 11 43 130 135 hhcurveto
          777 hlineto
          135 27 -130 -234 -11 hvcurveto
          85 hlineto
          23 454 -174 -9 rlineto
          -3 hlineto
          6 35 6 54 2 74 rrcurveto
          -849 -163 rmoveto
          30 28 27 34 25 41 rrcurveto
          hintmask 10100100
          133 230 60 397 54 441 12 54 35 37 79 5 290 4 78 callgsubr
          -47 -885 rcurveline
          -8 -146 -11 -86 -134 -6 rrcurveto
          endchar
        </CharString>
        <CharString name="uni0415">
          -47 callgsubr
          hstemhm
          1061 72 63 callgsubr
          hintmask 10101100
          1129 1075 -106 callsubr
        </CharString>
        <CharString name="uni0416">
          759 0 86 611 81 574 82 -2 callgsubr
          871 177 -152 176 53 callsubr
          1949 1434 69 callgsubr
          125 4 -59 -45 -61 -72 -35 -55 rlinecurve
          -257 -404 rlineto
          hintmask 11010100
          -153 hlineto
          18 336 7 146 -7 100 154 6 rlinecurve
          hintmask 11100100
          4 68 rlineto
          -461 hlineto
          -5 -91 148 9 -7 -41 -5 -51 -2 -56 rlinecurve
          -23 -426 rlineto
          -152 hlineto
          -215 404 -29 55 -53 72 -55 45 rlinecurve
          125 -4 5 84 rlineto
          -440 hlineto
          hintmask 11011000
          -4 -68 171 -14 102 -34 121 -228 rlinecurve
          169 -320 -80 -47 -45 -45 -54 -82 rlinecurve
          -194 -291 rlineto
          -199 -132 -74 -38 -88 hhcurveto
          -4 -68 rlineto
          220 hlineto
          41 95 70 131 86 hvcurveto
          218 331 42 63 34 54 65 49 rlinecurve
          121 -2 -20 -377 -7 -145 64 callsubr
          90 -148 -8 7 35 4 53 8 callsubr
          24 452 122 2 59 -49 29 -54 35 -63 rlinecurve
          188 -331 rlineto
          -130 74 91 -71 41 hhcurveto
          210 hlineto
          4 68 rlineto
          -88 -69 38 199 -112 hvcurveto
          -163 291 -47 82 -40 45 -74 47 rlinecurve
          203 320 143 228 106 34 173 14 rlinecurve
          endchar
        </CharString>
        <CharString name="uni0417">
          53 -24 97 628 89 593 84 -15 -20 hstemhm
          895 189 -160 198 hintmask 00000000
          hintmask 11100100
          726 764 rmoveto
          hintmask 11101000
          227 41 119 149 12 163 rrcurveto
          215 14 -169 135 -263 hhcurveto
          -141 -96 -39 -86 -126 hvcurveto
          hintmask 11010100
          15 110 rlineto
          -111 hlineto
          -25 -475 rlineto
          74 hlineto
          hintmask 11101000
          268 72 150 138 177 hhcurveto
          142 109 -78 -202 -11 hvcurveto
          -8 -157 -83 -151 -234 -5 rrcurveto
          -170 hlineto
          -5 -90 163 2 rlineto
          hintmask 11100100
          255 -6 122 -85 -11 -197 rrcurveto
          -232 -12 -185 -109 -192 hhcurveto
          -166 -140 82 154 -124 hvcurveto
          -55 -43 rlineto
          -202 126 189 -88 209 hhcurveto
          261 271 140 295 16 hvcurveto
          10 192 -133 144 -273 13 rrcurveto
          -144 -19 rmoveto
          9 -13 -6 -3 rlineto
          endchar
        </CharString>
        <CharString name="uni0418">
          439 -20 callsubr
          hstemhm
          84 1454 39 callgsubr
          1380 1141 -60 callgsubr
        </CharString>
        <CharString name="uni0419">
          439 -20 callsubr
          90 79 hstemhm
          84 1454 -952 201 66 callsubr
          1104 43 callsubr
          hintmask 10110100
          -22 -34 -45 -5 -46 -68 callgsubr
          134 hhcurveto
          132 118 59 125 99 hvcurveto
          194 -567 rmoveto
          -30 callsubr
          hintmask 11011000
          -69 callgsubr
          -2 -15 -818 -1079 46 881 rlineto
          hintmask 10111000
          -30 callgsubr
          hintmask 11011000
          -70 callsubr
        </CharString>
        <CharString name="uni041A">
          6 callgsubr
          84 1272 hintmask 00000000
          hintmask 01110100
          1342 1434 -102 callgsubr
          endchar
        </CharString>
        <CharString name="uni041B">
          250 -33 91 -58 86 1258 90 -84 83 -2 callgsubr
          3 199 -199 1344 hintmask 00000000
          hintmask 01010010
          1189 1134 rmoveto
          hintmask 01001010
          -38 callgsubr
          hintmask 01010010
          4 68 rlineto
          -935 hlineto
          hintmask 01100010
          -4 -91 163 2 rlineto
          hintmask 10010100
          -889 -33 -179 -398 -149 hhcurveto
          -12 -8 3 4 -8 hvcurveto
          14 14 6 16 23 vvcurveto
          54 -35 33 -56 -63 -41 -42 -65 -4 vhcurveto
          -90 -6 66 -41 102 hhcurveto
          305 133 423 859 62 hvcurveto
          3 62 49 33 82 5 239 3 78 callgsubr
          -47 -885 rcurveline
          hintmask 01010010
          -54 callgsubr
          -64 callsubr
          -5 -68 rcurveline
          453 hlineto
          4 90 -147 84 callgsubr
        </CharString>
        <CharString name="uni041C">
          -85 callsubr
        </CharString>
        <CharString name="uni041D">
          -76 callgsubr
        </CharString>
        <CharString name="uni041E">
          -34 callsubr
          846 1467 -104 callgsubr
        </CharString>
        <CharString name="uni041F">
          -67 callgsubr
        </CharString>
        <CharString name="uni0420">
          -65 callgsubr
        </CharString>
        <CharString name="uni0421">
          -3 callgsubr
          1292 303 -84 callgsubr
        </CharString>
        <CharString name="uni0422">
          29 callgsubr
          hstemhm
          80 callgsubr
          66 callsubr
          1285 1001 rmoveto
          -92 callgsubr
          hintmask 10111000
          -17 callsubr
          endchar
        </CharString>
        <CharString name="uni0423">
          87 -34 92 1287 88 -2 callgsubr
          34 1289 -1162 215 -180 199 68 callsubr
          1323 78 callsubr
          hintmask 11010000
          23 callsubr
          hintmask 10101000
          61 callgsubr
          hintmask 11001000
          -4 -91 127 5 7 -52 16 -70 48 -107 rlinecurve
          363 -802 -40 -82 -31 -62 -15 -24 rlinecurve
          hintmask 10100100
          -14 callsubr
        </CharString>
        <CharString name="uni0424">
          521 -90 68 -68 82 -82 90 1468 -3 callsubr
          100 203 1092 203 hintmask 00000000
          hintmask 00110110
          1116 1555 rmoveto
          -461 hlineto
          -5 -91 149 9 -8 -41 -4 -22 callsubr
          -449 -29 -216 -254 -19 -355 -18 -324 220 -186 419 -27 rrcurveto
          hintmask 10010110
          -7 -101 -19 -66 -124 -5 rrcurveto
          hintmask 00110110
          -4 -68 rlineto
          461 hlineto
          5 90 rlineto
          hintmask 01001110
          -149 -8 7 34 5 51 4 71 rlinecurve
          459 20 220 212 19 337 18 353 -224 226 -429 28 7 96 22 62 120 5 rrcurveto
          -387 -1252 rmoveto
          -300 26 -140 141 18 322 16 312 167 177 293 28 rrcurveto
          179 -6 rmoveto
          4 vlineto
          302 -29 153 -179 -18 -351 -17 -293 -170 -139 -304 -17 rrcurveto
          endchar
        </CharString>
        <CharString name="uni0425">
          -83 callgsubr
        </CharString>
        <CharString name="uni0426">
          310 0 82 1265 -3 callsubr
          1280 93 39 callgsubr
          1274 -13 callgsubr
          -6 -41 -6 -10 callsubr
          rlineto
          -158 -8 -11 -79 -129 hhcurveto
          -517 7 4 29 4 52 8 callsubr
          47 895 rlineto
          hintmask 10110000
          8 146 12 75 134 6 rrcurveto
          hintmask 11010000
          4 68 rlineto
          -453 -93 callgsubr
          1041 hlineto
          135 29 -129 -234 -11 hvcurveto
          85 hlineto
          21 454 rlineto
          -24 hlineto
          -147 -9 6 35 4 53 8 callsubr
          endchar
        </CharString>
        <CharString name="uni0427">
          258 0 86 474 104 683 -3 callsubr
          236 166 53 callsubr
          1199 1141 rmoveto
          hintmask 11011000
          -30 callsubr
          hintmask 11101000
          4 68 rlineto
          57 callgsubr
          -25 -467 rlineto
          -42 -75 -106 -31 -164 hhcurveto
          -174 -102 101 158 9 hvcurveto
          12 216 rlineto
          hintmask 11011000
          -30 callgsubr
          hintmask 11101000
          -41 callgsubr
          -5 -51 -3 -56 rlinecurve
          -12 -238 rlineto
          -263 -14 118 -143 254 hhcurveto
          179 140 30 47 96 hvcurveto
          -17 -318 -54 callgsubr
          -100 -153 -27 callsubr
          452 -79 callgsubr
          endchar
        </CharString>
        <CharString name="uni0428">
          897 0 81 1266 -3 callsubr
          84 1910 -78 callsubr
          1834 -79 callgsubr
          endchar
        </CharString>
        <CharString name="uni0429">
          872 0 81 1266 -3 callsubr
          1842 93 -78 callsubr
          1603 hlineto
          135 29 -129 -234 -11 hvcurveto
          85 hlineto
          21 454 rlineto
          -24 hlineto
          -147 -9 6 35 4 53 8 callsubr
          endchar
        </CharString>
        <CharString name="uni042A">
          323 0 80 631 75 570 78 -2 callgsubr
          74 76 1094 192 hintmask 00000000
          hintmask 11100100
          701 70 callgsubr
          rlineto
          hintmask 11010100
          58 callgsubr
          hintmask 11101100
          4 68 rlineto
          -766 hlineto
          -35 -433 rlineto
          76 hlineto
          242 12 70 113 172 hhcurveto
          166 hlineto
          -10 -41 -6 -53 -3 -58 -45 -874 rcurveline
          -8 -154 6 -104 -153 -4 -5 -68 rcurveline
          592 hlineto
          277 221 140 280 237 -23 callsubr
          -232 -12 hvcurveto
          -215 -11 -147 -40 callsubr
        </CharString>
        <CharString name="uni042B">
          662 0 80 -80 86 625 75 561 -3 callsubr
          932 192 hintmask 00000000
          hintmask 10110100
          439 70 callgsubr
          rlineto
          hintmask 10101100
          58 callgsubr
          hintmask 10110100
          -41 callgsubr
          -6 -51 -2 -56 rlinecurve
          -45 -874 -10 callgsubr
          572 hlineto
          257 211 30 callsubr
          -378 -10 hvcurveto
          1169 646 rmoveto
          0 callsubr
          -7 -41 -6 -51 -2 -56 rlinecurve
          -47 -885 rlineto
          hintmask 01101100
          -54 callgsubr
          -64 callsubr
          -5 -68 rcurveline
          453 hlineto
          4 90 -147 -61 callsubr
          47 890 6 146 4 80 144 6 rlinecurve
          -1320 -661 rmoveto
          4 65 54 2 72 hhcurveto
          156 59 callgsubr
          hintmask 10110100
          69 callsubr
          -181 hhcurveto
          -27 -107 -22 callgsubr
        </CharString>
        <CharString name="uni042C">
          61 0 80 631 75 561 -3 callsubr
          982 192 53 callsubr
          439 70 callgsubr
          rlineto
          hintmask 11011000
          58 callgsubr
          hintmask 11101000
          -41 callgsubr
          -6 -51 -2 -56 rlinecurve
          -45 -874 16 callgsubr
          221 140 280 237 -23 callsubr
          -232 -12 hvcurveto
          -215 -11 -147 -40 callsubr
        </CharString>
        <CharString name="uni042D">
          241 -33 107 634 77 666 -20 hstemhm
          372 78 687 199 hintmask 00000000
          263 1452 rmoveto
          -111 hlineto
          -25 -475 rlineto
          74 hlineto
          hintmask 11111000
          256 42 167 150 238 hhcurveto
          276 211 -231 -366 3 hvcurveto
          -687 hlineto
          24 175 rlineto
          -91 hlineto
          -23 -431 rlineto
          67 hlineto
          10 181 70 2 174 -2 454 -5 rcurveline
          -377 -28 -256 -255 -298 hhcurveto
          -178 -179 82 153 -103 hvcurveto
          -56 -43 rlineto
          -243 164 233 -56 168 hhcurveto
          411 301 320 407 22 hvcurveto
          385 20 -214 388 -477 hhcurveto
          -154 -135 -41 -84 -130 hvcurveto
          endchar
        </CharString>
        <CharString name="uni042E">
          923 -33 84 -51 86 602 86 573 86 -68 68 -49 82 hstemhm
          673 196 936 196 hintmask 00000000
          hintmask 10100111
          435 774 rmoveto
          20 365 rlineto
          hintmask 10101011
          -30 callgsubr
          hintmask 01110011
          4 68 rlineto
          -453 11 callsubr
          6 35 4 53 4 74 rlinecurve
          23 440 242 8 rlineto
          -22 vlineto
          hintmask 10100111
          -350 195 -353 417 472 244 415 374 363 -201 348 -451 -362 -268 -301 -392 -41 vhcurveto
          617 -723 rmoveto
          -302 -128 325 339 4 hvcurveto
          355 4 185 315 280 hhcurveto
          296 171 -292 -370 -357 -187 -315 -323 hvcurveto
          endchar
        </CharString>
        <CharString name="uni042F">
          230 0 86 512 74 683 78 hstem
          321 192 vstem
          1169 1115 rmoveto
          7 148 -3 99 150 4 4 68 rcurveline
          -548 hlineto
          -295 -151 -145 -235 -12 hvcurveto
          -13 -237 144 -147 196 -43 -74 -5 -74 -49 -53 -74 -172 -237 rcurveline
          -129 -93 -45 -65 -115 hhcurveto
          -4 -68 rlineto
          233 hlineto
          63 31 77 106 62 90 165 235 rcurveline
          33 47 55 54 63 35 194 2 rcurveline
          -15 -280 -7 -146 64 callsubr
          91 77 callgsubr
          2 56 rlinecurve
          -155 449 rmoveto
          -4 -15 -64 -2 -81 hhcurveto
          -171 -135 147 217 12 hvcurveto
          213 11 137 106 181 hhcurveto
          26 128 2 -6 13 hvcurveto
          -7 -35 -4 -51 -4 -74 rrcurveto
          endchar
        </CharString>
</ttFont>
